<svg xmlns="http://www.w3.org/2000/svg">
  <defs>
    <symbol id="brand" viewBox="0 0 300 300">
      <g transform="translate(0, 300) scale(0.033333, -0.033333)" fill="currentColor" stroke="none">
        <path d="M5230 7243 c-479 -37 -806 -206 -943 -486 -53 -110 -67 -179 -67 -330 0 -269 58 -391 284 -594 25 -23 46 -48 46 -56 0 -16 -66 -27 -161 -27 -46 0 -63 -5 -96 -29 -98 -71 -123 -145 -98 -291 18 -107 35 -160 75 -240 96 -191 269 -327 520 -410 88 -29 174 -46 360 -71 94 -13 466 -6 540 11 30 7 84 19 120 27 227 52 414 166 537 328 188 248 218 635 67 872 -42 67 -163 188 -252 253 -34 25 -60 50 -59 55 2 6 44 13 93 16 103 7 134 20 191 82 57 61 69 106 54 193 -49 278 -224 481 -516 596 -200 79 -470 119 -695 101z m287 -128 c43 -8 92 -15 109 -15 31 0 147 -28 214 -51 80 -28 147 -60 208 -101 24 -15 46 -28 49 -28 10 0 118 -115 146 -156 15 -23 37 -65 48 -95 26 -67 54 -239 42 -258 -7 -11 -67 -13 -337 -12 -181 1 -332 4 -337 7 -5 3 -9 18 -9 33 0 56 -33 108 -101 159 -28 21 -126 42 -192 42 -194 -1 -331 -95 -281 -192 26 -51 73 -79 189 -112 33 -9 81 -24 106 -32 26 -7 60 -14 75 -14 16 0 45 -5 64 -11 19 -5 58 -14 85 -19 66 -11 183 -42 308 -80 206 -62 368 -185 440 -333 43 -88 57 -203 45 -354 -10 -114 -35 -197 -94 -305 -43 -79 -182 -196 -294 -249 -97 -45 -203 -77 -297 -89 -40 -5 -90 -14 -110 -19 -58 -16 -366 -13 -438 4 -33 8 -80 15 -105 15 -25 0 -61 5 -80 11 -19 5 -55 14 -80 18 -50 10 -102 27 -142 47 -14 8 -35 14 -46 14 -11 0 -25 7 -32 15 -7 8 -18 15 -25 15 -6 0 -31 14 -53 30 -23 17 -46 30 -51 30 -13 0 -141 140 -141 154 0 7 -5 17 -12 24 -28 28 -75 187 -88 300 -10 87 -10 106 1 115 10 9 105 11 347 9 l332 -3 0 -33 c0 -80 55 -187 102 -201 13 -4 39 -14 58 -23 55 -26 346 -24 419 3 67 25 101 66 101 121 0 87 -110 142 -390 195 -96 18 -157 32 -195 45 -23 8 -51 14 -63 14 -13 0 -32 5 -43 10 -10 6 -38 14 -61 19 -89 19 -219 73 -303 127 -121 79 -199 177 -251 319 -26 70 -26 305 0 385 49 153 149 280 271 346 115 62 207 99 280 114 22 5 53 13 68 19 16 6 49 11 75 12 26 0 76 6 112 14 89 18 262 18 357 0z m-54 -632 c37 -19 39 -63 1 -63 -46 0 -174 43 -174 59 0 29 118 32 173 4z m-158 -928 c69 -18 99 -30 113 -48 10 -12 5 -15 -34 -21 -97 -13 -155 -7 -201 19 -45 27 -57 60 -25 68 22 6 82 -1 147 -18z"/>
        <path d="M3525 7205 c-230 -39 -419 -121 -616 -266 -113 -84 -152 -121 -231 -218 -130 -157 -213 -303 -268 -474 -58 -179 -70 -255 -70 -452 0 -219 25 -347 109 -548 90 -218 265 -441 469 -595 52 -40 82 -70 82 -82 0 -12 -28 -40 -77 -77 -296 -223 -492 -531 -564 -891 -24 -119 -26 -369 -4 -498 19 -112 76 -286 127 -388 139 -280 368 -509 652 -655 40 -21 81 -40 92 -44 10 -3 49 -17 86 -31 116 -43 272 -68 397 -64 l111 3 56 56 c60 60 77 103 67 167 -7 40 -93 134 -150 164 -41 21 -41 34 -1 56 18 9 56 39 85 66 58 53 79 104 68 162 -8 44 -87 131 -144 158 -58 27 -64 50 -17 66 50 16 131 92 150 141 39 96 -37 217 -155 249 -50 14 -69 50 -69 129 0 92 20 119 107 145 12 4 44 32 72 62 79 87 81 149 4 234 -24 27 -67 62 -94 77 -27 16 -49 30 -49 33 0 3 24 20 54 38 69 41 134 114 142 159 4 19 1 52 -5 73 -15 49 -89 126 -146 151 -25 11 -45 24 -45 28 0 14 36 41 53 41 26 0 134 115 142 150 19 86 -49 191 -152 236 -29 13 -53 28 -53 33 0 5 21 17 46 27 62 23 140 102 154 154 6 22 8 56 4 76 -8 43 -91 137 -146 165 -21 11 -38 23 -38 28 0 16 30 41 49 41 10 0 43 26 73 58 62 65 76 106 58 173 -16 58 -91 130 -153 146 -58 16 -77 48 -77 130 0 77 23 115 80 132 54 16 135 97 151 150 19 64 5 103 -61 170 -33 34 -68 61 -78 61 -11 0 -27 9 -37 20 -15 16 -15 22 -5 35 7 8 23 15 35 15 25 0 144 119 146 145 5 56 4 83 -3 102 -12 37 -87 111 -139 140 -27 14 -49 29 -49 32 0 3 27 23 60 44 33 21 76 59 97 84 33 40 38 53 38 99 0 43 -5 59 -31 90 -16 21 -46 51 -66 67 -34 27 -43 29 -140 33 -58 2 -138 -3 -183 -11z m303 -104 c9 -5 12 -29 10 -82 l-3 -73 -125 2 c-69 2 -130 -1 -136 -5 -15 -11 -6 -290 10 -296 6 -2 60 -1 121 3 60 4 116 5 123 3 9 -4 12 -26 10 -82 l-3 -76 -122 4 -122 3 -3 -143 c-2 -87 1 -148 7 -154 6 -7 47 -9 115 -5 58 3 111 4 118 2 9 -3 12 -25 10 -81 l-3 -76 -123 4 -122 4 2 -254 3 -254 80 5 c44 2 98 4 120 4 l40 1 0 -80 0 -80 -60 0 c-33 0 -88 3 -122 7 l-62 8 -3 -141 c-4 -165 1 -183 39 -175 16 3 69 6 118 8 l90 3 3 -84 3 -83 -98 6 c-54 3 -114 7 -133 9 l-35 2 0 -82 c0 -45 -5 -87 -11 -93 -13 -13 -120 -31 -140 -23 -12 4 -14 14 -9 37 17 79 22 161 10 174 -6 7 -47 19 -91 27 -82 14 -121 25 -190 56 -81 37 -96 22 -92 -91 3 -80 4 -83 33 -99 17 -9 44 -26 60 -37 45 -32 120 -64 150 -64 23 0 26 -4 23 -27 -2 -21 -9 -29 -28 -31 -14 -2 -51 -12 -83 -24 -36 -13 -68 -18 -87 -14 -66 13 -305 215 -381 321 -18 25 -36 45 -40 45 -3 0 -10 8 -13 18 -3 9 -12 26 -19 37 -7 11 -24 38 -37 60 -70 111 -132 276 -150 400 -5 33 -14 76 -20 95 -15 53 -12 275 5 340 8 30 15 70 15 88 0 18 5 43 12 55 6 12 15 38 19 57 9 42 38 120 70 186 112 230 310 444 517 560 111 62 156 84 171 84 10 0 21 4 27 8 10 10 117 43 204 63 30 7 111 16 180 19 69 3 127 7 130 8 3 1 11 -2 18 -7z m-4 -2447 c13 -5 16 -22 16 -85 l0 -78 -137 -3 -138 -3 4 -145 c2 -91 8 -148 14 -152 7 -4 30 -4 54 -1 23 3 77 6 120 7 l78 1 3 -77 c2 -58 0 -78 -10 -79 -7 0 -65 -1 -127 -2 l-115 -2 3 -145 c1 -80 6 -148 9 -151 4 -4 57 -3 117 2 61 4 114 4 118 0 4 -4 7 -41 5 -82 l-3 -74 -122 4 -123 3 0 -252 0 -252 123 3 122 4 0 -80 0 -80 -40 0 c-22 0 -77 4 -122 8 l-82 7 -3 -137 c-2 -76 -1 -146 1 -156 3 -17 15 -18 115 -17 61 1 117 1 124 1 10 -1 12 -21 10 -78 l-3 -78 -70 1 c-38 0 -97 2 -130 5 l-60 4 -6 -140 c-3 -79 -2 -144 3 -150 5 -6 65 -10 136 -11 l127 -1 3 -77 c2 -64 0 -77 -14 -83 -17 -6 -197 9 -309 26 -62 10 -135 27 -170 42 -11 4 -45 18 -75 30 -70 28 -127 55 -165 80 -16 10 -37 22 -45 26 -39 18 -172 128 -235 194 -192 203 -308 422 -345 654 -5 33 -14 76 -20 95 -15 53 -12 276 5 340 8 30 15 68 15 85 0 16 6 47 14 70 7 22 21 65 31 95 22 68 108 244 141 287 13 17 24 35 24 38 0 9 74 96 135 158 115 118 258 219 385 271 8 3 22 10 30 15 31 18 116 46 250 81 25 6 99 16 165 21 103 8 144 13 152 18 1 0 8 -2 17 -5z"/>
        <path d="M3256 6836 c-71 -36 -135 -71 -143 -78 -8 -7 -25 -17 -37 -23 -18 -9 -21 -20 -24 -85 -4 -101 2 -120 36 -120 15 0 36 7 46 15 11 8 27 15 35 15 9 0 29 7 45 15 15 8 39 15 53 15 13 0 33 5 43 10 11 6 40 12 66 15 25 2 49 6 51 9 8 7 3 195 -5 236 -5 19 -15 36 -23 38 -8 1 -73 -27 -143 -62z"/>
        <path d="M2819 6483 c-83 -114 -101 -142 -94 -154 7 -10 40 4 65 28 27 25 105 79 123 86 15 6 18 16 15 64 -3 50 -6 58 -24 61 -16 2 -35 -17 -85 -85z"/>
        <path d="M3330 6453 c-90 -30 -106 -35 -135 -43 -16 -5 -48 -15 -70 -23 -45 -17 -45 -16 -32 -161 7 -84 15 -94 59 -73 20 9 82 19 158 24 l125 8 1 143 1 142 -31 -1 c-17 0 -51 -7 -76 -16z"/>
        <path d="M2825 6212 c-108 -95 -141 -130 -150 -159 -8 -29 5 -29 59 -4 66 32 128 53 176 60 l45 6 0 85 c0 115 -11 116 -130 12z"/>
        <path d="M3380 6038 c-14 -5 -72 -14 -130 -18 -58 -5 -113 -11 -122 -15 -15 -6 -18 -29 -20 -197 -2 -117 1 -196 7 -203 9 -11 62 -19 266 -40 42 -5 57 -3 60 7 2 7 2 116 -1 243 -5 249 -5 247 -60 223z m-69 -194 c6 -16 6 -43 1 -68 -7 -37 -11 -41 -37 -41 -28 0 -30 3 -33 44 -5 67 4 91 33 91 18 0 28 -8 36 -26z"/>
        <path d="M2885 5954 c-22 -8 -49 -18 -60 -21 -26 -6 -75 -28 -155 -68 -69 -35 -85 -61 -56 -93 22 -26 201 -112 230 -112 8 0 33 -9 57 -19 24 -11 47 -17 51 -15 4 3 8 81 8 175 0 190 3 183 -75 153z"/>
        <path d="M2666 5561 c-14 -21 229 -251 265 -251 11 0 19 3 20 8 0 4 2 41 4 83 l4 75 -77 19 c-42 10 -101 31 -131 47 -56 29 -76 34 -85 19z"/>
        <path d="M3099 5438 c-1 -7 -1 -19 1 -27 1 -7 -4 -44 -10 -82 -14 -82 -8 -107 28 -115 15 -3 43 -11 62 -19 19 -7 69 -23 110 -35 41 -12 87 -26 102 -32 15 -5 31 -7 36 -4 5 3 8 70 8 148 l-1 143 -110 5 c-60 3 -123 11 -138 18 -37 16 -87 15 -88 0z"/>
        <path d="M2728 5264 c-7 -6 10 -42 30 -64 7 -8 35 -46 62 -85 67 -95 67 -94 90 -88 17 5 20 13 20 63 0 49 -3 58 -23 67 -12 6 -51 34 -86 62 -61 49 -81 58 -93 45z"/>
        <path d="M3340 4421 c-19 -10 -68 -35 -109 -56 -41 -20 -98 -53 -128 -72 l-53 -34 0 -78 c0 -44 3 -86 6 -95 7 -19 51 -21 73 -3 25 21 226 77 274 77 15 0 27 6 28 13 4 53 -4 225 -12 243 -10 29 -32 30 -79 5z"/>
        <path d="M2881 4108 c-6 -7 -39 -51 -73 -98 -63 -85 -91 -134 -81 -143 7 -7 44 14 80 47 33 30 60 47 101 66 21 9 23 15 20 72 -2 49 -7 63 -20 66 -9 2 -21 -3 -27 -10z"/>
        <path d="M3383 4009 c-23 -4 -51 -13 -62 -18 -11 -6 -28 -11 -38 -11 -10 0 -31 -7 -47 -15 -15 -8 -36 -15 -46 -15 -10 0 -39 -9 -65 -21 l-47 -21 7 -61 c5 -34 9 -81 10 -105 2 -24 5 -46 9 -49 3 -3 30 -1 58 5 29 6 96 14 148 18 52 3 102 10 111 15 14 7 16 28 15 143 -1 74 -3 136 -6 138 -3 3 -24 1 -47 -3z"/>
        <path d="M2888 3812 c-9 -9 -49 -46 -90 -82 -84 -74 -112 -106 -122 -137 -7 -22 -7 -22 40 -8 26 8 52 19 57 24 6 6 19 11 28 11 9 0 30 7 45 15 16 8 43 15 60 15 45 0 53 16 50 100 -2 71 -3 75 -27 77 -13 1 -31 -6 -41 -15z"/>
        <path d="M3375 3579 c-16 -5 -79 -14 -138 -18 -60 -5 -113 -13 -118 -18 -5 -5 -10 -97 -10 -204 l-1 -194 39 -7 c69 -13 286 -38 291 -34 6 6 2 467 -4 478 -6 10 -20 9 -59 -3z m-64 -195 c6 -16 6 -43 1 -68 -7 -37 -11 -41 -37 -41 -26 0 -30 4 -37 40 -11 53 6 95 38 95 17 0 28 -8 35 -26z"/>
        <path d="M2900 3503 c-13 -3 -33 -11 -44 -19 -11 -8 -29 -14 -39 -14 -10 0 -31 -6 -45 -13 -15 -8 -58 -30 -97 -49 -76 -37 -94 -68 -58 -100 21 -19 112 -66 151 -78 15 -5 52 -18 82 -30 30 -12 67 -25 83 -27 l27 -5 0 171 c0 187 4 176 -60 164z"/>
        <path d="M2665 3100 c-6 -9 103 -123 192 -202 32 -29 82 -52 91 -44 3 3 6 39 8 80 3 81 -1 89 -51 100 -98 22 -119 30 -187 67 -23 12 -45 12 -53 -1z"/>
        <path d="M3096 2974 c-3 -9 -4 -20 0 -25 3 -5 0 -43 -7 -83 -10 -59 -10 -78 0 -89 6 -8 64 -31 129 -51 64 -21 137 -43 161 -51 24 -8 46 -13 50 -10 5 2 7 69 7 147 l-1 143 -105 6 c-58 3 -121 11 -140 18 -49 16 -87 14 -94 -5z"/>
        <path d="M2720 2806 c0 -7 25 -52 38 -66 7 -8 37 -49 68 -90 39 -54 61 -75 77 -75 20 0 22 6 25 56 3 50 1 56 -20 66 -13 6 -52 34 -87 62 -36 28 -73 51 -83 51 -10 0 -18 -2 -18 -4z"/>
        <path d="M3056 2594 c-3 -9 -6 -50 -6 -92 l0 -77 63 -41 c74 -49 266 -144 289 -144 17 0 21 25 31 192 6 82 -4 93 -86 102 -57 6 -132 28 -209 60 -48 20 -74 20 -82 0z"/>
        <path d="M4441 4423 c-25 -3 -49 -19 -88 -60 -30 -30 -59 -66 -64 -80 -5 -14 -9 -459 -9 -1099 0 -907 2 -1080 14 -1109 22 -52 93 -123 135 -135 38 -11 597 -14 648 -4 34 7 98 61 134 114 24 34 24 40 29 301 4 205 8 270 19 282 11 15 38 17 185 17 276 1 384 12 501 55 246 89 443 311 522 590 20 71 29 361 14 433 -42 193 -135 365 -260 480 -97 89 -191 145 -318 189 l-78 26 -675 2 c-371 2 -690 0 -709 -2z m1378 -128 c25 -8 54 -15 65 -15 12 0 30 -7 40 -15 11 -8 26 -15 34 -15 8 0 34 -13 59 -30 24 -16 48 -30 53 -30 4 0 10 -3 12 -8 2 -4 24 -24 50 -45 82 -67 165 -193 201 -303 42 -131 47 -163 47 -289 0 -126 -5 -154 -47 -290 -52 -164 -198 -333 -353 -408 -129 -62 -160 -66 -528 -66 l-333 -1 2 -361 c0 -198 -1 -362 -3 -364 -5 -6 -709 -7 -714 -2 -8 8 -9 2257 -2 2260 5 1 315 1 690 -1 574 -2 690 -5 727 -17z"/>
        <path d="M5120 3533 l0 -239 168 4 c209 5 258 17 305 75 71 88 71 244 0 323 -53 60 -84 68 -290 71 l-183 4 0 -238z m300 98 c86 -17 117 -100 61 -163 -28 -31 -33 -33 -111 -36 -65 -3 -85 -1 -99 12 -37 33 -33 155 5 183 20 15 78 16 144 4z"/>
      </g>
    </symbol>
  </defs>
</svg>