 <svg  version="1.0" xmlns="http://www.w3.org/2000/svg"  width="300.000000pt" height="300.000000pt" viewBox="0 0 300.000000 300.000000"  preserveAspectRatio="xMidYMid meet">  <g transform="translate(0.000000,300.000000) scale(0.100000,-0.100000)" fill="#000000" stroke="none"> <path d="M1490 2801 c0 -44 -3 -51 -35 -75 -59 -46 -80 -103 -49 -137 13 -14 16 -38 15 -105 0 -47 -3 -105 -6 -128 -2 -22 -9 -99 -15 -171 -21 -258 -69 -629 -91 -707 -6 -26 -19 -43 -38 -53 -16 -8 -31 -22 -35 -30 -10 -26 -7 -80 4 -91 20 -20 -122 -400 -161 -430 -8 -6 -31 -17 -51 -23 l-38 -13 0 -57 c0 -31 5 -62 11 -68 15 -15 -54 -119 -211 -320 -105 -135 -113 -143 -146 -143 -37 0 -47 -22 -17 -38 27 -14 210 -24 218 -12 4 6 -27 10 -89 10 -98 0 -130 6 -120 21 3 5 56 9 119 9 103 0 114 -2 120 -19 4 -15 19 -21 65 -26 32 -4 63 -4 69 -1 5 4 10 23 9 44 0 21 9 56 20 78 33 65 109 151 158 180 41 24 48 25 70 13 14 -7 29 -20 34 -29 13 -24 0 -190 -16 -190 -7 0 -15 -13 -19 -29 -3 -17 -14 -31 -26 -34 -11 -3 -19 -14 -19 -25 0 -23 26 -29 158 -32 53 -1 82 2 82 9 0 7 -40 11 -115 11 -70 0 -115 4 -115 10 0 13 -10 12 123 19 108 6 117 5 117 -12 0 -27 41 -37 149 -37 75 0 102 4 111 15 16 20 5 45 -20 45 -13 0 -20 7 -20 19 0 10 -6 24 -14 30 -19 16 -36 89 -36 156 0 51 3 60 31 86 30 28 67 43 41 17 -19 -19 -14 -25 18 -20 57 8 172 -103 249 -240 18 -32 30 -62 27 -67 -4 -5 1 -17 11 -26 14 -14 29 -16 82 -12 39 3 97 -1 141 -9 87 -17 120 -12 120 17 0 11 -6 22 -14 25 -31 12 -257 303 -350 452 -24 38 -25 45 -14 70 7 15 12 48 10 74 -3 46 -4 48 -44 60 -56 17 -88 73 -187 334 -31 80 -31 82 -14 112 21 37 8 74 -36 100 -27 15 -31 25 -51 128 -23 122 -53 416 -70 679 -12 202 -21 297 -27 308 -2 4 3 7 11 7 10 0 16 9 16 23 0 13 5 28 11 34 7 7 8 28 4 57 -6 38 -15 53 -46 78 -36 29 -39 36 -39 80 0 36 -4 48 -15 48 -11 0 -15 -12 -15 -49z m62 -112 c30 -28 30 -30 6 -15 -44 26 -46 18 -4 -17 29 -25 38 -38 32 -52 -6 -17 -8 -17 -29 4 -30 27 -74 27 -104 -1 -27 -25 -47 -14 -41 23 3 21 78 89 99 89 5 0 23 -14 41 -31z m-42 -89 c0 -11 -6 -20 -14 -20 -7 0 -25 -9 -40 -21 -24 -19 -26 -19 -26 -2 0 16 54 63 72 63 5 0 8 -9 8 -20z m44 -9 c10 -11 16 -25 14 -31 -4 -14 -48 17 -48 36 0 20 14 18 34 -5z m-44 -152 c0 -95 3 -118 15 -123 23 -8 18 -29 -5 -23 -20 5 -20 0 -21 -306 0 -182 -4 -304 -9 -292 -5 12 -7 -13 -4 -65 3 -58 1 -79 -5 -65 -9 19 -10 19 -10 -2 -1 -24 -16 -39 -25 -24 -7 10 13 71 23 71 8 0 7 -11 16 394 5 209 4 287 -4 282 -6 -4 -11 -1 -11 8 0 8 4 16 10 18 10 3 2 48 -9 48 -3 -1 -14 -17 -23 -38 -13 -27 -15 -39 -6 -47 8 -7 9 -6 4 2 -3 6 -2 14 4 18 5 3 10 -1 10 -9 0 -8 -5 -18 -11 -21 -6 -4 -8 -13 -5 -21 3 -8 1 -25 -4 -39 -6 -16 -6 -25 0 -25 6 0 10 -7 10 -15 0 -8 -4 -15 -10 -15 -5 0 -10 -9 -10 -20 0 -11 -4 -20 -10 -20 -5 0 -8 13 -7 29 1 16 6 27 10 24 4 -2 5 6 2 20 -4 14 -2 28 4 31 6 4 11 12 11 17 0 6 -3 8 -7 6 -15 -9 -8 58 10 95 18 38 37 58 37 39 0 -6 5 -11 10 -11 6 0 10 7 10 15 0 8 -4 15 -8 15 -7 0 -9 48 -2 60 6 13 7 69 0 65 -4 -3 -7 6 -7 19 0 12 6 23 13 23 11 0 14 -25 14 -118z m-48 89 c-17 -17 -15 -28 6 -28 15 -1 16 -2 1 -13 -12 -9 -13 -16 -6 -28 8 -13 6 -21 -6 -34 -9 -9 -17 -12 -17 -6 0 5 5 13 10 16 6 3 10 11 10 16 0 6 -4 7 -10 4 -6 -3 -8 10 -6 33 3 41 14 67 24 57 3 -3 0 -11 -6 -17z m103 -230 c-2 -23 0 -50 6 -60 7 -12 6 -18 -1 -18 -6 0 -8 -5 -4 -12 4 -7 3 -8 -4 -4 -6 4 -9 13 -6 21 3 7 1 22 -4 32 -10 16 -11 17 -17 1 -4 -9 -2 -25 4 -37 17 -31 14 -46 -6 -30 -15 11 -16 11 -5 -1 16 -19 15 -30 -3 -30 -17 0 -20 27 -5 50 6 9 5 17 -2 21 -16 10 1 49 23 49 22 0 23 4 8 32 -8 15 -8 19 0 14 6 -4 11 -2 11 3 0 6 2 11 4 11 3 0 3 -19 1 -42z m-88 -133 c-1 -58 -5 -105 -8 -105 -4 0 -6 39 -4 88 4 118 4 122 9 122 3 0 4 -47 3 -105z m73 -35 c0 -11 -4 -20 -10 -20 -5 0 -9 -5 -7 -11 1 -6 -4 -14 -10 -16 -9 -3 -13 5 -13 22 0 15 4 24 10 20 6 -3 7 1 4 9 -4 11 0 16 10 16 9 0 16 -8 16 -20z m-109 -59 c-6 -10 -8 -34 -4 -52 4 -24 3 -30 -6 -25 -7 5 -10 15 -7 23 3 8 1 11 -5 8 -5 -4 -7 -16 -3 -28 3 -12 3 -19 -1 -15 -4 4 -8 32 -9 61 -1 45 1 52 11 38 11 -14 12 -14 13 5 0 11 3 24 8 28 12 12 14 -21 3 -43z m98 -57 c-17 -20 -29 -17 -29 7 0 19 2 20 17 8 15 -13 15 -12 4 10 -11 19 -11 25 0 32 18 11 25 -36 8 -57z m43 33 c8 4 9 -9 5 -41 -4 -30 -3 -45 3 -41 6 4 10 -6 9 -22 0 -15 -3 -22 -6 -15 -2 6 -9 9 -15 6 -6 -4 -8 -1 -6 7 3 8 1 22 -4 32 -6 11 -5 17 3 17 8 0 8 4 2 13 -5 6 -10 23 -10 37 -1 14 1 19 4 12 3 -6 10 -9 15 -5z m-110 -37 c-6 -15 -11 -19 -16 -12 -10 17 4 56 15 45 6 -6 6 -19 1 -33z m76 -117 c0 -60 2 -115 5 -123 4 -8 9 -49 11 -90 3 -41 6 -77 7 -80 1 -3 3 -9 4 -15 1 -5 4 -17 8 -25 3 -8 8 -25 10 -38 5 -19 3 -21 -9 -11 -8 6 -14 22 -14 35 0 12 -5 26 -11 29 -6 4 -8 26 -5 53 4 43 4 45 -10 28 -8 -11 -14 -28 -14 -37 0 -10 -4 -21 -10 -24 -5 -3 -10 -14 -9 -23 0 -11 4 -8 10 8 8 20 12 22 18 10 12 -23 23 -78 13 -61 -7 9 -12 10 -16 2 -4 -6 -13 -11 -19 -11 -8 0 -8 3 1 9 10 6 10 10 -3 21 -10 8 -15 30 -15 62 0 44 2 49 15 38 18 -15 20 1 3 18 -15 15 9 65 26 55 6 -4 5 1 -3 10 -8 10 -11 20 -8 23 3 4 -1 13 -9 21 -16 16 -15 49 2 46 5 -1 10 7 10 18 0 10 -4 19 -8 19 -4 0 -8 8 -8 18 0 13 2 14 9 4 5 -9 8 -4 7 16 -1 17 -4 28 -7 26 -13 -8 -20 48 -8 62 23 28 28 12 27 -93z m-71 56 c2 -26 0 -29 -12 -19 -18 15 -20 50 -2 50 6 0 13 -14 14 -31z m-50 -13 c2 -19 -2 -38 -7 -41 -6 -4 -8 -10 -5 -15 3 -5 1 -11 -5 -15 -5 -3 -10 0 -11 7 0 7 -2 22 -5 33 -6 29 4 65 19 65 7 0 13 -15 14 -34z m46 -75 c6 -30 5 -32 -10 -20 -15 12 -16 12 -11 -8 4 -13 2 -23 -3 -23 -11 0 -11 17 0 57 6 22 6 33 -2 36 -6 2 -7 9 -2 17 9 15 17 -1 28 -59z m125 11 c7 -19 7 -30 2 -27 -6 4 -10 -1 -10 -9 0 -8 5 -18 10 -21 6 -3 10 -18 10 -33 -1 -25 -2 -24 -20 12 -14 27 -17 43 -10 50 13 13 13 29 1 21 -5 -3 -13 0 -17 6 -5 8 -3 9 6 4 10 -6 11 -1 6 21 -10 38 8 20 22 -24z m-203 -33 c-4 -10 -2 -19 3 -19 5 0 13 10 17 23 6 19 8 19 12 5 2 -10 -3 -25 -12 -35 -14 -14 -18 -14 -26 -2 -12 20 -11 62 1 54 6 -4 8 -15 5 -26z m83 -62 c2 -10 -2 -16 -10 -15 -7 2 -13 -4 -13 -12 0 -8 -4 -20 -8 -27 -4 -6 -3 -14 3 -18 16 -10 11 -51 -10 -76 l-19 -24 0 40 c0 38 0 39 16 20 16 -20 16 -20 8 0 -4 11 -10 40 -12 64 -4 33 -2 42 7 36 9 -5 10 -1 5 15 -6 18 -3 21 11 18 11 -2 20 -11 22 -21z m-60 -28 c1 -23 -1 -38 -7 -35 -14 9 -20 -16 -9 -37 5 -9 6 -22 3 -27 -3 -6 -8 -38 -11 -72 -5 -63 -24 -107 -24 -56 0 15 5 30 10 33 6 3 10 12 10 18 0 7 -5 4 -11 -6 -6 -9 -15 -14 -21 -11 -8 5 -9 -3 -5 -24 6 -31 -6 -52 -18 -32 -10 17 17 90 33 90 13 0 12 3 -3 14 -17 13 -18 15 -1 55 9 23 14 47 10 52 -12 20 6 79 24 79 13 0 18 -10 20 -41z m175 12 c11 -21 12 -32 4 -40 -18 -18 -23 -13 -23 29 0 22 1 40 2 40 1 0 9 -13 17 -29z m27 -78 c-1 -65 6 -107 18 -130 7 -13 11 -39 9 -58 -3 -25 0 -39 12 -46 13 -8 12 -9 -6 -4 -35 10 -28 0 27 -35 55 -35 69 -53 18 -22 -96 57 -175 101 -193 106 -21 6 -110 -33 -212 -93 -32 -19 -50 -25 -47 -17 3 8 34 29 69 47 34 18 62 38 61 44 -2 5 -1 7 1 3 8 -14 23 -8 24 10 0 9 3 12 5 5 3 -7 12 -9 20 -6 9 3 11 8 6 12 -18 11 81 10 101 -1 15 -7 22 -7 29 3 7 11 8 9 4 -4 -5 -15 -2 -17 17 -12 15 4 18 3 8 -3 -10 -7 -10 -11 -1 -17 18 -11 30 15 19 42 -14 38 -10 51 7 21 17 -33 23 -35 21 -8 -1 10 -3 17 -6 15 -7 -8 -30 29 -31 48 0 9 5 17 10 17 6 0 10 7 10 15 0 18 -16 20 -24 3 -3 -7 -4 2 -2 19 3 18 0 36 -6 39 -5 3 -2 14 8 25 23 25 24 25 24 -18z m-175 -90 c-4 -16 -9 -37 -10 -48 -1 -11 -9 -21 -17 -23 -14 -3 -15 3 -8 33 7 33 26 65 37 65 3 0 2 -12 -2 -27z m88 -124 c78 -40 207 -123 207 -132 0 -7 -4 -18 -9 -25 -7 -11 -9 -11 -14 2 -4 9 -30 31 -59 50 -42 26 -62 33 -93 30 -26 -2 -34 0 -25 7 8 5 12 9 8 9 -3 0 -13 2 -20 5 -23 9 -20 -83 3 -96 20 -10 46 -1 68 24 9 12 9 16 -3 20 -8 3 -18 -4 -25 -19 -6 -13 -16 -24 -23 -24 -10 0 -10 3 1 9 16 10 6 31 -15 31 -8 0 -14 5 -14 10 0 15 16 12 34 -6 15 -14 16 -14 16 0 0 21 12 20 42 -4 14 -10 28 -17 31 -14 3 3 18 -2 34 -11 15 -9 20 -14 10 -11 -15 5 -18 1 -15 -21 3 -26 28 -46 28 -23 0 6 -4 8 -10 5 -5 -3 -10 1 -10 10 0 9 6 15 13 13 6 -3 12 -13 12 -24 0 -10 7 -24 15 -31 19 -16 6 -17 -23 -2 -18 9 -20 9 -9 -2 6 -7 12 -24 12 -38 l0 -26 -13 25 c-12 24 -93 77 -103 68 -2 -3 0 -58 6 -123 6 -65 7 -122 2 -127 -8 -8 -10 3 -14 77 -3 32 -7 40 -28 45 l-25 7 25 4 c18 3 26 11 28 29 2 17 0 21 -6 12 -7 -11 -10 -10 -16 3 -3 9 -6 26 -7 38 0 21 -1 21 -8 2 -5 -13 -3 -27 5 -40 19 -27 18 -32 -11 -39 -25 -6 -26 -9 -23 -79 2 -54 7 -72 17 -72 8 0 17 7 19 15 5 13 3 13 -13 0 -17 -14 -18 -13 -12 3 4 9 10 25 13 35 5 14 4 15 -5 2 -9 -12 -11 -6 -9 26 1 31 6 40 21 41 13 1 17 -3 13 -13 -3 -8 -2 -12 4 -9 5 3 8 -10 6 -32 -3 -34 16 -93 30 -93 3 0 3 4 -1 9 -3 5 -1 12 5 16 5 3 10 -3 10 -14 0 -25 -1 -25 -60 -7 l-45 13 -3 217 c-1 119 1 216 5 216 5 0 23 -9 42 -21 18 -11 36 -18 38 -15 3 3 -19 17 -50 32 l-55 27 -95 -46 c-52 -26 -105 -59 -116 -73 -19 -25 -21 -25 -21 -6 0 14 17 31 58 55 144 87 180 99 225 76z m-43 -243 l0 -224 -44 -11 c-24 -6 -52 -14 -62 -18 -16 -6 -16 -5 2 19 10 14 23 23 28 20 5 -3 7 2 3 11 -4 12 -1 17 9 17 10 0 14 -6 11 -14 -3 -8 0 -17 8 -20 7 -2 16 2 19 10 9 23 7 139 -1 130 -4 -4 -7 -35 -6 -69 2 -52 1 -58 -9 -39 -15 30 -36 28 -49 -4 -5 -15 -11 -25 -13 -23 -7 8 15 235 24 252 8 14 6 17 -10 17 -10 0 -35 -7 -54 -16 -30 -15 -36 -25 -55 -88 -11 -39 -18 -54 -15 -33 3 21 8 46 11 54 4 11 2 14 -5 9 -16 -10 -15 7 1 23 10 10 7 10 -15 2 -16 -6 -28 -7 -28 -3 0 5 52 30 115 57 63 26 113 50 111 53 -3 2 -48 -14 -101 -37 -52 -22 -97 -41 -98 -41 -3 0 -1 47 2 61 0 4 48 28 106 55 58 26 105 54 105 61 0 7 2 13 5 13 3 0 5 -101 5 -224z m-104 18 c-3 -9 -6 -20 -6 -25 0 -11 -31 -11 -49 0 -11 7 -7 12 15 25 37 20 48 20 40 0z m257 -1 l32 -18 -27 -3 c-16 -2 -28 -9 -28 -18 0 -8 -4 -14 -10 -14 -5 0 -10 16 -10 35 0 40 1 41 43 18z m101 -39 c4 -9 2 -12 -5 -8 -7 4 -9 -1 -5 -15 3 -11 9 -30 12 -41 9 -31 -4 -23 -21 13 -8 17 -13 23 -10 12 13 -61 13 -74 -1 -31 -10 30 -12 51 -6 55 5 3 8 14 7 23 -4 20 21 13 29 -8z m-479 -63 c1 -33 -5 -87 -15 -122 -14 -55 -18 -60 -25 -38 l-8 24 -4 -23 c-3 -13 1 -29 7 -37 14 -17 -1 -28 -26 -18 -12 4 -15 3 -10 -5 8 -14 -3 -15 -23 -3 -10 6 -20 3 -33 -12 -18 -20 -17 -19 1 18 40 77 61 129 61 148 0 17 1 17 16 3 8 -9 20 -14 25 -11 5 4 6 -1 3 -9 -3 -9 -10 -16 -16 -16 -5 0 -6 6 -2 13 4 6 -1 5 -10 -3 -9 -9 -17 -27 -18 -42 -1 -15 -5 -25 -9 -23 -6 4 -29 -39 -29 -53 1 -4 9 3 19 16 13 15 21 18 24 10 3 -7 6 10 7 37 1 28 4 44 7 37 2 -6 9 -10 14 -6 5 3 9 -3 10 -13 1 -10 5 -3 9 16 10 41 3 64 -16 57 -16 -6 -19 10 -4 19 6 3 10 11 10 16 0 6 -5 7 -11 3 -14 -8 -3 31 18 64 20 32 25 23 28 -47z m434 -3 c12 -40 32 -102 46 -137 14 -36 23 -66 21 -69 -4 -3 -86 19 -86 23 0 6 -21 113 -26 130 -5 20 -5 20 10 1 9 -11 16 -31 17 -45 0 -14 5 -35 10 -46 7 -16 8 -14 4 9 -5 25 -4 28 8 18 17 -14 -26 73 -47 97 -18 20 -30 66 -21 80 3 6 14 11 25 11 14 0 23 -16 39 -72z m-334 52 c4 -6 1 -18 -6 -26 -6 -8 -10 -17 -7 -19 3 -3 -5 -47 -17 -97 -22 -90 -23 -92 -59 -105 -36 -12 -37 -12 -30 10 3 12 11 28 17 35 6 7 11 25 12 40 1 15 10 60 19 100 16 64 21 72 41 72 13 0 27 -5 30 -10z m269 -92 c28 -127 29 -138 18 -138 -17 0 -29 30 -36 90 -4 30 -9 70 -12 88 -4 19 -2 32 4 32 5 0 17 -33 26 -72z m136 23 c0 -14 7 -32 15 -41 9 -10 24 -41 35 -71 20 -56 13 -82 -15 -59 -10 9 -15 9 -15 1 0 -13 48 -34 60 -26 5 3 14 -4 20 -15 13 -24 15 -24 -41 -5 -41 14 -45 19 -63 73 -10 31 -21 63 -24 71 -4 11 -1 13 13 8 15 -6 16 -5 5 8 -7 8 -16 12 -21 9 -15 -9 -10 13 6 26 11 9 14 23 10 44 -5 23 -4 27 4 16 6 -8 11 -26 11 -39z m-394 -23 c-12 -107 -18 -138 -28 -138 -6 0 -7 17 -3 43 23 150 44 214 31 95z m124 -132 c0 -15 7 -27 18 -30 175 -50 441 -131 452 -137 39 -22 -29 -4 -239 61 -124 38 -227 68 -229 65 -6 -6 -22 0 243 -81 121 -37 224 -71 229 -76 29 -25 -26 -12 -234 52 -128 39 -235 69 -238 66 -6 -7 -11 -5 203 -71 253 -77 255 -77 255 -87 0 -5 -8 -7 -17 -4 -127 38 -449 126 -461 126 -10 0 -118 -29 -242 -64 -124 -35 -227 -61 -230 -59 -10 9 31 23 241 84 121 35 219 66 219 70 0 8 -45 -4 -297 -80 -90 -26 -163 -44 -163 -40 0 8 70 31 320 104 69 20 130 41 135 47 7 6 5 7 -5 4 -91 -31 -323 -96 -328 -92 -3 3 2 6 10 6 11 0 14 7 10 25 -3 18 0 25 11 25 8 0 22 3 31 6 11 4 16 1 16 -11 0 -12 -6 -16 -19 -12 -12 3 -22 -1 -25 -9 -7 -19 -10 -20 158 31 82 25 151 45 153 45 1 0 3 14 3 30 0 17 5 30 10 30 6 0 10 -11 10 -24z m51 4 c5 0 9 -7 9 -16 0 -11 -5 -14 -16 -10 -9 3 -20 6 -25 6 -5 0 -9 7 -9 16 0 11 5 14 16 10 9 -3 20 -6 25 -6z m-151 -33 c0 -7 -24 -21 -53 -30 -66 -21 -67 -21 -67 -1 0 11 6 15 20 11 11 -3 20 -1 20 5 0 6 7 8 15 4 8 -3 15 -1 15 5 0 6 7 9 15 5 8 -3 15 -1 15 4 0 6 5 10 10 10 6 0 10 -6 10 -13z m358 -38 c2 -4 10 -5 18 -2 9 3 14 -1 14 -12 0 -12 -5 -15 -17 -10 -10 4 -28 10 -40 12 -13 3 -23 12 -23 20 0 10 6 12 23 7 12 -3 23 -10 25 -15z m-278 -321 c0 -144 -3 -258 -7 -254 -4 4 -6 41 -4 82 1 41 0 74 -2 74 -10 0 -52 -75 -53 -95 -1 -11 5 -33 13 -48 8 -16 12 -31 10 -34 -3 -2 -24 -3 -46 -1 l-42 3 31 43 c18 23 28 42 23 42 -10 0 -63 -74 -63 -88 0 -6 12 -13 28 -15 19 -3 15 -4 -15 -6 l-42 -1 6 128 c4 113 2 131 -15 162 -39 69 -103 91 -171 56 -29 -15 -31 -15 -31 1 0 15 -3 15 -22 -5 -37 -36 -10 -48 43 -17 50 28 96 32 125 10 18 -13 17 -14 -11 -6 -20 5 -47 3 -80 -6 -68 -20 -175 -129 -230 -235 -22 -42 -41 -75 -43 -73 -12 12 90 175 150 241 30 33 35 43 23 48 -8 3 -15 0 -15 -7 -1 -7 -17 -30 -36 -52 -21 -23 -33 -31 -29 -20 4 11 8 26 8 32 0 7 3 11 5 8 8 -8 42 26 42 42 0 8 -12 13 -30 13 -28 0 -30 -2 -32 -42 -1 -40 -1 -41 -5 -9 -7 56 13 81 64 81 38 0 43 3 43 23 0 13 5 28 12 35 6 6 9 15 5 19 -4 4 -13 -8 -19 -25 -7 -18 -16 -32 -21 -32 -5 0 -6 8 -2 18 4 9 7 25 7 35 -1 12 4 17 12 14 8 -3 19 0 25 6 6 6 11 8 11 5 0 -4 17 2 38 12 32 16 39 17 48 4 14 -17 27 -19 22 -2 -6 17 33 37 48 26 7 -5 14 -2 18 8 6 14 9 14 27 -7 l21 -24 -4 25 c-2 16 2 26 12 28 13 2 14 -10 8 -85 -3 -49 -7 -97 -7 -107 -2 -34 -14 -8 -16 35 -2 26 1 36 6 28 7 -11 9 -10 9 4 0 10 -8 17 -20 17 -21 0 -28 -24 -10 -35 6 -3 10 -10 10 -15 0 -5 -15 -1 -32 9 -40 22 -88 35 -88 22 0 -4 18 -11 39 -15 44 -7 90 -52 92 -89 2 -51 29 84 29 148 0 73 10 102 29 91 6 -4 17 -4 24 1 6 4 21 9 31 10 19 3 19 3 1 -17 -12 -13 -25 -18 -40 -14 -20 5 -23 1 -27 -36 -3 -37 -2 -41 17 -36 11 3 33 6 48 6 28 0 28 1 27 53 -3 64 -2 67 10 67 6 0 10 -94 10 -262z m-432 226 c15 3 38 8 52 11 14 3 9 -1 -10 -8 -74 -29 -76 -29 -77 1 0 16 1 19 4 8 4 -14 11 -17 31 -12z m494 -78 c58 -12 60 -10 52 40 -5 37 -4 46 7 42 9 -3 16 -28 20 -74 l5 -69 2 68 c2 60 11 82 26 58 3 -4 24 -11 46 -15 23 -3 39 -10 36 -15 -3 -5 2 -15 11 -22 15 -12 16 -12 10 3 -4 12 -1 16 13 15 10 -1 17 -4 14 -8 -2 -4 1 -11 7 -15 6 -3 15 -1 19 6 5 9 9 9 14 1 4 -6 12 -9 17 -6 19 12 21 -26 3 -40 -22 -15 -21 -16 23 -32 l33 -11 -16 30 c-8 16 -14 33 -12 37 6 13 88 -9 88 -25 0 -8 -7 -14 -15 -14 -8 0 -15 4 -15 9 0 10 -30 24 -37 18 -2 -3 2 -16 8 -31 8 -17 20 -26 35 -26 28 0 54 -10 54 -20 0 -12 -73 -10 -87 2 -10 8 -13 6 -13 -5 0 -8 7 -18 16 -21 9 -4 15 -9 12 -11 -3 -3 -29 6 -59 20 -60 27 -121 32 -158 11 -14 -8 -31 -12 -37 -9 -8 3 -12 -3 -11 -15 1 -19 2 -19 30 2 61 45 191 15 275 -65 39 -36 51 -33 26 8 l-18 28 27 -24 c27 -24 27 -24 27 -3 0 30 12 28 38 -8 25 -33 29 -48 8 -31 -8 7 -17 8 -20 3 -3 -5 12 -21 34 -36 22 -14 40 -29 40 -31 0 -3 -14 -4 -31 -3 -34 3 -65 37 -56 62 8 21 -3 27 -20 10 -13 -13 -10 -20 23 -64 23 -30 41 -45 45 -39 5 8 8 8 13 0 4 -6 17 -16 29 -23 20 -10 21 -10 8 6 -15 18 -9 32 8 22 10 -6 12 -56 3 -56 -2 0 -18 10 -35 22 -29 21 -30 21 -23 2 8 -21 6 -20 -50 51 -74 94 -142 144 -226 166 -96 26 -163 -21 -177 -126 -7 -53 0 -142 14 -177 6 -16 1 -18 -41 -17 -46 2 -47 2 -14 8 19 3 31 9 25 13 -11 7 -12 121 -1 156 9 28 -5 28 -30 0 -10 -12 -14 -19 -8 -15 7 4 11 -9 11 -36 0 -23 4 -51 7 -62 4 -11 0 -8 -9 8 -8 15 -21 27 -27 27 -7 0 -5 -7 4 -17 9 -10 21 -28 27 -40 9 -19 9 -23 -2 -23 -8 0 -20 14 -27 31 l-13 31 -14 -24 -14 -23 6 25 c4 14 9 40 12 59 3 20 8 29 13 21 4 -7 10 -8 12 -4 3 5 -4 18 -15 29 -11 11 -17 15 -14 10 3 -6 2 -26 -3 -45 -7 -34 -8 -33 -8 13 1 44 3 48 21 43 11 -2 26 2 34 10 8 8 10 14 5 14 -5 0 -24 3 -41 6 l-31 7 0 -87 c0 -56 -4 -86 -11 -86 -6 0 -8 7 -5 16 3 9 7 122 8 252 1 130 3 214 5 186 4 -49 6 -52 35 -58z m32 78 c3 -9 1 -24 -4 -34 -7 -13 -7 -21 2 -26 7 -4 8 -3 4 4 -4 7 -2 12 3 12 14 0 14 -17 0 -26 -6 -3 -15 0 -20 7 -5 8 -9 10 -9 5 0 -6 -4 -6 -10 0 -12 12 -22 53 -15 63 8 13 44 9 49 -5z m-147 -36 c22 4 24 3 15 -13 -5 -10 -17 -20 -26 -21 -9 -1 -14 2 -10 7 3 5 0 9 -5 9 -6 0 -11 -5 -11 -12 0 -6 -3 -9 -6 -5 -3 3 -2 16 2 29 4 13 9 18 11 12 2 -6 15 -9 30 -6z m583 -183 c0 -23 -2 -24 -20 -15 -11 6 -20 8 -20 4 0 -3 -7 -1 -15 6 -11 9 -15 9 -15 1 0 -7 -4 -10 -10 -6 -22 13 3 35 41 35 35 0 39 -3 39 -25z m-796 -1 c4 -9 1 -23 -5 -30 -13 -16 -33 -19 -24 -4 3 6 1 10 -5 10 -7 0 -10 -7 -6 -15 3 -9 -3 -19 -14 -25 -14 -7 -20 -7 -20 0 0 5 -4 10 -10 10 -5 0 -7 -7 -4 -15 3 -8 2 -20 -2 -27 -5 -7 -9 -18 -10 -24 -1 -6 -19 -33 -39 -60 -21 -27 -45 -64 -53 -81 -9 -20 -23 -33 -34 -33 -10 0 -18 3 -18 7 0 10 49 72 100 127 26 29 36 44 23 38 -16 -9 -23 -9 -27 1 -3 7 -5 6 -3 -4 2 -12 -98 -149 -109 -149 -2 0 -1 17 2 38 4 36 3 36 -9 -8 l-13 -45 33 -8 c56 -15 36 -38 -25 -29 -19 2 -36 10 -38 17 -6 15 42 115 55 115 5 0 12 12 16 28 4 15 10 21 12 15 7 -19 16 -16 32 10 13 20 13 21 -2 8 -10 -7 -17 -9 -17 -4 0 15 41 65 48 59 2 -3 -1 -12 -8 -21 -11 -13 -10 -14 4 -9 14 5 20 17 18 35 -1 4 10 17 24 30 21 20 27 21 35 9 8 -12 9 -12 7 4 -2 14 7 22 32 32 46 17 47 17 54 -2z m558 1 c10 0 48 -43 92 -102 l75 -102 -99 101 -98 100 -30 -16 c-36 -19 -46 -20 -36 -5 9 15 68 39 74 31 3 -4 13 -7 22 -7z m125 -38 c17 -9 39 -27 47 -39 9 -12 16 -19 16 -14 0 5 7 3 15 -4 8 -7 13 -16 10 -20 -3 -5 8 -18 25 -30 16 -12 30 -26 30 -31 0 -17 52 -79 61 -73 5 3 6 -1 3 -9 -2 -7 0 -26 6 -41 10 -27 10 -27 -32 -24 -25 2 -43 9 -46 17 -3 10 0 12 13 7 11 -4 -2 12 -28 34 -26 23 -46 44 -45 48 1 4 -15 24 -35 45 -21 21 -35 43 -32 48 4 5 2 9 -4 9 -9 0 -91 102 -91 114 0 6 39 -11 87 -37z m-983 -44 c-35 -29 -37 -33 -16 -33 12 0 22 -4 22 -10 0 -15 -38 -12 -42 2 -3 7 11 35 31 61 27 37 37 44 40 30 2 -11 -11 -30 -35 -50z m376 57 c10 -7 11 -10 2 -10 -9 0 -8 -8 5 -27 l18 -26 -28 18 c-21 14 -25 20 -16 31 19 23 3 16 -66 -25 -83 -50 -85 -43 -3 9 67 44 67 44 88 30z m-330 -76 c0 -22 -29 -74 -41 -74 -6 0 -7 5 -4 10 3 6 1 10 -4 10 -14 0 -14 -13 -2 -26 6 -5 0 -27 -17 -58 -41 -75 -52 -71 -52 18 0 42 4 76 9 76 4 0 6 -12 3 -26 -3 -16 1 -30 9 -35 10 -6 10 -9 2 -9 -9 0 -12 -13 -12 -37 2 -34 2 -35 6 -8 2 17 16 40 31 53 19 16 21 21 8 16 -15 -6 -17 -4 -11 7 8 12 6 12 -8 0 -15 -11 -17 -11 -17 2 0 8 15 21 33 28 50 20 77 61 35 52 -22 -4 -22 -4 -4 11 21 17 36 13 36 -10z m498 -89 c-1 -24 -5 -42 -10 -39 -16 10 -8 -16 12 -36 23 -23 25 -30 8 -30 -7 0 -21 18 -30 40 -9 22 -12 38 -7 34 6 -3 7 4 3 20 -4 16 -1 32 6 41 18 21 18 20 18 -30z m-628 -7 c0 -15 -13 -31 -35 -47 -19 -13 -32 -28 -28 -34 3 -5 1 -7 -5 -3 -5 3 -12 0 -15 -6 -2 -7 -7 -11 -10 -8 -4 4 83 120 91 120 1 0 2 -10 2 -22z m1340 -87 c12 -45 12 -51 0 -51 -8 0 -60 101 -60 116 0 3 11 -3 25 -12 13 -9 29 -32 35 -53z m53 13 c15 -17 24 -34 20 -38 -3 -3 -1 -6 5 -6 7 0 12 -4 12 -10 0 -5 -13 -10 -30 -10 -23 0 -31 5 -36 24 -3 14 -3 29 0 34 3 5 -1 15 -9 22 -8 7 -15 17 -15 22 0 14 25 -4 53 -38z m-1393 6 c0 -15 -7 -20 -26 -20 l-26 0 23 20 c30 24 29 24 29 0z m718 -5 c-2 -20 -8 -25 -30 -25 -28 0 -37 13 -17 26 6 3 15 1 19 -6 6 -9 10 -7 15 9 9 28 15 27 13 -4z m673 -75 c37 0 71 -4 74 -10 4 -6 -21 -10 -68 -10 l-73 0 -17 35 c-9 20 -17 39 -16 43 0 4 8 -8 16 -25 16 -32 18 -33 84 -33z m-1344 33 c-13 -13 29 -32 71 -33 23 0 42 -4 42 -10 0 -16 -82 -12 -101 6 -14 12 -38 16 -105 15 -76 -1 -85 1 -74 14 9 11 33 15 93 15 44 0 77 -3 74 -7z m603 -12 c0 -18 -9 -20 -102 -23 -57 -2 -104 -3 -106 -2 -1 1 0 8 4 17 4 13 24 17 87 20 45 1 90 4 100 5 11 1 17 -5 17 -17z m188 -4 c22 -18 0 -22 -90 -19 -77 3 -88 6 -88 22 0 17 7 18 83 13 45 -3 88 -10 95 -16z m467 -29 c6 -6 -13 -8 -49 -6 -35 2 -61 8 -63 15 -5 14 96 6 112 -9z m-445 -19 c0 -10 -169 -13 -195 -3 -33 13 5 19 99 16 53 -2 96 -8 96 -13z m630 -9 c27 -17 -14 -22 -83 -12 -36 6 -92 8 -126 5 -42 -4 -61 -2 -61 6 0 14 248 15 270 1z"/> <path d="M1593 1321 l-22 -19 52 -21 c33 -13 45 -15 33 -6 -11 8 -27 15 -35 16 -11 0 -10 3 4 8 12 5 23 4 27 -3 5 -6 8 -2 8 11 0 12 -4 25 -10 28 -5 3 -10 -1 -10 -9 0 -9 -4 -16 -9 -16 -5 0 -18 -3 -28 -6 -14 -4 -13 -1 6 15 29 26 14 27 -16 2z"/> <path d="M1516 1293 c-9 -27 -5 -103 5 -97 4 2 5 23 2 46 -4 29 -3 39 5 34 7 -4 20 -2 29 4 12 7 13 10 3 7 -8 -2 -20 3 -26 11 -10 14 -12 13 -18 -5z"/> <path d="M1427 1368 c-7 -24 3 -42 10 -20 3 6 9 9 15 6 6 -4 8 1 6 11 -5 27 -25 29 -31 3z"/> <path d="M1400 1369 c0 -5 -4 -8 -9 -5 -5 4 -7 -4 -3 -16 5 -22 4 -22 -15 -5 -19 17 -20 16 -32 -9 -6 -15 -9 -29 -6 -32 3 -4 8 4 12 17 4 15 8 19 13 11 13 -21 50 -2 50 26 0 13 -2 24 -5 24 -3 0 -5 -5 -5 -11z"/> <path d="M1430 1300 c-14 -4 -19 -8 -12 -9 9 -1 12 -10 8 -28 -15 -86 -16 -103 -5 -103 6 0 8 7 5 16 -5 14 -4 15 9 4 10 -8 15 -9 15 -1 0 21 -2 26 -11 24 -12 -4 -11 1 3 33 l13 27 6 -24 c4 -16 6 -8 6 24 0 26 -3 47 -6 46 -3 -1 -17 -5 -31 -9z"/> <path d="M1412 1137 c-8 -9 -8 -23 -2 -43 l10 -29 -3 32 c-2 19 2 34 9 37 7 3 10 -2 7 -14 -3 -10 -1 -20 4 -23 6 -4 10 7 10 23 0 31 -17 39 -35 17z"/> <path d="M1237 1159 c-3 -12 -2 -31 3 -42 8 -21 9 -21 8 3 0 14 3 33 7 43 4 9 3 17 -3 17 -5 0 -12 -9 -15 -21z"/> <path d="M1763 1076 c15 -12 16 -18 8 -35 -8 -14 -8 -28 0 -48 9 -25 11 -26 20 -10 6 9 15 14 21 11 7 -4 8 -2 4 5 -4 6 -10 9 -14 7 -4 -2 -8 10 -9 26 -3 33 -19 58 -37 58 -6 0 -3 -7 7 -14z"/> <path d="M1226 736 c-9 -15 -15 -33 -13 -39 3 -7 8 -4 13 8 4 11 12 23 17 26 5 4 8 12 5 19 -2 8 -11 2 -22 -14z"/> <path d="M1380 690 c-12 -7 -12 -12 -2 -22 16 -16 15 -33 -1 -19 -11 9 -16 -2 -23 -54 -6 -36 -8 -69 -5 -74 8 -11 121 -12 121 -1 0 5 -4 12 -10 15 -5 3 -10 11 -10 16 0 6 5 7 10 4 11 -7 11 9 0 45 -7 22 -8 22 -10 5 -1 -11 -2 -26 -1 -34 2 -7 -2 -10 -8 -6 -12 7 -5 53 10 70 5 5 9 22 9 37 0 25 -4 28 -32 28 -18 0 -40 -5 -48 -10z m45 -40 c-10 -16 -28 -11 -21 6 3 8 2 12 -3 9 -5 -3 -13 0 -17 6 -4 7 -3 9 4 5 6 -3 14 -1 18 5 5 8 10 7 16 -5 5 -9 6 -21 3 -26z m10 -28 c-14 -38 -13 -45 1 -68 9 -13 13 -28 9 -32 -4 -4 -10 -1 -13 7 -4 11 -6 11 -14 0 -7 -10 -8 -8 -3 8 3 12 1 24 -5 28 -8 5 -7 12 2 23 12 15 11 16 -5 3 -10 -8 -23 -24 -29 -35 -10 -19 -10 -20 5 -7 15 12 17 11 17 -8 0 -12 -6 -21 -15 -21 -8 0 -15 5 -15 11 0 5 -5 7 -11 3 -6 -3 -3 5 6 20 10 14 13 26 8 26 -6 0 -8 11 -5 25 2 14 8 22 14 19 5 -3 6 -15 3 -27 -5 -17 -4 -19 4 -7 6 8 8 23 5 32 -4 12 0 15 14 11 21 -5 37 20 26 40 -5 8 -3 9 4 2 8 -8 7 -22 -3 -53z"/> <path d="M1393 491 c-24 -4 -44 -9 -46 -12 -6 -6 -18 -149 -13 -149 2 0 15 18 30 39 26 38 27 40 12 70 -23 43 -19 52 5 13 l22 -33 28 33 c43 51 42 52 -38 39z m37 -22 c0 -4 -6 -12 -14 -18 -12 -10 -17 -8 -25 6 -8 16 -6 19 15 19 13 0 24 -3 24 -7z m-60 -39 c8 -16 7 -26 -5 -42 -15 -22 -15 -21 -15 20 0 47 4 51 20 22z"/> <path d="M1643 755 c5 -39 26 -62 39 -42 11 18 10 37 -3 37 -6 0 -9 -7 -6 -14 4 -10 1 -13 -8 -9 -10 3 -13 13 -9 28 3 13 1 26 -6 30 -7 4 -9 -5 -7 -30z"/> <path d="M1707 720 c-17 -17 -17 -18 3 -23 11 -3 18 -1 14 4 -3 5 2 9 10 9 9 0 16 -5 16 -11 0 -6 9 -9 20 -6 10 3 21 0 23 -6 1 -5 8 -8 15 -6 6 2 0 14 -15 29 -19 18 -25 20 -20 8 8 -23 -2 -23 -27 1 -20 18 -22 18 -39 1z"/> <path d="M1510 623 c0 -42 3 -74 6 -70 11 11 22 77 13 83 -5 3 -9 11 -9 17 0 7 4 6 10 -3 5 -8 10 -10 10 -3 0 6 9 9 20 6 11 -3 17 -10 13 -16 -3 -6 -1 -7 5 -3 7 4 12 3 12 -3 0 -5 -3 -12 -8 -14 -9 -6 -8 -54 2 -85 12 -37 18 -18 20 57 1 38 -1 66 -4 63 -3 -4 -21 1 -40 11 l-35 18 43 -6 c25 -4 42 -3 42 3 0 14 -25 22 -66 22 l-34 0 0 -77z"/> <path d="M1636 659 c-9 -46 -7 -111 3 -105 5 3 6 27 3 52 -3 32 -2 45 6 40 14 -8 24 8 16 28 -10 25 -21 19 -28 -15z"/> <path d="M1560 568 c0 -6 -3 -8 -6 -5 -7 7 -44 -35 -44 -50 0 -4 5 -1 10 7 9 13 11 13 20 0 9 -13 10 -13 10 0 0 11 2 12 8 3 5 -8 8 1 8 22 0 19 -1 35 -3 35 -2 0 -3 -5 -3 -12z"/> </g> </svg> 