 <svg  version="1.0" xmlns="http://www.w3.org/2000/svg"  width="300.000000pt" height="300.000000pt" viewBox="0 0 300.000000 300.000000"  preserveAspectRatio="xMidYMid meet">  <g transform="translate(0.000000,300.000000) scale(0.050000,-0.050000)" fill="#ffffff" stroke="none"> <path d="M1285 4530 c-360 -101 -938 -643 -1033 -969 -103 -351 43 -710 374 -917 l95 -60 -124 -124 c-69 -69 -209 -229 -312 -357 l-187 -233 106 -96 c378 -344 1066 -438 1535 -211 193 95 676 580 766 771 195 411 25 875 -396 1077 -82 40 -149 77 -149 83 0 19 105 136 131 146 15 6 121 127 237 270 l209 260 -53 56 c-249 261 -829 408 -1199 304z m-701 -778 c-27 -423 175 -667 746 -903 382 -159 415 -177 406 -235 -10 -70 -92 -99 -155 -55 -28 20 -198 97 -377 171 -474 197 -619 319 -697 588 -41 141 -28 359 29 487 55 126 60 121 48 -53z m1199 47 c215 -73 241 -100 172 -184 l-45 -55 -134 69 c-74 37 -184 78 -245 91 -123 25 -145 64 -56 97 87 31 177 26 308 -18z m-1378 -226 c-20 -309 120 -573 397 -747 l92 -57 -53 -64 -52 -63 -106 60 c-329 188 -477 603 -329 923 58 125 62 121 51 -52z m768 -915 c108 -46 218 -91 245 -101 86 -33 32 -37 -85 -7 -115 30 -270 101 -343 158 -61 47 -31 39 183 -50z m-549 -573 c248 -187 553 -285 884 -285 177 1 255 10 422 51 22 6 -1 -12 -51 -39 -380 -204 -1037 -128 -1394 162 -98 79 -99 83 -44 153 52 66 34 70 183 -42z m-180 -180 c320 -242 846 -353 1217 -257 143 38 145 29 4 -34 -411 -184 -987 -111 -1352 173 l-110 85 50 64 c61 79 41 82 191 -31z"/> <path d="M3760 4432 l0 -92 -90 0 -90 0 0 -90 0 -90 -90 0 -90 0 0 -1340 0 -1340 409 0 409 0 6 85 6 85 95 6 95 6 0 89 0 89 90 0 90 0 0 230 0 230 56 0 c348 0 1061 609 1171 1000 129 458 -23 885 -382 1076 -228 121 -291 129 -1020 139 l-665 8 0 -91z m0 -1382 l0 -1210 290 0 290 0 0 -50 0 -50 -340 0 -340 0 0 1260 0 1260 50 0 50 0 0 -1210z m-180 -180 l0 -1210 290 0 290 0 0 -50 0 -50 -340 0 -340 0 0 1260 0 1260 50 0 50 0 0 -1210z m1312 947 c168 -42 235 -279 112 -402 l-44 -44 0 65 c0 157 -82 248 -259 286 -88 18 -101 28 -101 70 0 56 126 67 292 25z m-165 -177 c111 -1 218 -271 121 -308 -54 -21 -65 -14 -100 59 -18 39 -59 84 -91 100 -77 40 -88 182 -12 162 25 -7 61 -13 82 -13z m-45 -283 c16 -31 12 -37 -31 -37 -44 0 -51 9 -51 62 0 68 38 56 82 -25z m472 -699 c-210 -110 -554 -153 -554 -68 0 49 2 50 175 52 96 1 225 13 285 27 159 37 180 34 94 -11z m-224 -198 c-180 -86 -330 -109 -330 -50 0 41 12 46 145 58 80 7 172 21 205 31 109 32 102 19 -20 -39z"/> </g> </svg> 