 <svg  version="1.0" xmlns="http://www.w3.org/2000/svg"  width="900.000000pt" height="753.000000pt" viewBox="0 0 900.000000 753.000000"  preserveAspectRatio="xMidYMid meet">  <g transform="translate(0.000000,753.000000) scale(0.100000,-0.100000)" fill="#000000" stroke="none"> <path d="M3963 7351 c-14 -12 -31 -17 -44 -14 -12 4 -25 0 -30 -8 -4 -8 -19 -14 -31 -14 -28 0 -37 -45 -14 -65 26 -21 20 -82 -10 -111 -14 -13 -36 -45 -49 -70 -21 -43 -23 -56 -19 -169 2 -79 8 -128 16 -138 9 -10 15 -65 18 -160 4 -122 8 -147 22 -156 22 -13 35 -1 18 19 -17 21 5 74 37 86 12 4 23 16 23 24 0 10 7 15 18 13 13 -3 16 -12 14 -43 -1 -22 5 -64 14 -93 9 -29 14 -62 11 -72 -10 -37 11 -30 32 11 l22 41 -22 34 c-15 25 -21 50 -20 88 0 39 -4 56 -14 60 -19 7 -19 23 0 59 10 19 11 35 5 55 -5 15 -9 34 -8 42 5 65 -19 79 -50 28 -15 -25 -15 -28 0 -45 28 -31 31 -66 9 -95 -12 -14 -21 -33 -21 -41 0 -8 -7 -20 -15 -27 -8 -7 -15 -19 -15 -27 0 -8 -6 -13 -12 -10 -9 2 -13 34 -14 106 -1 62 -6 107 -13 114 -15 15 -14 70 1 85 9 9 8 16 -5 30 -23 25 -24 134 -2 152 8 7 15 20 15 30 0 10 7 23 15 30 8 7 15 18 15 24 0 6 14 20 31 31 27 18 30 24 25 57 -7 43 2 52 38 38 33 -12 35 -51 5 -81 -18 -18 -20 -25 -11 -40 17 -26 6 -45 -44 -74 -45 -26 -66 -67 -46 -87 15 -15 30 -2 47 38 18 44 52 45 47 1 -2 -15 1 -27 6 -27 14 0 43 48 33 54 -11 7 -21 70 -14 95 8 30 32 26 39 -6 3 -16 10 -37 15 -48 5 -11 9 -63 7 -115 -3 -87 -5 -95 -23 -95 -15 0 -19 6 -18 23 2 18 -2 22 -26 22 -36 0 -104 -28 -96 -39 2 -5 22 -11 42 -14 68 -9 118 -33 121 -59 2 -12 9 -29 15 -37 6 -7 13 -60 15 -117 4 -91 2 -104 -12 -104 -11 0 -16 9 -16 27 0 30 -37 113 -51 113 -13 0 -11 -68 3 -72 12 -4 36 -84 45 -153 3 -22 12 -49 19 -60 15 -21 18 -63 6 -81 -4 -7 -27 -17 -51 -24 -40 -10 -46 -10 -58 6 -7 10 -13 22 -13 28 0 6 -7 1 -15 -11 -13 -19 -20 -21 -41 -13 -14 6 -36 10 -50 10 -55 0 -26 58 49 96 31 17 36 34 8 34 -10 0 -42 -22 -70 -48 -43 -40 -51 -54 -51 -84 0 -19 7 -41 15 -48 10 -8 15 -31 15 -71 0 -72 -20 -108 -95 -172 -58 -51 -67 -77 -39 -108 13 -14 16 -43 16 -146 0 -195 -1 -210 -17 -226 -13 -13 -13 -16 1 -21 10 -4 14 -16 12 -33 -3 -25 1 -28 30 -31 30 -3 32 -5 32 -44 0 -23 -6 -49 -14 -57 -7 -9 -17 -37 -20 -62 -6 -41 -4 -50 20 -79 26 -30 28 -31 41 -14 12 17 15 17 61 1 33 -12 62 -15 100 -11 51 7 52 6 52 -20 0 -15 10 -40 21 -55 12 -16 18 -34 15 -40 -9 -15 -59 -14 -74 1 -9 9 -12 9 -12 0 0 -7 -9 -12 -20 -12 -15 0 -20 7 -20 25 0 16 -6 25 -15 25 -9 0 -15 -9 -15 -25 0 -16 -6 -25 -16 -25 -12 0 -15 7 -12 24 4 18 -1 27 -20 35 -31 15 -39 7 -23 -23 18 -33 7 -46 -41 -46 l-41 0 38 -26 c40 -27 56 -29 235 -23 161 5 376 -4 402 -17 15 -8 38 -14 52 -14 23 0 24 -2 24 -71 0 -45 -4 -71 -11 -73 -7 -2 -32 -8 -55 -14 l-44 -10 4 37 c3 20 7 43 9 51 3 10 -10 16 -50 21 -66 9 -109 -4 -91 -26 8 -9 21 -13 35 -9 41 10 56 -28 50 -132 -2 -49 -7 -108 -11 -131 -6 -39 -4 -43 15 -43 27 0 28 -26 1 -33 -13 -3 -20 -14 -20 -30 0 -20 4 -23 25 -19 18 3 25 0 25 -12 0 -10 -9 -16 -24 -16 -21 0 -24 -5 -29 -52 -4 -29 -2 -71 2 -93 5 -22 9 -32 10 -22 2 27 30 20 42 -10 l11 -28 11 23 c7 15 19 22 38 22 36 0 42 -12 34 -60 -7 -40 -7 -40 -51 -40 -37 0 -44 3 -44 19 0 31 -21 36 -40 11 -18 -23 -20 -24 -204 -22 -102 0 -195 3 -205 7 -16 5 -20 19 -26 88 -5 70 -9 294 -5 377 0 14 -2 41 -5 61 -7 37 19 103 47 121 9 5 7 8 -7 8 -12 0 -26 5 -32 11 -18 18 -66 -11 -77 -46 -6 -17 -11 -32 -12 -34 -2 -2 -33 -4 -71 -6 -49 -1 -73 2 -85 13 -23 19 -48 8 -48 -21 0 -28 -24 -54 -35 -37 -12 19 -35 11 -35 -14 0 -13 -7 -29 -15 -36 -17 -14 -17 -15 -33 23 -6 15 -19 27 -28 27 -14 0 -15 -23 -13 -217 1 -120 1 -240 1 -267 -2 -63 5 -72 34 -45 27 26 31 44 9 53 -8 3 -15 13 -15 22 0 12 6 15 25 10 34 -9 38 12 32 183 -4 108 -2 144 9 158 7 10 14 16 15 13 1 -3 5 -90 8 -195 4 -116 10 -190 16 -190 6 0 13 19 16 42 7 52 16 64 34 40 11 -16 16 -16 33 -6 11 7 25 22 30 33 8 18 18 21 73 20 l64 -1 0 -34 0 -34 -51 3 c-36 3 -54 -1 -63 -12 -19 -23 2 -28 62 -17 46 8 49 7 58 -16 5 -13 9 -27 9 -31 0 -3 10 -17 23 -30 l22 -24 -80 7 c-44 4 -85 11 -92 16 -13 12 -60 2 -71 -15 -9 -15 -77 -50 -114 -60 -36 -8 -78 2 -78 20 0 8 -7 14 -16 14 -19 0 -16 -43 7 -97 11 -26 11 -35 1 -45 -10 -10 -17 -10 -32 0 -17 11 -20 10 -20 -8 0 -12 9 -24 24 -29 13 -5 26 -17 29 -25 12 -30 -2 -519 -15 -527 -6 -4 -8 -14 -5 -23 5 -12 1 -14 -21 -10 -118 21 -124 22 -153 7 -17 -8 -29 -22 -29 -34 0 -12 -7 -19 -19 -19 -10 0 -24 -7 -31 -15 -7 -8 -17 -15 -22 -15 -6 0 -27 -13 -48 -30 -21 -16 -41 -30 -45 -30 -4 0 -27 -13 -52 -30 -24 -16 -46 -30 -49 -30 -2 0 -27 -16 -55 -35 -28 -19 -55 -35 -59 -35 -4 0 -27 9 -51 20 -24 11 -54 20 -67 20 -12 0 -25 7 -28 15 -4 9 -19 15 -40 15 -33 0 -80 22 -96 45 -4 5 -8 1 -8 -11 0 -30 41 -64 78 -64 28 0 57 -18 33 -21 -59 -7 -115 -2 -125 11 -14 19 -60 40 -86 40 -11 0 -20 6 -20 13 0 6 -7 24 -14 40 l-15 27 57 2 c61 2 110 5 129 7 32 3 40 81 9 81 -7 0 -25 9 -39 20 -35 28 -47 25 -47 -10 0 -16 -4 -30 -10 -30 -6 0 -10 47 -10 120 0 98 3 122 15 126 19 8 19 23 -1 45 -11 13 -16 48 -20 146 l-4 128 34 33 c40 38 41 38 73 12 35 -27 48 -25 80 10 14 16 32 30 39 30 27 0 64 24 64 41 0 10 -13 31 -30 47 -35 36 -39 76 -10 94 12 8 20 24 20 41 0 15 7 30 15 33 8 4 15 14 15 24 0 9 11 29 25 44 28 30 33 20 10 -23 -10 -20 -12 -41 -7 -70 9 -56 26 -53 30 6 2 26 9 55 16 63 6 8 21 32 31 54 12 23 32 44 50 52 19 8 39 30 54 58 28 54 61 68 92 40 12 -11 18 -26 15 -39 -3 -11 4 -30 15 -44 l20 -24 22 22 c31 28 37 27 67 -14 14 -18 33 -36 43 -39 14 -3 17 -10 12 -26 -6 -19 -4 -21 13 -15 19 5 20 3 16 -32 l-6 -38 19 23 c20 24 33 21 33 -10 0 -30 25 -20 38 15 15 42 15 54 0 39 -19 -19 -31 -14 -24 12 3 14 2 28 -4 31 -5 3 -10 1 -10 -4 0 -6 -5 -11 -11 -11 -6 0 -8 8 -4 19 8 25 -80 102 -156 138 -30 14 -65 34 -78 45 -17 13 -33 17 -53 13 -33 -8 -34 -5 -12 37 13 25 14 36 5 50 -14 23 -14 53 1 78 10 16 10 24 0 40 -17 27 -15 67 3 74 19 7 20 55 1 82 -8 11 -16 31 -18 44 -1 14 -11 26 -20 28 -13 3 -17 -6 -20 -40 -3 -39 -6 -43 -30 -46 -36 -4 -35 -11 7 -45 39 -31 43 -55 20 -111 -13 -30 -13 -44 -4 -75 6 -22 9 -51 5 -65 -6 -25 -102 -126 -120 -126 -10 0 -122 -94 -151 -128 -11 -12 -32 -36 -46 -52 -38 -44 -72 -129 -94 -232 -3 -18 -14 -30 -28 -33 -12 -4 -33 -24 -47 -47 -14 -22 -37 -46 -52 -54 -32 -17 -33 -28 -14 -102 10 -37 15 -121 17 -270 l2 -217 -69 -6 c-38 -4 -104 -7 -147 -8 -81 -1 -117 -12 -117 -35 0 -13 -52 -127 -86 -188 -8 -15 -23 -30 -34 -33 -26 -8 -25 -33 3 -63 21 -22 22 -32 25 -215 2 -144 7 -196 17 -207 10 -11 14 -51 16 -140 l2 -125 -304 4 -304 4 -70 -33 c-38 -18 -102 -47 -142 -66 -39 -18 -135 -55 -213 -81 -122 -41 -144 -51 -156 -75 -8 -16 -23 -28 -34 -28 -27 0 -36 -21 -15 -36 21 -16 21 -16 -22 -38 -31 -16 -33 -20 -33 -72 0 -35 -4 -56 -12 -58 -7 -2 -38 -10 -68 -19 -30 -9 -68 -19 -84 -22 -65 -14 -116 -102 -120 -208 -2 -40 -9 -85 -16 -102 -7 -16 -16 -43 -21 -60 -4 -16 -11 -40 -14 -52 -6 -19 -3 -23 14 -23 16 0 24 11 36 54 9 29 27 63 40 76 l25 23 0 -40 c0 -98 -24 -128 -110 -135 -32 -3 -35 -5 -32 -32 2 -16 1 -40 -3 -54 -5 -21 -10 -23 -37 -18 -18 3 -41 0 -57 -8 -48 -26 -133 -56 -157 -56 -30 0 -34 -7 -39 -87 -3 -48 0 -77 10 -97 19 -36 19 -46 0 -84 -14 -28 -14 -34 1 -69 11 -27 16 -68 16 -145 l0 -108 28 0 c15 0 33 6 39 14 6 8 31 17 56 20 24 4 49 14 55 21 7 8 24 15 37 15 15 0 23 5 20 13 -5 16 -63 10 -94 -10 -16 -10 -34 -13 -58 -9 -40 8 -44 16 -15 34 13 8 20 23 20 42 0 26 4 30 28 30 41 0 60 15 46 37 -6 10 -9 42 -6 75 6 74 -3 108 -28 108 -37 0 -50 -36 -43 -120 6 -81 0 -97 -35 -86 -15 5 -17 20 -17 121 0 102 2 116 20 133 19 18 116 53 183 67 32 7 32 7 32 -34 0 -34 -3 -41 -20 -41 -31 0 -40 -38 -24 -101 10 -37 11 -62 5 -81 -9 -24 -7 -29 17 -41 24 -11 27 -18 25 -60 -2 -26 2 -47 7 -47 15 0 22 57 20 153 -3 120 4 375 10 399 5 16 5 30 -1 33 -19 12 -8 23 33 33 25 6 47 7 52 2 8 -8 15 -194 17 -478 1 -128 4 -154 17 -159 9 -4 22 2 31 13 14 17 16 58 14 315 -1 161 -6 321 -11 353 -6 45 -5 70 6 100 10 29 13 65 8 125 -6 100 13 152 67 174 17 8 57 30 87 49 45 28 141 68 164 68 13 0 5 -52 -11 -76 -14 -21 -14 -31 -5 -58 16 -44 16 -48 -12 -89 -36 -52 -41 -75 -21 -98 15 -15 15 -21 5 -34 -18 -22 -30 -18 -30 10 0 16 -6 25 -15 25 -19 0 -19 -18 -1 -61 10 -25 14 -88 15 -234 1 -110 4 -215 7 -233 5 -27 2 -37 -20 -57 -21 -19 -24 -28 -17 -47 13 -37 33 -27 48 24 14 48 25 56 53 38 12 -8 13 -16 2 -56 -9 -33 -10 -50 -2 -58 5 -5 10 -29 10 -53 0 -35 -3 -43 -19 -43 -14 0 -20 -10 -25 -40 -3 -22 -2 -48 3 -57 5 -10 14 -38 21 -62 6 -24 15 -40 19 -35 14 15 21 63 11 69 -17 11 -12 77 7 91 17 11 18 41 18 368 0 230 -4 357 -10 358 -5 1 -11 -7 -13 -18 -1 -10 -5 -30 -8 -44 l-6 -25 -19 24 c-10 13 -19 31 -19 41 0 19 30 50 48 50 14 0 16 26 3 34 -11 7 28 106 46 121 9 7 11 23 5 55 -4 25 -4 67 1 94 8 48 49 116 70 116 5 0 24 15 42 34 19 21 36 31 41 26 5 -5 70 -16 144 -24 74 -8 160 -18 190 -22 73 -9 149 -11 495 -12 160 0 304 -1 320 -1 17 -1 36 3 44 8 9 6 22 5 35 -4 14 -9 29 -10 44 -4 20 8 22 15 22 81 0 40 -4 79 -9 87 -10 16 -90 26 -109 13 -7 -5 -14 -36 -16 -76 -4 -82 -12 -91 -63 -79 l-38 9 -3 68 c-4 90 -26 85 -30 -7 l-3 -67 -99 0 c-54 0 -101 3 -103 8 -3 4 -6 45 -8 92 l-4 85 171 1 c122 1 181 5 203 15 17 8 31 17 31 20 0 11 -120 18 -340 19 -118 1 -264 5 -325 8 -60 4 -173 4 -250 1 -77 -3 -141 -4 -143 -3 -6 4 73 73 83 74 6 0 23 7 38 15 32 16 232 20 242 5 4 -6 -5 -10 -19 -10 -14 0 -26 -4 -26 -10 0 -6 34 -10 81 -10 69 0 80 2 75 15 -7 20 21 32 37 16 8 -8 8 -11 -2 -11 -7 0 -9 -5 -6 -10 4 -6 64 -10 147 -10 138 0 141 0 124 19 -17 19 -15 19 81 23 106 4 123 2 123 -16 0 -11 65 -36 94 -36 7 0 16 10 19 22 7 25 -13 52 -52 71 -19 9 -25 20 -24 37 2 14 2 84 1 155 -1 72 -1 178 1 238 1 59 0 107 -3 107 -17 0 -54 -51 -60 -82 -15 -83 -15 -326 0 -384 11 -42 12 -60 3 -70 -6 -8 -16 -11 -23 -7 -6 4 -35 7 -65 8 -34 0 -56 5 -59 13 -2 7 5 12 18 12 20 0 22 3 15 38 -12 58 -6 189 11 258 16 62 13 114 -6 114 -5 0 -14 -15 -19 -32 -8 -29 -9 -25 -10 32 0 59 1 63 14 46 8 -11 18 -16 22 -12 15 15 32 102 26 138 -5 34 -4 36 16 31 15 -4 21 -1 21 12 0 9 11 30 24 45 22 27 24 27 54 13 40 -19 52 -56 52 -154 0 -42 3 -84 6 -93 8 -22 24 -10 24 19 0 50 18 70 88 92 61 20 130 49 172 72 8 4 31 15 50 23 103 44 187 84 201 95 8 7 22 13 30 13 9 0 24 7 35 15 10 8 26 15 35 15 9 0 22 6 28 14 6 7 29 16 50 20 44 7 58 20 67 63 8 39 56 53 189 56 l99 2 8 -40 c14 -65 9 -69 -85 -62 -87 7 -122 -2 -99 -25 9 -9 23 -10 55 -2 23 6 62 10 87 10 l45 -1 3 -71 c3 -77 -9 -95 -49 -74 -10 6 -30 8 -44 4 -14 -3 -31 -2 -38 4 -7 6 -34 6 -72 0 -33 -5 -80 -11 -105 -14 -127 -16 -28 -33 215 -38 138 -2 155 -1 155 14 0 9 -5 21 -11 27 -8 8 -6 18 5 36 24 36 12 131 -18 145 -18 8 -14 10 27 16 26 4 59 14 75 22 52 27 66 15 63 -52 -1 -35 3 -45 20 -54 17 -10 23 -8 36 9 17 26 69 28 95 5 25 -23 31 -4 21 66 l-8 55 -53 3 c-58 3 -68 14 -53 55 9 22 17 27 45 27 19 0 41 -6 48 -13 7 -6 27 -13 43 -13 17 -1 64 -3 105 -6 41 -2 111 -1 154 3 52 5 86 4 99 -3 11 -6 47 -11 80 -12 l59 -1 2 -70 c2 -38 8 -80 15 -93 6 -12 9 -27 6 -32 -3 -5 -115 -9 -257 -10 -225 0 -289 -6 -261 -23 4 -3 100 -6 213 -8 113 -1 211 -4 217 -7 40 -13 -21 -20 -214 -21 -192 -2 -249 -8 -232 -25 3 -3 122 -7 264 -8 l260 -3 3 -38 c2 -21 -2 -44 -8 -52 -8 -9 -7 -24 5 -56 9 -28 15 -80 15 -139 0 -101 -9 -131 -32 -113 -7 6 -27 14 -45 17 -26 6 -34 3 -43 -13 -17 -32 -82 -29 -100 4 -7 14 -10 28 -5 32 4 5 10 2 12 -4 8 -22 23 -14 23 11 0 18 -7 25 -32 30 -40 8 -53 -5 -53 -50 l0 -36 -130 -1 c-123 -2 -130 -3 -130 -22 0 -15 6 -20 25 -18 78 5 423 4 428 -2 11 -11 -22 -25 -63 -25 -22 -1 -74 -4 -117 -6 -42 -3 -118 -1 -169 5 -52 6 -97 7 -101 3 -4 -4 -31 -5 -59 -2 -48 5 -52 7 -64 42 -11 33 -10 39 5 53 20 18 100 20 119 3 11 -11 12 -8 7 14 -10 43 9 78 41 78 l28 0 -1 127 c0 103 -3 128 -15 130 -37 7 -44 -13 -49 -147 -4 -100 -9 -133 -20 -140 -21 -13 -137 -12 -146 1 -13 21 26 44 84 49 66 6 75 22 17 31 -22 3 -52 13 -68 21 l-27 15 27 11 c16 6 41 12 57 14 39 4 47 28 10 28 -15 0 -36 7 -46 16 -13 13 -21 14 -31 5 -15 -12 -27 -5 -27 15 0 18 81 54 119 54 21 0 31 5 31 15 0 11 -11 15 -39 15 -63 0 -69 5 -63 57 3 32 1 48 -9 54 -18 11 -69 12 -69 1 0 -8 -92 -52 -109 -52 -15 0 -21 -30 -7 -36 7 -3 34 2 60 11 26 9 50 14 53 11 5 -4 7 -373 4 -631 0 -11 0 -33 0 -49 0 -16 -4 -32 -9 -35 -26 -17 -44 -75 -38 -125 11 -93 16 -301 7 -314 -7 -12 -14 -11 -40 2 -17 9 -31 23 -31 31 0 8 -6 15 -14 15 -7 0 -19 7 -26 15 -10 12 -7 15 14 21 31 7 32 16 9 56 -14 23 -15 32 -5 35 17 6 15 52 -3 59 -8 4 -15 12 -15 19 0 7 7 18 15 25 17 14 20 50 5 50 -13 0 -13 47 0 55 6 4 8 21 5 38 -3 18 -1 55 4 82 8 43 7 52 -7 64 -12 10 -14 15 -4 18 15 6 17 119 2 157 -8 23 -12 25 -36 15 -15 -5 -33 -17 -39 -26 -10 -13 -35 -15 -173 -14 -163 2 -202 -4 -202 -34 0 -22 31 -25 208 -22 89 2 167 0 173 -3 5 -4 12 -44 15 -90 3 -45 9 -91 15 -101 6 -13 6 -25 -1 -38 -5 -11 -10 -54 -10 -95 0 -57 -3 -76 -13 -76 -8 0 -17 3 -20 6 -7 7 -124 8 -267 4 -85 -3 -108 8 -50 23 22 5 30 13 28 25 -5 28 -138 26 -138 -1 0 -19 54 -62 91 -73 58 -17 47 -34 -20 -34 -52 0 -61 -3 -61 -18 0 -10 -7 -28 -16 -40 -19 -27 -11 -116 9 -109 7 2 12 8 12 13 1 27 18 34 66 28 45 -6 49 -5 49 14 0 18 -7 21 -57 24 -34 2 -58 8 -61 16 -2 6 4 12 12 12 9 0 19 6 22 14 4 10 15 13 38 9 27 -4 36 -1 49 17 15 21 25 23 149 27 103 3 137 8 151 20 9 9 20 14 23 11 3 -3 5 -43 6 -88 1 -67 -2 -84 -15 -92 -24 -13 -21 -25 10 -42 l28 -14 -37 -7 c-21 -4 -94 -5 -163 -4 -89 3 -125 1 -125 -7 0 -20 66 -25 277 -23 175 3 206 5 211 18 3 9 13 24 24 34 10 10 18 27 18 38 0 11 11 24 25 31 33 15 27 32 -13 36 -40 4 -41 25 -2 48 35 21 24 44 -21 44 -16 0 -29 5 -29 11 0 6 8 8 19 4 14 -4 21 0 26 15 6 17 15 20 73 20 80 0 96 7 76 34 -11 15 -16 17 -28 7 -9 -8 -39 -11 -75 -10 -34 1 -64 -1 -68 -4 -15 -16 -23 -4 -23 35 0 39 1 40 18 25 12 -11 22 -13 32 -7 8 5 38 10 66 10 53 0 74 12 74 42 0 10 9 26 20 35 11 10 20 21 20 25 0 13 104 108 118 108 6 0 12 5 12 11 0 5 14 15 30 20 17 6 30 14 30 18 0 4 15 8 33 8 75 2 165 2 207 -1 l45 -2 3 -59 c2 -32 10 -67 18 -79 16 -23 19 -56 5 -56 -5 0 -16 10 -24 23 l-16 22 -7 -22 c-3 -13 -10 -23 -15 -23 -5 0 -9 -7 -9 -15 0 -8 -9 -19 -20 -25 -24 -13 -16 -43 10 -35 22 7 31 -37 34 -170 1 -49 6 -100 10 -113 11 -33 -9 -52 -57 -52 -63 0 -30 -22 40 -28 32 -2 65 -10 73 -17 23 -19 62 -25 77 -13 36 30 42 -45 10 -127 -13 -32 -16 -84 -17 -251 0 -189 2 -213 17 -218 9 -4 21 -2 27 4 11 11 12 294 1 329 -4 15 4 27 40 52 25 18 45 40 45 51 0 22 -18 24 -26 3 -4 -8 -12 -15 -20 -15 -11 0 -14 17 -14 70 0 60 3 71 21 80 20 11 20 12 2 32 -15 17 -18 37 -18 117 l0 96 30 3 c17 1 37 -2 45 -8 13 -9 13 -12 -2 -24 -24 -17 -23 -33 2 -41 11 -3 20 -9 20 -13 0 -4 -9 -13 -20 -20 -23 -14 -26 -32 -8 -50 13 -13 19 -68 16 -137 -1 -44 -1 -47 2 -183 2 -74 6 -95 20 -105 9 -7 22 -22 29 -35 6 -12 18 -22 27 -22 24 0 74 -42 74 -62 0 -24 22 -23 45 2 10 11 23 20 29 20 6 0 23 8 36 17 14 10 37 18 52 19 29 2 106 36 150 66 14 10 34 18 45 18 10 0 32 8 48 18 37 22 131 52 165 52 67 0 180 9 190 15 5 3 10 39 10 79 0 81 4 86 76 86 34 0 54 15 54 42 0 28 -44 33 -82 10 -18 -11 -50 -23 -70 -27 -23 -4 -43 -16 -53 -31 -9 -14 -25 -24 -38 -24 -12 0 -31 -6 -42 -14 -11 -7 -58 -28 -105 -46 -47 -18 -91 -38 -98 -43 -7 -6 -26 -10 -42 -9 -18 0 -30 -4 -30 -12 0 -7 -18 -26 -40 -41 -48 -33 -90 -29 -135 13 -33 30 -46 38 -125 77 -30 15 -62 31 -71 36 -8 4 -22 3 -30 -2 -11 -8 -5 -17 31 -49 25 -22 49 -40 54 -40 5 0 37 -14 72 -31 73 -36 82 -59 31 -77 -50 -18 -170 -26 -195 -13 -20 11 -21 18 -20 182 2 157 0 173 -17 185 -16 12 -17 17 -6 38 8 14 10 30 5 38 -9 14 -11 79 -14 710 l-2 426 -28 12 c-32 13 -82 10 -87 -5 -2 -6 16 -19 39 -30 58 -27 63 -55 11 -53 -21 0 -46 7 -55 16 -16 13 -18 13 -24 -2 -4 -11 -18 -16 -45 -16 -47 0 -55 -26 -11 -36 48 -10 54 -14 50 -31 -2 -12 -18 -20 -46 -26 -54 -11 -50 -31 7 -35 37 -3 42 -6 39 -25 -3 -20 -9 -22 -58 -22 l-55 0 -2 90 c-1 50 -2 126 -3 169 0 43 3 82 7 86 9 8 97 -2 126 -15 14 -6 17 -2 17 30 l0 38 -75 -5 c-79 -5 -90 -1 -80 33 7 20 29 21 126 3 19 -4 28 0 32 13 4 10 12 26 19 36 15 21 3 47 -30 62 l-22 10 0 402 c0 356 -2 403 -16 411 -14 8 -16 41 -15 265 l2 256 -53 -2 c-49 -2 -53 0 -56 22 -4 24 -3 24 69 19 l72 -6 -6 92 c-6 101 2 126 38 126 21 0 25 5 25 30 0 27 -3 30 -29 30 -23 0 -30 5 -33 22 -4 28 -24 34 -31 8 -6 -25 -33 -36 -51 -21 -21 18 -10 180 15 204 26 25 52 23 44 -4 -10 -29 4 -114 16 -102 11 11 15 75 5 91 -4 6 2 19 14 29 21 18 27 67 10 78 -17 11 -11 52 13 82 36 44 57 80 50 87 -12 12 -44 6 -49 -9 -8 -19 -34 -20 -34 0 0 8 -9 19 -20 25 -38 20 -56 -15 -20 -38 16 -9 18 -17 11 -30 -7 -14 -5 -21 11 -31 18 -11 19 -14 4 -30 -9 -10 -16 -24 -16 -33 0 -14 -30 -48 -43 -48 -8 0 3 90 13 109 11 21 -8 68 -31 74 -10 3 -28 3 -38 0 -33 -8 -41 -78 -16 -127 18 -34 19 -62 4 -72 -7 -4 -9 -21 -5 -46 l6 -39 -72 3 -73 3 -3 69 c-2 39 2 74 8 80 15 15 12 53 -6 81 -25 39 -19 475 7 491 20 12 7 45 -31 82 -41 40 -80 100 -80 126 0 8 -7 16 -15 20 -21 8 -20 82 2 94 24 14 25 139 1 153 -23 13 -24 76 -3 106 21 29 24 235 5 258 -9 11 -14 53 -15 125 -2 95 1 112 17 126 11 11 18 31 18 53 0 48 -11 63 -41 56 -21 -5 -27 0 -44 37 -16 33 -19 58 -17 120 3 85 -4 93 -45 59z m86 -1164 c12 -24 21 -53 21 -64 0 -11 7 -26 15 -33 11 -9 14 -22 10 -42 -5 -20 -3 -28 7 -28 19 0 49 -38 47 -58 -1 -9 1 -25 6 -35 10 -24 -10 -45 -48 -49 -24 -2 -33 -8 -35 -24 -4 -30 44 -43 64 -17 12 16 13 8 14 -59 0 -71 -9 -95 -25 -68 -4 6 -17 4 -36 -5 -16 -9 -34 -13 -39 -10 -6 4 -9 45 -8 95 3 103 -10 132 -36 82 -13 -24 -14 -37 -5 -59 6 -15 12 -62 13 -103 l1 -75 70 0 70 0 0 -35 0 -35 -70 -5 c-38 -3 -79 -10 -90 -16 -22 -13 -83 -13 -103 -1 -19 13 -4 27 29 27 23 0 30 4 27 17 -2 12 -13 17 -33 18 -22 0 -29 4 -26 15 2 8 3 22 2 30 0 8 -1 66 -1 129 0 65 -5 119 -11 127 -7 9 -5 15 7 22 15 9 16 14 6 36 -6 14 -16 26 -22 26 -16 0 -51 -40 -45 -51 10 -16 34 -188 36 -264 l2 -70 -59 -2 c-74 -3 -91 2 -74 22 8 9 12 59 13 141 2 92 5 128 15 131 8 3 12 -9 12 -40 0 -57 10 -108 20 -102 5 3 11 27 15 54 5 37 2 59 -10 85 -9 19 -14 39 -11 45 4 5 -3 16 -15 24 -30 21 -10 57 31 57 20 0 35 8 46 25 9 14 24 25 33 25 13 -1 13 -3 -3 -15 -20 -15 -20 -15 0 -30 10 -8 21 -14 24 -15 27 0 49 57 26 66 -10 4 -16 18 -16 39 0 19 -4 37 -10 40 -5 3 -10 19 -10 36 0 23 4 29 21 29 16 0 19 -4 14 -20 -5 -16 -2 -20 15 -20 26 0 80 27 80 40 0 19 8 9 29 -33z m-217 -639 c-12 -12 -35 -1 -27 12 3 5 13 6 21 3 10 -4 12 -9 6 -15z m-66 -37 c-4 -5 -13 -8 -22 -4 -11 4 -12 8 -3 20 14 16 36 2 25 -16z m254 -6 l138 7 0 -138 c1 -102 -3 -145 -13 -160 -8 -12 -11 -24 -8 -28 4 -3 50 -6 103 -6 l97 0 17 -52 c11 -34 13 -55 6 -62 -5 -5 -42 -11 -82 -12 -40 -2 -88 -6 -106 -9 -30 -6 -33 -4 -38 25 -9 41 -23 48 -44 20 -16 -21 -17 -21 -23 -4 -4 11 -12 26 -18 34 -8 12 -8 26 1 59 11 40 13 43 41 39 16 -3 29 -3 29 -1 0 2 -5 24 -11 49 -14 53 -42 74 -68 50 -21 -19 -58 -21 -63 -4 -3 9 -13 6 -31 -8 -19 -16 -23 -24 -15 -32 16 -16 -18 -52 -50 -52 -20 0 -23 4 -19 20 4 14 -3 29 -21 45 -25 23 -26 26 -10 42 10 9 38 18 65 21 26 2 53 8 59 13 6 5 39 12 73 15 110 12 90 44 -27 44 -73 0 -108 -11 -155 -49 -14 -12 -20 -12 -30 -2 -9 11 -9 14 1 18 7 3 12 23 12 49 0 37 -4 46 -22 53 -23 9 -21 11 22 24 8 2 23 0 33 -5 12 -6 74 -7 157 -3z m-225 -214 c7 -12 -12 -24 -25 -16 -11 7 -4 25 10 25 5 0 11 -4 15 -9z m0 -561 c0 -24 -3 -25 -80 -32 -84 -7 -99 -2 -93 28 4 24 39 33 113 31 57 -2 60 -3 60 -27z m-206 -22 c5 -13 6 -27 3 -32 -3 -6 -4 -52 -3 -104 2 -74 0 -93 -11 -90 -9 4 -13 29 -13 90 0 55 -5 91 -13 101 -10 12 -11 21 -2 36 14 27 29 27 39 -1z m206 -72 c0 -28 -1 -28 -65 -30 -36 -1 -73 -5 -82 -10 -22 -10 -33 13 -24 49 6 25 8 26 89 23 l82 -3 0 -29z m637 28 c3 -3 4 -14 1 -25 -4 -14 -14 -19 -39 -19 -30 0 -34 3 -34 25 0 22 4 25 33 25 19 0 36 -3 39 -6z m-962 -93 c0 -23 -16 -36 -25 -21 -9 14 1 40 15 40 5 0 10 -9 10 -19z m330 -22 l0 -29 -90 0 c-73 0 -90 3 -90 15 0 8 9 15 20 15 10 0 23 6 27 14 5 9 28 16 63 18 69 4 70 3 70 -33z m628 4 c-2 -22 -9 -29 -31 -31 -18 -2 -29 2 -33 12 -11 28 4 46 36 46 28 0 31 -3 28 -27z m-965 -89 c-4 -10 -9 -12 -15 -6 -12 12 -1 35 12 27 5 -3 6 -13 3 -21z m335 -5 c-3 -32 -3 -32 -68 -34 -36 -2 -73 2 -83 7 -18 9 -18 11 4 34 19 20 32 24 86 24 l64 0 -3 -31z m630 4 c-4 -36 -52 -46 -63 -14 -9 29 1 41 36 41 27 0 30 -3 27 -27z m-832 -18 c8 -31 -2 -58 -19 -53 -14 5 -21 42 -13 64 8 22 25 17 32 -11z m-128 -76 c-4 -27 -23 -36 -32 -14 -8 22 13 60 26 47 5 -5 8 -20 6 -33z m872 6 c0 -14 -7 -28 -15 -32 -22 -8 -28 2 -21 32 8 33 36 33 36 0z m95 5 c9 -28 -2 -40 -36 -40 -26 0 -29 3 -29 30 0 27 3 30 29 30 21 0 32 -6 36 -20z m-755 -206 c0 -10 12 -14 43 -14 24 0 46 -3 50 -6 6 -6 80 -16 107 -14 53 4 206 -3 226 -10 13 -5 52 -6 90 -1 60 7 68 6 85 -13 23 -24 21 -17 24 -136 6 -316 7 -559 1 -568 -4 -7 -18 -7 -40 -1 -21 6 -50 6 -74 1 -55 -13 -74 0 -70 46 3 37 3 37 -37 37 -40 0 -40 0 -43 -42 l-3 -43 -120 0 -119 0 -7 30 c-4 24 -9 28 -19 20 -7 -6 -30 -10 -51 -8 -31 2 -39 7 -41 27 -4 24 -3 24 58 18 58 -5 61 -4 58 16 -3 19 -9 22 -63 22 l-60 0 3 35 c3 41 16 57 34 43 20 -15 76 -24 83 -12 13 21 -17 39 -65 39 -52 0 -68 16 -50 50 7 14 24 19 71 22 33 1 63 -1 67 -6 3 -5 4 -32 3 -60 -2 -77 6 -106 33 -106 23 0 23 3 28 117 3 65 3 123 1 130 -7 17 -53 17 -53 0 0 -17 -36 -47 -58 -49 -9 -1 -34 0 -54 0 -33 2 -38 5 -38 26 0 14 6 28 13 33 14 9 55 5 78 -8 13 -6 18 -3 22 11 7 27 -4 32 -63 24 -49 -6 -50 -6 -50 19 0 31 -16 43 -34 28 -10 -9 -15 -8 -20 4 -7 20 -36 19 -78 -2 -86 -43 -91 -43 -72 -3 9 17 21 30 28 30 7 0 18 12 25 26 11 25 13 26 30 10 22 -20 40 -4 21 19 -7 9 -8 15 0 20 14 9 13 35 -3 35 -7 0 -20 -9 -30 -20 -22 -25 -54 -26 -62 -1 -3 11 -15 23 -26 26 -14 5 -19 15 -19 41 0 30 3 34 25 34 25 0 33 -14 15 -25 -6 -4 -8 -11 -4 -16 4 -6 12 -5 22 4 10 8 26 17 36 18 27 5 33 29 7 29 -11 0 -23 5 -26 10 -8 13 24 13 64 -1 28 -10 34 -9 46 7 12 17 14 18 20 2 4 -9 2 -26 -5 -37 -6 -12 -8 -36 -5 -54 5 -24 2 -37 -9 -46 -14 -11 -11 -33 10 -69 0 -1 8 0 17 4 22 8 40 73 26 90 -19 24 1 35 57 33 29 -2 56 0 60 4 3 3 3 25 -1 49 -8 41 -8 42 -17 17 -19 -56 -126 -37 -111 19 2 10 -3 24 -11 32 -12 9 -14 16 -5 26 13 16 29 9 29 -12z m-60 -34 c0 -5 -11 -10 -25 -10 -14 0 -25 5 -25 10 0 6 11 10 25 10 14 0 25 -4 25 -10z m809 -6 c21 -4 31 -12 31 -25 0 -23 -5 -26 -62 -34 -41 -6 -48 -5 -58 15 -24 44 8 60 89 44z m-1769 -65 c0 -20 -4 -29 -12 -26 -7 2 -13 9 -12 15 1 7 2 21 3 33 2 31 21 12 21 -22z m1800 -44 c0 -8 -14 -18 -30 -22 -39 -10 -42 -27 -4 -33 20 -4 30 -12 32 -28 3 -20 0 -22 -52 -22 -62 0 -76 11 -46 37 24 21 26 39 5 47 -8 3 -15 12 -15 21 0 12 12 15 55 15 42 0 55 -4 55 -15z m-980 -54 c0 -21 -13 -41 -26 -41 -14 0 -19 31 -7 43 10 10 33 8 33 -2z m978 -119 c-2 -18 -10 -28 -26 -32 -27 -6 -30 -26 -2 -22 19 3 37 -29 25 -48 -8 -13 -92 -13 -100 1 -4 5 1 19 11 30 17 18 16 20 -5 43 -18 19 -20 28 -13 43 8 15 19 17 62 14 49 -3 51 -4 48 -29z m-837 -54 c1 -35 3 -79 5 -98 5 -55 5 -70 0 -165 -3 -49 -5 -111 -5 -137 l-1 -47 -65 -30 c-36 -17 -70 -31 -75 -31 -14 0 -13 96 2 119 9 15 9 28 0 59 -7 22 -12 51 -12 66 0 14 -4 26 -10 26 -16 0 -12 40 5 57 14 14 14 17 1 32 -13 14 -13 19 0 36 10 13 12 33 8 65 l-6 45 41 18 c23 9 46 17 51 17 6 0 10 4 10 9 0 8 16 16 43 20 4 0 8 -27 8 -61z m837 -117 c5 -31 -4 -37 -60 -45 l-48 -7 0 35 c0 39 9 46 65 43 34 -2 41 -6 43 -26z m-3 -116 c0 -29 -2 -30 -44 -30 -32 0 -47 5 -55 18 -15 25 18 49 64 45 32 -3 35 -6 35 -33z m5 -84 c0 -24 -4 -26 -53 -35 -29 -5 -39 -3 -43 9 -12 31 4 45 51 45 38 0 45 -3 45 -19z m-86 -66 c11 -8 35 -15 53 -15 20 0 33 -5 33 -13 0 -7 14 -21 31 -31 44 -26 31 -39 -42 -41 -87 -2 -109 12 -109 70 0 48 4 52 34 30z m-964 -56 c0 -20 -3 -20 -77 -14 -43 4 -82 10 -87 12 -19 12 24 23 92 23 66 0 72 -2 72 -21z m-1135 -96 c7 3 18 0 24 -6 7 -7 29 -17 49 -22 24 -7 41 -20 50 -37 9 -20 29 -33 72 -49 65 -23 69 -33 16 -43 -37 -7 -62 -29 -51 -46 7 -11 45 -14 45 -2 0 4 20 18 45 31 25 13 45 27 45 31 0 11 82 20 123 13 32 -5 34 -7 24 -24 -7 -11 -19 -17 -29 -14 -10 4 -22 -3 -32 -16 -8 -13 -21 -19 -30 -16 -8 3 -20 -1 -26 -9 -7 -8 -21 -14 -32 -14 -11 0 -32 -9 -48 -20 -18 -13 -43 -19 -71 -19 -24 0 -53 -1 -64 -3 -17 -2 -19 2 -17 27 2 19 -4 39 -16 53 -11 12 -25 36 -32 52 -7 17 -17 30 -22 30 -15 0 -58 52 -58 71 0 10 -6 22 -13 26 -20 12 -67 78 -67 93 0 8 23 -10 51 -39 28 -29 56 -50 64 -48z m1478 0 c15 -3 26 -11 24 -17 -5 -14 -87 -20 -100 -7 -14 14 12 44 32 36 9 -4 29 -9 44 -12z m-1571 -20 c23 -21 23 -34 -3 -67 -12 -15 -18 -34 -15 -42 5 -12 2 -15 -9 -10 -14 5 -15 -1 -9 -39 7 -52 -10 -63 -27 -17 l-11 27 -10 -25 c-6 -14 -17 -37 -24 -52 -11 -20 -14 -59 -13 -137 1 -60 -3 -117 -9 -127 -8 -15 -10 -14 -15 12 -2 16 -5 83 -6 149 l-2 120 50 98 c49 97 68 127 79 127 3 0 14 -7 24 -17z m87 -107 c9 -11 5 -18 -24 -36 -19 -12 -35 -28 -35 -37 0 -20 -24 -11 -28 10 -4 18 46 77 64 77 6 0 17 -6 23 -14z m2038 -52 c-3 -4 -14 -3 -24 0 -15 6 -15 8 -3 16 16 10 39 -4 27 -16z m-627 -15 c0 -17 -4 -28 -10 -24 -5 3 -10 17 -10 31 0 13 5 24 10 24 6 0 10 -14 10 -31z m-1560 -134 c0 -16 -4 -36 -9 -43 -11 -19 -21 33 -14 71 7 36 23 16 23 -28z m2490 5 c0 -13 -9 -22 -25 -26 -35 -9 -34 -44 1 -44 22 0 25 -4 22 -27 -3 -25 -7 -28 -45 -31 l-43 -3 0 75 0 76 45 0 c38 0 45 -3 45 -20z m-121 -148 c6 -10 7 -28 4 -40 -4 -18 -13 -22 -43 -22 -21 0 -45 -3 -53 -6 -10 -3 -18 2 -21 14 -11 33 3 52 39 52 19 0 37 5 40 10 9 15 23 12 34 -8z m116 -37 c0 -11 -10 -24 -22 -30 -22 -9 -31 -25 -15 -25 5 0 17 -6 28 -14 18 -14 18 -15 -8 -25 -34 -13 -36 -28 -5 -33 39 -5 27 -33 -16 -34 -50 -1 -61 20 -54 103 4 35 9 68 13 74 3 6 22 9 42 7 29 -2 37 -7 37 -23z m-2541 -72 c8 -21 -10 -41 -24 -27 -11 11 -3 44 10 44 4 0 11 -8 14 -17z m2433 -9 c2 -7 0 -22 -7 -33 -9 -17 -14 -19 -31 -11 -21 12 -59 5 -59 -11 0 -5 20 -9 44 -9 l45 0 -2 -107 -2 -108 -30 -2 c-57 -3 -66 4 -65 55 1 56 -9 120 -20 127 -7 5 -4 72 5 102 5 16 115 14 122 -3z m108 -104 c10 -17 -5 -49 -26 -55 -26 -9 -24 -24 6 -35 31 -12 32 -26 3 -36 l-21 -6 23 -18 c17 -12 21 -22 15 -39 -6 -18 -13 -22 -43 -19 l-37 3 -3 102 -3 102 33 4 c18 2 36 5 40 5 4 1 10 -3 13 -8z m-628 -37 c3 -7 -11 -19 -29 -26 -19 -8 -55 -39 -81 -69 l-46 -54 -68 4 c-37 2 -70 6 -72 8 -2 2 1 16 7 30 11 23 17 25 64 22 43 -2 53 0 56 15 3 15 -5 17 -61 17 -35 0 -67 3 -70 7 -15 14 27 43 62 43 20 0 41 4 48 8 20 12 186 8 190 -5z m-179 -205 c3 -25 0 -28 -30 -30 -87 -5 -113 9 -83 42 15 16 29 20 64 18 42 -3 46 -6 49 -30z m690 5 c-3 -24 -8 -28 -43 -29 -50 -3 -75 4 -75 20 0 24 25 36 73 36 47 0 48 -1 45 -27z m117 -12 c3 -6 -4 -15 -16 -22 l-22 -11 24 -19 c21 -16 22 -18 6 -24 -21 -9 -22 -33 -1 -56 25 -28 11 -46 -33 -45 l-38 1 -5 83 c-3 45 -3 87 -2 92 5 13 79 13 87 1z m-114 -71 c-3 -8 -5 -37 -5 -64 -1 -53 -12 -62 -72 -65 -29 -1 -39 37 -17 61 15 17 15 20 -7 43 -36 38 -22 51 46 45 46 -4 58 -8 55 -20z m-3146 -69 l50 -6 0 -85 0 -85 -69 -9 c-93 -13 -100 -7 -104 82 -2 48 -7 72 -16 75 -20 8 -72 -43 -80 -78 l-8 -30 -17 24 c-22 29 -50 22 -52 -11 -1 -23 -1 -29 8 -60 4 -13 -1 -18 -17 -18 -18 0 -21 4 -16 23 6 26 -19 71 -35 62 -5 -4 -9 -19 -9 -35 0 -44 -10 -63 -25 -50 -14 11 -42 0 -72 -27 -20 -18 -54 -26 -65 -15 -13 13 -2 32 17 32 9 0 17 15 21 41 6 37 9 40 32 36 19 -4 31 2 45 19 10 13 27 24 37 24 10 0 21 4 24 9 3 5 22 12 43 16 20 4 47 15 60 25 13 10 31 16 41 13 10 -2 27 7 42 22 23 24 29 26 70 20 25 -4 68 -10 95 -14z m319 -21 c13 -13 7 -153 -7 -167 -10 -10 -34 -10 -117 0 l-105 12 -3 82 -3 82 68 3 c86 4 155 -1 167 -12z m247 -6 c7 -9 7 -19 1 -31 -6 -9 -8 -41 -5 -70 8 -75 -1 -83 -102 -83 -54 0 -86 4 -92 13 -16 19 -23 163 -10 176 16 16 194 12 208 -5z m2577 -91 c-3 -24 -8 -28 -40 -31 -28 -2 -40 2 -52 20 -24 34 -20 38 40 38 54 0 55 0 52 -27z m-3 -93 c0 -32 -2 -35 -34 -38 -38 -4 -81 5 -81 16 0 4 12 20 26 35 20 21 33 27 57 25 29 -3 32 -6 32 -38z m-3921 -335 c0 -46 -1 -50 -24 -50 -22 0 -25 5 -28 38 -4 42 12 70 37 65 11 -2 15 -16 15 -53z m4226 -190 c0 -8 -7 -15 -15 -15 -16 0 -20 12 -8 23 11 12 23 8 23 -8z m-4452 -227 c-20 -30 -55 -48 -95 -48 -17 0 -35 -4 -38 -10 -9 -15 -25 -12 -25 5 0 10 11 15 35 15 18 0 38 6 42 14 9 15 62 45 82 46 11 0 11 -4 -1 -22z m568 -145 c-14 -14 -23 9 -13 32 l12 25 3 -26 c2 -14 1 -28 -2 -31z"/> <path d="M4006 6018 c-9 -21 -20 -38 -25 -38 -21 0 -41 -31 -31 -49 6 -13 4 -25 -7 -41 -12 -17 -16 -50 -17 -144 -1 -118 0 -121 21 -124 30 -4 40 35 19 76 -22 42 -21 138 1 150 12 7 14 18 10 40 -4 20 -1 34 8 42 8 6 15 24 17 38 3 23 8 27 37 27 19 0 36 6 38 13 3 6 -3 12 -13 12 -9 0 -23 8 -30 18 -11 15 -14 14 -28 -20z"/> <path d="M3781 5683 c-1 -17 4 -35 10 -38 18 -12 20 2 5 36 l-14 34 -1 -32z"/> <path d="M4162 5103 c3 -15 13 -18 72 -15 38 1 73 5 79 9 19 12 -20 23 -86 23 -60 0 -68 -2 -65 -17z"/> <path d="M4026 4045 c-15 -23 -15 -26 4 -45 25 -25 32 -25 54 -1 17 18 17 21 1 45 -22 33 -38 33 -59 1z"/> <path d="M3830 4041 c-5 -11 -10 -22 -10 -25 0 -10 32 -36 45 -36 20 0 37 37 30 60 -8 26 -51 26 -65 1z"/> <path d="M4238 4043 c-19 -5 -34 -45 -23 -62 9 -16 51 -13 65 4 15 18 5 66 -13 64 -6 -1 -20 -3 -29 -6z"/> <path d="M3777 4014 c-4 -4 -24 -10 -44 -14 -35 -5 -36 -7 -17 -17 36 -21 78 -20 82 1 4 20 -10 40 -21 30z"/> <path d="M4191 3931 c-7 -5 -121 -9 -253 -9 -227 0 -278 -6 -255 -29 4 -3 113 -5 243 -4 173 2 239 -1 250 -10 11 -9 23 -9 54 0 54 16 57 28 14 46 -43 18 -36 17 -53 6z"/> <path d="M4030 3787 c-21 -19 -22 -25 -14 -106 4 -47 8 -98 7 -113 0 -28 17 -41 42 -32 18 7 16 -6 19 141 1 108 0 122 -16 126 -9 3 -26 -4 -38 -16z"/> <path d="M4147 3798 c-15 -12 -17 -29 -15 -133 l3 -120 28 -3 c26 -3 28 -1 21 20 -9 28 -6 156 5 178 9 18 0 62 -15 67 -5 2 -18 -2 -27 -9z"/> <path d="M4218 3783 c-2 -10 -2 -67 0 -128 4 -103 5 -111 29 -129 l24 -18 -2 103 c-1 57 1 123 6 147 8 42 8 42 -23 42 -20 0 -31 -6 -34 -17z"/> <path d="M3927 3783 c-10 -10 -8 -216 2 -232 13 -20 41 -6 42 21 1 13 2 67 3 121 2 93 1 97 -19 97 -12 0 -25 -3 -28 -7z"/> <path d="M3561 3692 c-12 -23 -4 -162 9 -162 18 0 26 30 25 92 0 73 -15 104 -34 70z"/> <path d="M3495 3668 c-3 -13 -2 -52 2 -88 6 -48 12 -65 23 -65 12 0 15 15 16 75 0 71 -8 100 -27 100 -5 0 -11 -10 -14 -22z"/> <path d="M4413 2553 c9 -2 25 -2 35 0 9 3 1 5 -18 5 -19 0 -27 -2 -17 -5z"/> <path d="M4433 2483 c-22 -8 -14 -23 12 -23 14 0 25 4 25 9 0 11 -21 19 -37 14z"/> <path d="M1304 2107 c-11 -29 0 -72 19 -75 16 -3 18 2 15 39 -3 43 -23 64 -34 36z"/> <path d="M1517 2098 c-9 -33 3 -68 23 -68 25 0 42 24 38 57 -2 22 -9 29 -29 31 -20 2 -28 -2 -32 -20z"/> <path d="M1761 2098 c-10 -28 -2 -68 15 -75 24 -9 44 17 44 58 0 35 -3 39 -25 39 -17 0 -28 -7 -34 -22z"/> <path d="M7252 6304 c4 -21 22 -23 26 -1 2 10 -3 17 -13 17 -10 0 -15 -6 -13 -16z"/> <path d="M3590 5492 c0 -26 6 -54 12 -60 21 -21 15 -148 -12 -232 -12 -41 -25 -96 -27 -122 -4 -39 -9 -47 -29 -52 -17 -5 -24 -13 -24 -29 0 -13 -5 -28 -12 -35 -9 -9 -8 -12 5 -12 11 0 17 8 17 21 0 18 4 21 29 16 37 -8 83 14 101 49 12 22 12 27 -1 34 -21 12 -17 66 5 62 12 -2 16 5 16 32 0 19 -5 38 -10 41 -7 4 -8 46 -4 121 7 112 6 115 -14 121 -23 6 -28 28 -12 53 10 17 -5 40 -26 40 -10 0 -14 -14 -14 -48z"/> <path d="M3399 5434 c-9 -11 -22 -14 -46 -9 -49 9 -53 -16 -14 -72 l32 -45 -20 -22 c-27 -29 -26 -42 3 -71 14 -14 20 -27 15 -30 -12 -8 -12 -62 1 -86 6 -10 17 -19 25 -19 9 0 15 -10 15 -25 0 -17 -9 -29 -30 -40 -16 -9 -30 -20 -30 -25 0 -6 -9 -19 -20 -30 -27 -27 -25 -34 13 -60 18 -12 38 -34 45 -48 13 -28 7 -46 -8 -22 -5 8 -12 12 -15 8 -3 -3 3 -21 15 -39 19 -32 21 -33 26 -12 9 31 156 99 277 127 22 5 27 12 27 35 0 42 -40 50 -84 16 -18 -14 -47 -28 -65 -31 -17 -4 -34 -11 -37 -15 -3 -5 -23 -9 -44 -9 -21 0 -42 -4 -45 -10 -3 -5 -15 -10 -26 -10 -11 0 -17 5 -14 10 3 6 15 10 26 10 23 0 25 16 3 28 -20 11 -10 32 16 32 21 0 35 32 31 72 -3 30 14 45 34 28 19 -15 25 0 18 43 -4 26 -11 37 -22 37 -10 0 -27 14 -40 31 -21 28 -22 37 -16 115 4 46 11 84 16 84 5 0 9 -10 10 -22 0 -13 4 -32 9 -43 6 -15 9 -6 9 33 1 47 -2 54 -24 64 -14 6 -25 17 -25 25 0 18 -25 16 -41 -3z"/> <path d="M4175 4960 c-3 -5 3 -10 15 -10 12 0 18 5 15 10 -3 6 -10 10 -15 10 -5 0 -12 -4 -15 -10z"/> <path d="M3747 4943 c-18 -17 -2 -23 61 -21 38 1 52 3 32 5 -19 3 -39 9 -44 14 -12 11 -40 12 -49 2z"/> <path d="M4022 4882 c-42 -35 -50 -72 -43 -192 4 -52 4 -153 1 -225 -7 -142 -1 -179 31 -214 34 -36 45 -14 31 61 -6 35 -12 86 -12 113 0 288 1 298 22 336 14 25 19 49 16 73 -3 29 -1 36 13 36 10 0 19 -6 22 -12 2 -7 8 -10 12 -6 12 11 -23 58 -43 58 -9 0 -32 -13 -50 -28z"/> <path d="M4213 4854 c-7 -3 -22 -21 -33 -39 l-21 -34 25 -44 c33 -55 32 -65 0 -69 -26 -3 -27 -6 -31 -78 -3 -41 -5 -113 -6 -160 0 -73 4 -90 24 -122 13 -20 31 -37 39 -38 13 0 15 25 15 166 0 91 3 168 6 170 4 2 10 30 14 61 3 32 11 77 17 100 8 35 7 45 -8 67 -20 27 -22 27 -41 20z"/> <path d="M3020 4752 c0 -19 12 -42 22 -42 14 0 5 43 -9 48 -7 2 -13 -1 -13 -6z"/> <path d="M3890 4735 c0 -14 5 -25 10 -25 6 0 10 11 10 25 0 14 -4 25 -10 25 -5 0 -10 -11 -10 -25z"/> <path d="M4096 4724 c-9 -22 -8 -24 9 -24 8 0 15 9 15 20 0 24 -15 27 -24 4z"/> <path d="M4083 4630 c0 -25 2 -35 4 -22 2 12 2 32 0 45 -2 12 -4 2 -4 -23z"/> <path d="M3925 4578 c-2 -7 -6 -47 -8 -88 -3 -41 -10 -101 -17 -133 -7 -32 -9 -61 -6 -64 20 -20 37 61 41 190 2 101 0 124 -10 95z"/> <path d="M3024 4516 c-18 -14 -18 -15 -1 -22 22 -8 46 11 31 26 -7 7 -17 5 -30 -4z"/> <path d="M4083 4415 c0 -44 2 -61 4 -37 2 23 2 59 0 80 -2 20 -4 1 -4 -43z"/> <path d="M3020 4436 c0 -8 5 -18 10 -21 6 -3 10 -21 10 -38 0 -18 5 -39 10 -47 9 -13 11 -13 20 0 15 23 12 80 -5 86 -8 4 -15 12 -15 20 0 8 -7 14 -15 14 -8 0 -15 -6 -15 -14z"/> <path d="M3110 4426 c0 -15 35 -83 46 -89 8 -4 14 -17 14 -28 0 -10 11 -29 25 -41 21 -18 24 -27 19 -60 -7 -39 2 -48 24 -26 17 17 15 65 -3 72 -8 3 -15 15 -15 26 0 11 -11 37 -24 58 -34 54 -86 107 -86 88z"/> <path d="M2996 4374 c-3 -9 -6 -87 -6 -174 0 -147 -1 -158 -19 -163 -14 -3 -18 -11 -14 -26 7 -27 29 -27 36 -1 3 11 17 24 31 30 28 10 36 46 14 68 -8 8 -11 47 -10 119 2 112 -4 163 -18 163 -4 0 -11 -7 -14 -16z"/> <path d="M2900 4345 c-7 -20 -9 -71 -4 -157 6 -109 4 -131 -9 -146 -14 -15 -14 -19 3 -39 10 -13 22 -23 27 -23 19 0 32 65 23 115 -5 28 -9 95 -10 150 0 111 -12 148 -30 100z"/> <path d="M3078 4314 c-11 -10 4 -119 17 -126 7 -4 10 -18 8 -32 -3 -13 0 -27 6 -30 6 -4 11 -15 11 -24 0 -28 105 -102 145 -102 12 0 14 -6 9 -27 -11 -45 -21 -49 -52 -20 -15 15 -33 27 -39 27 -26 0 -22 -21 11 -50 34 -31 34 -33 42 -138 4 -59 8 -132 9 -162 3 -86 1 -83 39 -76 28 5 35 3 39 -11 3 -10 5 3 6 29 l1 47 -27 -25 c-24 -23 -28 -24 -31 -9 -2 10 1 28 7 41 6 13 15 34 21 47 5 12 11 91 13 176 3 139 2 156 -15 173 -10 10 -22 18 -28 18 -5 0 -13 6 -17 13 -12 18 -89 77 -102 77 -6 0 -11 13 -11 29 0 16 -6 31 -14 34 -10 4 -16 25 -18 63 -3 52 -14 74 -30 58z m212 -523 c0 -23 -16 -36 -25 -21 -9 14 1 40 15 40 5 0 10 -9 10 -19z"/> <path d="M3610 4291 c0 -37 19 -50 37 -25 19 26 12 48 -15 52 -19 3 -22 -1 -22 -27z"/> <path d="M6947 4306 c-7 -16 1 -26 20 -26 7 0 13 9 13 20 0 23 -25 27 -33 6z"/> <path d="M3294 4256 c-8 -21 3 -49 16 -41 5 3 10 15 10 25 0 25 -18 36 -26 16z"/> <path d="M3350 4261 c0 -20 13 -41 21 -35 15 9 10 44 -6 44 -8 0 -15 -4 -15 -9z"/> <path d="M5960 4235 c0 -8 7 -15 15 -15 8 0 15 7 15 15 0 8 -7 15 -15 15 -8 0 -15 -7 -15 -15z"/> <path d="M3470 4205 c0 -12 7 -15 25 -13 14 2 26 8 26 13 0 6 -12 11 -26 13 -18 2 -25 -1 -25 -13z"/> <path d="M2733 4168 c-11 -24 9 -68 30 -68 5 0 16 -8 23 -17 7 -10 16 -15 20 -11 4 5 0 16 -9 26 -10 10 -17 26 -17 36 0 21 -18 56 -29 56 -4 0 -12 -10 -18 -22z"/> <path d="M3321 4168 c1 -13 5 -34 9 -48 7 -20 8 -16 9 23 1 26 -3 47 -9 47 -5 0 -10 -10 -9 -22z"/> <path d="M3262 4147 c-9 -22 -9 -33 0 -50 13 -22 13 -22 16 6 2 15 2 37 -1 50 -3 21 -4 21 -15 -6z"/> <path d="M2845 4107 c-8 -43 -8 -57 1 -57 16 0 22 30 15 75 l-6 38 -10 -56z"/> <path d="M8780 4055 c0 -9 5 -15 11 -13 6 2 11 8 11 13 0 5 -5 11 -11 13 -6 2 -11 -4 -11 -13z"/> <path d="M2721 3977 c-6 -6 -11 -19 -11 -29 0 -12 -7 -17 -22 -15 -15 1 -23 -4 -26 -18 -2 -11 -10 -24 -17 -30 -15 -12 -28 -76 -19 -99 3 -9 14 -16 24 -16 17 0 30 35 30 81 0 22 36 59 73 76 54 25 127 -28 127 -92 0 -23 3 -27 10 -15 5 8 10 32 10 52 0 39 -21 70 -73 103 -26 17 -28 17 -47 0 -11 -10 -20 -13 -20 -8 0 16 -26 23 -39 10z"/> <path d="M3097 3971 c-3 -13 -13 -21 -26 -21 -21 0 -29 -24 -12 -34 4 -3 27 4 50 15 29 14 41 25 39 37 -5 26 -44 28 -51 3z"/> <path d="M2936 3970 c-3 -8 -7 -112 -10 -232 -3 -153 -1 -228 8 -257 6 -23 15 -39 19 -35 11 11 8 507 -3 524 -8 13 -10 13 -14 0z"/> <path d="M2497 3922 c-20 -21 -22 -72 -6 -122 18 -56 29 -127 39 -245 5 -60 9 -111 9 -112 1 -2 7 -3 15 -3 24 0 27 31 20 210 -5 131 -10 177 -20 183 -19 11 -17 37 3 52 16 12 16 15 -7 34 -31 25 -33 25 -53 3z"/> <path d="M3038 3893 c-24 -6 -23 -30 1 -43 21 -11 51 -63 51 -88 0 -9 7 -23 16 -33 18 -21 11 -101 -12 -120 -19 -16 -18 -94 2 -114 12 -11 26 -14 52 -9 21 4 40 10 45 13 10 10 -10 328 -23 350 -5 10 -15 22 -22 28 -15 12 -85 22 -110 16z"/> <path d="M2756 3852 c-17 -28 -24 -100 -13 -139 8 -33 8 -48 0 -62 -6 -10 -8 -24 -3 -31 5 -8 6 -26 3 -41 -4 -21 0 -31 21 -44 21 -14 31 -15 61 -5 l37 12 -8 52 c-4 28 -8 71 -9 96 -3 116 -6 139 -21 154 -16 17 -59 22 -68 8z"/> <path d="M3030 3814 c0 -9 5 -14 12 -12 18 6 21 28 4 28 -9 0 -16 -7 -16 -16z"/> <path d="M6050 3795 c0 -14 6 -25 13 -25 20 0 25 9 20 31 -8 28 -33 24 -33 -6z"/> <path d="M2664 3726 c-3 -8 -1 -23 5 -33 9 -15 10 -13 11 15 0 34 -7 42 -16 18z"/> <path d="M5247 3674 c-8 -8 1 -24 14 -24 5 0 9 7 9 15 0 15 -12 20 -23 9z"/> <path d="M2486 3548 c-9 -35 -7 -68 4 -68 6 0 10 20 10 45 0 50 -4 57 -14 23z"/> <path d="M2670 3441 c-17 -5 -26 -15 -28 -32 -2 -19 3 -27 29 -36 21 -8 38 -9 50 -3 10 6 59 10 109 10 l91 0 -3 28 -3 27 -95 1 c-52 1 -102 4 -110 7 -8 3 -26 2 -40 -2z"/> <path d="M3019 3439 c-31 -19 7 -29 85 -23 42 4 73 10 69 14 -12 11 -139 19 -154 9z"/> <path d="M2960 3396 c0 -8 5 -18 10 -21 6 -3 10 3 10 14 0 12 -4 21 -10 21 -5 0 -10 -6 -10 -14z"/> <path d="M4206 3260 c4 -38 12 -60 26 -73 30 -25 43 -17 46 31 3 41 2 42 -27 42 -23 0 -32 6 -40 28 -9 22 -10 18 -5 -28z"/> <path d="M3275 3280 c-26 -7 -22 -8 23 -9 29 0 52 3 52 9 0 11 -31 11 -75 0z"/> <path d="M3847 3272 c-20 -22 -22 -43 -5 -60 19 -19 45 -14 62 10 15 20 14 24 -6 45 -26 28 -30 28 -51 5z"/> <path d="M4035 3264 c-19 -19 -19 -24 1 -52 18 -27 51 -26 68 1 22 35 -39 81 -69 51z"/> <path d="M2988 3123 c-6 -7 -21 -13 -34 -13 -12 0 -26 -5 -30 -11 -11 -18 17 -28 49 -16 21 7 39 7 62 -2 42 -15 93 -4 101 21 3 11 4 21 2 23 -1 1 -34 5 -71 7 -48 3 -71 0 -79 -9z"/> <path d="M4405 3130 c-3 -6 0 -13 8 -16 25 -9 90 0 95 14 5 15 -94 17 -103 2z"/> <path d="M2925 3030 c-84 -26 -126 -41 -157 -56 -14 -8 -35 -14 -46 -14 -11 0 -25 -7 -32 -15 -7 -8 -27 -15 -45 -15 -18 0 -38 -7 -45 -15 -7 -8 -23 -15 -35 -15 -13 0 -36 -6 -52 -14 -15 -8 -48 -20 -73 -28 -26 -9 -46 -22 -48 -31 -4 -21 25 -22 65 -3 15 8 53 22 83 32 30 9 64 23 75 31 11 7 31 13 45 13 14 0 34 7 44 15 11 8 29 15 41 15 11 0 29 6 40 14 11 7 34 16 50 19 42 7 99 30 120 47 12 10 21 11 34 3 14 -9 20 -7 29 7 21 35 -2 37 -93 10z"/> <path d="M3939 2993 c-8 -21 -8 -54 0 -128 12 -104 19 -122 46 -111 12 4 15 14 11 33 -6 29 -8 145 -4 198 3 24 -1 31 -19 33 -17 3 -26 -4 -34 -25z"/> <path d="M4056 3004 c-13 -12 -16 -38 -16 -118 0 -102 7 -126 38 -126 11 0 13 18 10 94 -1 52 0 98 5 102 4 4 7 20 7 36 0 32 -19 37 -44 12z"/> <path d="M4252 2999 c-5 -13 -12 -75 -15 -136 l-7 -113 31 0 c19 0 32 6 36 17 9 24 -13 233 -26 246 -7 7 -13 3 -19 -14z"/> <path d="M4155 2987 c-20 -30 -10 -186 13 -194 21 -9 33 17 27 57 -4 20 -1 57 5 84 8 36 8 52 -1 62 -16 20 -26 17 -44 -9z"/> <path d="M3237 2994 c-13 -13 -7 -65 8 -70 23 -9 46 16 43 45 -3 26 -35 41 -51 25z"/> <path d="M3003 2968 c-37 -26 -40 -39 -17 -59 15 -12 14 -15 -5 -30 -16 -13 -20 -24 -15 -43 6 -25 4 -26 -38 -26 -48 0 -98 -35 -98 -70 0 -10 -4 -21 -9 -25 -10 -6 -11 -9 -14 -101 -1 -34 -8 -68 -16 -77 -10 -13 -12 -43 -9 -126 4 -109 4 -110 -19 -116 -13 -3 -28 -3 -32 0 -5 3 -9 43 -10 89 -1 63 3 94 19 127 19 44 19 44 -1 47 -41 7 -49 -13 -48 -127 1 -58 4 -117 8 -131 6 -22 11 -25 49 -22 l42 4 0 -36 c0 -29 4 -36 19 -36 28 0 35 -17 11 -25 -22 -7 -28 -41 -8 -47 8 -3 6 -14 -8 -38 -15 -26 -29 -36 -59 -42 -22 -5 -44 -13 -49 -18 -6 -6 -21 -10 -33 -10 -13 0 -34 -7 -47 -15 -33 -22 -44 -4 -47 80 -4 104 -2 102 -114 104 -52 1 -95 0 -95 -3 0 -11 67 -35 105 -38 l40 -3 1 -109 c1 -114 12 -140 41 -100 10 13 26 18 63 18 30 0 50 4 50 11 0 9 97 45 220 80 46 13 91 45 84 57 -4 6 -26 8 -53 4 l-46 -6 0 82 c0 82 0 83 -25 83 -42 0 -34 19 12 29 24 5 45 12 48 16 3 4 17 10 31 13 22 6 30 2 43 -19 16 -23 22 -25 74 -22 51 3 57 5 60 26 3 23 2 23 -55 16 -44 -4 -63 -3 -74 7 -22 22 -60 21 -81 -1 -20 -21 -31 -23 -61 -12 -15 6 -18 21 -20 96 -1 60 2 91 10 98 8 6 13 34 13 68 0 32 6 71 14 87 7 15 22 45 31 66 16 32 23 37 52 37 22 0 33 -5 33 -14 0 -12 14 -15 60 -14 67 1 97 16 87 43 -6 14 -16 16 -55 13 -26 -3 -55 -8 -64 -12 -27 -12 -23 21 5 38 16 10 63 14 182 14 88 1 177 4 198 8 25 4 37 3 37 -5 0 -6 9 -11 20 -11 25 0 44 34 31 58 -6 12 -5 25 5 42 22 40 17 50 -22 50 l-36 0 6 -45 7 -44 -176 0 c-96 0 -190 -3 -209 -6 -22 -5 -36 -3 -41 5 -11 17 14 30 60 30 22 0 47 5 55 10 13 8 13 11 -1 25 -27 28 -80 29 -116 3z"/> <path d="M2232 2955 c-12 -9 -22 -25 -22 -36 0 -24 18 -25 27 -1 4 9 11 20 16 23 5 4 8 12 6 18 -3 8 -11 6 -27 -4z"/> <path d="M3566 2944 c-10 -26 -7 -182 4 -189 6 -3 10 -3 11 2 0 4 2 50 3 101 2 88 -5 121 -18 86z"/> <path d="M3504 2929 c-4 -7 -7 -42 -6 -78 2 -75 -4 -101 -23 -101 -11 0 -13 8 -9 29 5 23 2 29 -14 33 -12 3 -23 3 -26 0 -10 -10 -6 -42 4 -42 7 0 8 -13 4 -36 -5 -26 -3 -39 7 -45 21 -13 26 -11 32 12 4 16 11 20 26 16 12 -3 23 -1 27 4 3 5 5 52 5 106 0 93 -10 129 -27 102z"/> <path d="M2844 2885 c-4 -8 -12 -15 -20 -15 -8 0 -23 -6 -34 -12 -16 -10 -24 -10 -41 0 -29 18 -78 6 -89 -22 -9 -26 -90 -56 -149 -56 -28 0 -44 -7 -66 -30 -21 -22 -38 -30 -63 -30 -27 0 -33 -4 -30 -17 6 -29 67 -22 103 11 32 30 67 42 87 30 7 -5 23 -7 36 -5 24 3 29 -8 11 -26 -8 -8 -8 -13 0 -17 15 -9 31 2 31 20 0 8 10 33 22 54 16 28 31 40 54 44 41 8 97 -12 90 -31 -8 -19 3 -63 15 -63 5 0 9 18 9 39 0 22 4 41 8 43 5 2 15 16 23 33 11 23 23 31 57 38 51 10 46 27 -9 27 -26 0 -42 -5 -45 -15z"/> <path d="M3257 2753 c-12 -11 -7 -70 6 -81 18 -15 57 12 57 38 0 33 -44 63 -63 43z"/> <path d="M2683 2731 c-13 -11 -23 -24 -23 -29 0 -5 -7 -16 -16 -23 -9 -7 -20 -23 -25 -36 -12 -32 -44 -29 -66 7 -9 17 -24 30 -32 30 -21 0 -71 -50 -71 -71 0 -9 -7 -22 -15 -29 -15 -13 -22 -131 -9 -164 12 -32 24 -3 24 61 0 66 21 120 58 150 28 23 75 -15 66 -52 -3 -11 1 -29 9 -39 12 -17 12 -23 -2 -47 -14 -25 -14 -30 4 -63 11 -20 23 -36 28 -36 5 0 7 -15 6 -33 -2 -18 0 -38 5 -45 21 -34 28 3 32 151 3 141 6 162 26 197 28 48 55 52 69 10 6 -16 15 -27 20 -24 14 8 11 44 -5 50 -8 3 -17 16 -20 30 -8 29 -32 31 -63 5z"/> <path d="M3020 2723 c-31 -6 -50 -29 -49 -62 l0 -26 11 23 c8 15 21 23 42 24 43 2 78 4 99 6 10 1 17 10 17 22 0 17 -6 20 -47 19 -27 -1 -59 -4 -73 -6z"/> <path d="M2145 2651 c-3 -6 1 -25 9 -43 l14 -33 1 37 c1 36 -12 57 -24 39z"/> <path d="M2394 2645 c-4 -11 -12 -23 -18 -27 -7 -4 -11 -50 -12 -115 0 -59 -4 -116 -8 -127 -7 -14 -5 -17 8 -15 16 4 18 20 21 127 2 76 7 128 15 137 6 8 10 20 7 27 -3 9 -7 6 -13 -7z"/> <path d="M2900 2621 c-12 -23 -16 -186 -5 -220 12 -38 30 -17 31 35 1 27 4 79 8 115 6 52 4 68 -8 78 -12 10 -17 9 -26 -8z"/> <path d="M2950 2586 c0 -22 19 -30 35 -16 22 18 18 30 -10 30 -15 0 -25 -6 -25 -14z"/> <path d="M2157 2536 c-10 -24 -8 -78 2 -94 12 -20 23 46 13 83 -7 24 -9 26 -15 11z"/> <path d="M3040 2540 c-25 -4 -51 -5 -57 -3 -9 4 -13 -5 -13 -27 0 -25 3 -30 13 -22 6 5 36 10 66 11 64 1 93 18 65 38 -10 7 -20 12 -23 12 -3 -1 -26 -5 -51 -9z"/> <path d="M3245 2516 c-11 -8 -16 -23 -13 -46 2 -29 7 -36 29 -38 32 -4 51 18 47 54 -4 32 -38 49 -63 30z"/> <path d="M2511 2476 c-8 -9 -11 -44 -9 -103 2 -70 6 -88 18 -88 20 0 34 173 16 193 -10 11 -15 10 -25 -2z"/> <path d="M4251 2481 c-10 -7 -10 -12 0 -30 8 -11 17 -21 20 -21 4 0 9 -9 12 -20 3 -11 10 -20 16 -20 17 0 13 30 -4 36 -8 4 -15 17 -15 29 0 28 -11 37 -29 26z"/> <path d="M4037 2473 c-7 -11 11 -53 22 -53 10 0 22 40 15 52 -6 10 -31 11 -37 1z"/> <path d="M4103 2434 c-13 -20 -23 -39 -23 -43 0 -3 -21 -13 -47 -21 -64 -18 -90 -47 -98 -106 -4 -27 -10 -53 -13 -59 -4 -5 -5 -20 -3 -32 1 -13 -5 -33 -13 -45 -13 -18 -15 -39 -10 -98 7 -98 1 -106 -66 -93 -49 10 -52 9 -67 -14 -14 -21 -14 -26 -2 -34 19 -12 36 -11 60 1 19 11 19 10 -1 -22 -21 -35 -25 -121 -12 -238 l7 -55 67 2 c110 2 124 26 33 55 l-50 15 -5 84 c-3 46 -8 91 -10 99 -4 11 7 16 40 21 50 8 136 26 163 35 24 8 21 24 -5 24 -12 0 -32 10 -44 21 -18 17 -21 26 -13 40 5 11 16 19 24 19 16 0 29 37 23 67 -2 11 2 26 9 34 7 8 13 51 15 94 l3 80 31 3 c28 3 32 7 37 40 2 20 0 59 -5 86 -9 43 -8 51 8 63 13 9 14 13 3 13 -8 -1 -24 -17 -36 -36z"/> <path d="M2998 2434 c-36 -19 -39 -57 -4 -48 13 3 35 0 47 -7 36 -19 183 -42 187 -29 5 14 52 13 52 -2 0 -7 -7 -22 -15 -32 -8 -11 -15 -36 -15 -57 0 -32 3 -37 28 -42 15 -3 29 -3 32 0 3 2 4 29 3 58 -3 60 6 72 57 77 24 2 36 9 38 21 3 17 -3 18 -81 13 -46 -3 -110 -2 -141 1 -50 5 -59 10 -72 34 -12 24 -21 29 -52 29 -20 -1 -49 -8 -64 -16z"/> <path d="M4172 2438 c-17 -17 -15 -48 3 -48 8 0 15 7 15 15 0 8 5 15 10 15 6 0 10 7 10 15 0 18 -21 20 -38 3z"/> <path d="M3890 2375 c0 -10 7 -15 18 -13 21 4 19 22 -2 26 -10 2 -16 -3 -16 -13z"/> <path d="M4242 2343 c-12 -14 -19 -30 -16 -35 8 -12 24 0 24 18 0 8 7 14 15 14 16 0 20 15 7 24 -5 3 -18 -7 -30 -21z"/> <path d="M2454 2335 c-7 -17 4 -37 17 -30 12 8 12 45 -1 45 -6 0 -13 -7 -16 -15z"/> <path d="M3860 2309 c0 -24 23 -21 28 4 2 10 -3 17 -12 17 -10 0 -16 -9 -16 -21z"/> <path d="M1520 2290 c0 -5 7 -10 15 -10 8 0 15 5 15 10 0 6 -7 10 -15 10 -8 0 -15 -4 -15 -10z"/> <path d="M6769 2278 c-6 -11 -8 -25 -6 -33 6 -14 -18 -55 -40 -68 -7 -4 -13 -14 -13 -21 0 -8 -20 -33 -45 -57 -25 -24 -45 -49 -45 -56 0 -22 -34 -30 -120 -28 -47 1 -89 -1 -94 -3 -5 -3 -27 -7 -49 -9 -23 -2 -48 -10 -57 -18 -9 -8 -24 -15 -32 -15 -9 0 -21 -7 -28 -15 -7 -8 -19 -15 -27 -15 -7 0 -30 -7 -51 -16 -25 -12 -65 -17 -126 -16 -119 0 -155 -13 -63 -23 38 -4 88 -5 112 -2 49 7 61 -6 45 -47 -8 -21 -15 -24 -67 -25 -92 -1 -158 -14 -158 -31 0 -27 119 -24 187 5 15 6 17 -5 21 -102 3 -59 8 -124 12 -144 4 -23 3 -39 -4 -43 -14 -9 -14 -49 0 -63 7 -7 11 -92 12 -236 1 -124 5 -228 9 -232 4 -4 12 -4 18 0 13 8 12 590 -1 616 -5 9 -11 41 -15 71 -5 43 -2 68 16 117 22 59 24 62 51 56 40 -9 69 2 69 27 0 18 -5 20 -34 15 -25 -4 -36 -1 -40 9 -3 9 1 17 12 20 9 3 30 12 45 20 16 7 34 14 40 14 6 0 21 10 33 21 14 13 30 19 39 15 14 -5 15 -19 9 -100 -5 -74 -3 -100 8 -124 12 -23 13 -40 5 -78 -18 -91 -20 -254 -3 -298 19 -54 28 -386 9 -386 -7 0 -16 -6 -20 -13 -4 -8 -21 -20 -38 -28 -28 -14 -30 -18 -27 -68 2 -44 -1 -55 -20 -71 -18 -15 -20 -21 -11 -31 10 -10 16 -9 31 4 10 9 22 17 25 17 12 0 8 -45 -5 -58 -17 -17 17 -28 45 -14 12 6 34 13 49 16 21 5 30 15 37 44 15 51 14 52 -13 52 -14 0 -27 4 -30 9 -8 12 11 73 25 82 9 5 8 15 -3 39 -12 24 -13 41 -7 64 5 17 10 100 10 184 2 137 0 154 -17 173 -16 18 -19 34 -16 118 2 64 8 101 17 111 18 20 17 47 -6 139 -34 134 -26 147 81 137 69 -6 186 2 175 12 -2 3 -21 8 -42 11 -46 8 -57 31 -15 31 17 0 37 7 46 15 21 21 24 19 32 -20 10 -52 35 -41 48 22 6 26 4 34 -14 43 -16 9 -19 15 -11 23 6 6 11 19 11 29 0 29 22 67 43 74 14 4 16 9 8 17 -32 32 11 48 174 68 55 6 105 16 111 20 7 6 16 3 24 -6 7 -9 21 -13 30 -10 18 6 30 -18 30 -62 0 -19 4 -21 35 -16 33 5 35 4 35 -24 0 -17 9 -38 20 -48 22 -20 25 -46 9 -77 -8 -15 -8 -27 2 -44 17 -32 6 -41 -20 -15 -16 16 -21 32 -19 65 1 28 -5 55 -16 70 -18 29 -36 34 -36 11 0 -8 7 -15 15 -15 8 0 15 -7 15 -15 0 -10 -10 -15 -30 -15 -39 0 -38 -13 3 -54 33 -33 77 -100 77 -117 0 -12 -27 -12 -35 1 -9 15 -25 12 -25 -5 0 -9 7 -18 15 -21 8 -4 15 -15 15 -25 0 -28 27 -23 42 9 7 15 20 27 28 27 24 0 24 -45 0 -77 -25 -34 -14 -58 26 -58 24 0 28 -7 24 -47 -1 -15 4 -23 14 -23 13 0 15 8 10 43 -4 23 -10 46 -15 52 -5 5 -9 46 -9 90 0 45 -7 104 -15 131 -8 27 -15 60 -15 74 0 14 -6 45 -14 70 -30 91 -40 158 -27 174 7 8 8 16 4 19 -4 2 -117 4 -251 4 -231 1 -243 0 -253 -19z m-309 -358 c0 -5 -6 -10 -14 -10 -8 0 -18 5 -21 10 -3 6 3 10 14 10 12 0 21 -4 21 -10z"/> <path d="M2103 2283 c9 -2 25 -2 35 0 9 3 1 5 -18 5 -19 0 -27 -2 -17 -5z"/> <path d="M3833 2274 c-6 -16 11 -34 35 -34 19 0 14 28 -8 40 -16 9 -22 8 -27 -6z"/> <path d="M2460 2260 c0 -5 9 -10 21 -10 11 0 17 5 14 10 -3 6 -13 10 -21 10 -8 0 -14 -4 -14 -10z"/> <path d="M2609 2249 c-15 -29 -6 -169 12 -180 38 -24 47 3 40 124 -2 37 1 48 15 54 16 6 16 7 -2 14 -33 13 -53 10 -65 -12z"/> <path d="M7310 2245 c0 -14 7 -28 15 -31 11 -5 15 -23 15 -73 0 -43 5 -74 15 -88 11 -16 14 -46 13 -121 -2 -83 0 -103 15 -119 9 -11 17 -33 17 -49 0 -17 6 -36 13 -42 8 -9 12 -49 13 -122 1 -110 -5 -127 -34 -98 -16 16 -25 4 -24 -29 1 -16 2 -48 3 -73 1 -25 7 -52 13 -60 19 -22 39 -77 32 -88 -3 -5 4 -26 14 -48 11 -21 20 -46 20 -55 0 -9 9 -24 20 -34 11 -10 20 -28 20 -40 0 -12 13 -39 29 -59 16 -20 33 -50 36 -67 10 -47 20 -34 32 44 11 64 10 73 -5 85 -9 6 -24 10 -33 7 -21 -7 -49 43 -49 87 0 17 -9 41 -20 55 -11 14 -20 36 -20 50 0 13 -7 35 -16 48 -8 13 -14 32 -12 43 2 10 -4 31 -12 46 -10 20 -11 32 -4 44 14 21 34 27 34 10 0 -8 16 -45 35 -82 19 -38 35 -77 35 -86 0 -10 7 -20 15 -24 8 -3 15 -14 15 -25 0 -10 7 -32 15 -47 8 -16 15 -36 15 -45 0 -9 7 -22 15 -29 8 -7 15 -19 15 -26 0 -8 7 -14 15 -14 25 0 17 48 -15 97 -16 24 -30 53 -30 64 0 11 -7 22 -15 25 -9 4 -15 19 -15 38 0 30 -25 91 -50 121 -6 8 -9 18 -6 23 3 5 -3 21 -14 35 -17 21 -20 41 -20 115 0 67 -4 94 -15 106 -8 8 -15 28 -15 45 0 16 -7 36 -15 45 -11 11 -15 37 -15 100 0 46 -4 96 -10 110 -5 15 -13 62 -16 106 -4 48 -12 84 -20 91 -8 6 -14 22 -14 35 0 15 -6 24 -15 24 -9 0 -15 -9 -15 -25z"/> <path d="M4255 2231 c-3 -5 -1 -12 5 -16 12 -7 30 2 30 16 0 12 -27 12 -35 0z"/> <path d="M4195 2201 c-3 -10 -15 -21 -25 -24 -11 -3 -20 -10 -20 -16 0 -17 30 -13 36 4 4 8 17 15 29 15 32 0 40 16 16 29 -26 15 -29 14 -36 -8z"/> <path d="M2030 2101 c-15 -29 -12 -77 6 -92 14 -11 18 -10 30 6 20 26 18 91 -2 99 -22 8 -22 8 -34 -13z"/> <path d="M3746 2111 c-18 -7 -18 -8 5 -14 39 -11 59 -8 59 8 0 16 -31 19 -64 6z"/> <path d="M6896 2093 c-3 -4 -4 -20 -1 -37 7 -42 -4 -55 -54 -64 -24 -4 -42 -10 -42 -14 1 -5 1 -17 1 -28 0 -26 19 -26 28 1 7 18 17 20 109 22 l100 2 13 -28 c12 -27 35 -45 46 -34 3 2 -9 25 -26 51 -20 29 -29 53 -25 65 7 24 -18 45 -45 36 -12 -4 -27 -2 -33 4 -19 15 -64 30 -71 24z"/> <path d="M3750 2031 c0 -11 50 -32 61 -26 22 14 8 33 -26 33 -19 0 -35 -3 -35 -7z"/> <path d="M4081 2001 c-1 -24 2 -32 9 -25 7 7 7 19 1 35 -9 23 -10 22 -10 -10z"/> <path d="M3190 1980 c-14 -4 -42 -8 -62 -9 -21 -1 -38 -5 -38 -10 0 -18 46 -25 165 -22 116 3 150 11 130 30 -14 13 -165 22 -195 11z"/> <path d="M2651 1946 c-8 -9 -12 -18 -10 -20 2 -2 36 -6 74 -8 107 -9 141 12 45 26 -19 3 -49 8 -66 11 -21 5 -34 2 -43 -9z"/> <path d="M3030 1945 c7 -8 9 -22 6 -31 -4 -9 -1 -23 6 -32 9 -11 13 -55 12 -151 -1 -137 -8 -195 -26 -218 -13 -16 4 -17 19 -2 6 6 16 8 22 5 14 -9 14 -43 1 -51 -15 -9 -12 -52 5 -68 13 -13 13 -16 0 -27 -22 -19 -18 -45 10 -60 21 -11 31 -11 66 3 40 16 44 16 87 -3 24 -11 50 -20 56 -20 10 0 177 -78 258 -120 20 -11 45 -20 56 -20 10 0 33 -16 52 -35 19 -19 39 -35 44 -35 6 0 25 -8 41 -17 19 -10 60 -17 110 -20 68 -3 86 0 123 19 23 13 42 26 42 30 0 5 8 8 18 8 11 0 32 6 48 14 81 38 112 54 150 78 22 14 49 27 60 29 36 7 29 51 -18 106 -53 63 -73 61 -65 -8 6 -46 5 -49 -38 -88 -25 -23 -51 -41 -60 -41 -8 0 -15 -5 -15 -10 0 -6 -8 -13 -17 -17 -10 -3 -32 -19 -50 -36 l-31 -29 -18 20 c-13 16 -25 19 -46 15 -24 -5 -30 -2 -35 16 -4 15 -12 21 -27 19 -19 -3 -21 -8 -18 -52 3 -37 1 -47 -10 -44 -9 4 -12 22 -10 66 3 61 -9 85 -31 63 -6 -6 -11 -27 -12 -46 0 -48 -20 -39 -22 10 -1 22 -2 46 -2 53 -1 6 -9 12 -19 12 -43 0 -69 69 -34 89 15 9 15 10 -5 11 -18 0 -23 -6 -23 -24 0 -13 -6 -29 -14 -35 -11 -9 -16 -5 -26 19 -12 29 -14 30 -30 15 -17 -15 -19 -15 -26 7 -4 12 -7 35 -6 50 0 18 -5 28 -14 28 -8 0 -14 -6 -14 -13 0 -7 -9 -18 -21 -25 -12 -8 -18 -20 -15 -30 17 -59 18 -72 2 -72 -24 0 -39 36 -26 61 6 11 11 32 10 47 -3 45 -1 52 18 53 9 0 4 5 -12 9 -51 16 -99 -39 -61 -70 8 -7 15 -25 15 -41 0 -35 -31 -40 -53 -8 -16 21 -9 81 15 127 9 17 9 25 0 34 -10 10 -18 6 -37 -17 -20 -24 -24 -37 -19 -66 7 -45 -4 -53 -48 -35 l-34 14 1 83 c0 55 5 84 13 87 7 2 12 13 12 25 0 12 7 31 15 41 8 11 15 31 15 46 0 14 9 33 20 43 38 32 17 56 -28 33 -36 -19 -42 -33 -42 -99 0 -35 -6 -57 -18 -71 -29 -33 -46 -99 -33 -124 17 -32 14 -62 -6 -62 -39 0 -42 12 -32 89 9 62 8 76 -5 89 -19 19 -50 8 -42 -14 10 -26 -3 -54 -24 -54 -12 0 -22 9 -26 24 -3 14 -12 27 -19 30 -11 4 -11 12 1 45 8 24 13 80 13 143 0 57 0 120 1 142 1 33 -5 44 -37 72 -39 34 -66 46 -43 19z m137 -541 c9 -25 -12 -38 -31 -19 -9 9 -14 21 -11 26 10 14 35 10 42 -7z m507 -180 c9 -23 7 -54 -2 -54 -5 0 -17 9 -27 20 -15 16 -15 22 -5 35 16 19 26 19 34 -1z"/> <path d="M2834 1925 c3 -8 8 -73 12 -145 8 -155 1 -180 -53 -180 -18 0 -33 -5 -33 -11 0 -5 -16 -17 -35 -25 -42 -17 -305 -20 -336 -3 -15 8 -40 7 -90 -1 -53 -9 -192 -9 -597 0 -712 17 -729 17 -744 2 -9 -9 -9 -15 0 -24 17 -17 133 -28 222 -22 41 3 93 2 114 -3 l39 -9 3 -278 c3 -281 7 -306 41 -306 12 0 13 23 6 153 -4 83 -8 217 -8 296 l0 144 170 -4 c94 -2 252 -3 353 -1 118 1 182 -1 182 -8 0 -5 -3 -10 -7 -10 -13 0 -32 -49 -22 -56 5 -3 9 -21 9 -40 0 -42 15 -74 35 -74 18 0 17 -4 19 90 l3 75 60 -3 c34 -1 86 1 117 6 36 6 59 5 66 -2 5 -5 10 -35 10 -66 0 -44 -5 -61 -20 -75 -21 -19 -17 -40 6 -31 8 3 23 0 34 -6 26 -17 33 -7 38 56 4 50 2 57 -24 81 -43 40 -25 58 59 60 65 2 66 1 61 -22 -5 -19 -2 -23 18 -23 13 0 29 5 35 11 6 6 63 15 125 20 62 4 116 8 121 8 13 1 7 39 -8 45 -19 7 -19 35 0 42 8 4 27 -1 41 -11 25 -16 25 -18 18 -93 -4 -42 -6 -98 -5 -125 1 -26 -3 -56 -9 -68 -9 -15 -8 -24 1 -35 9 -11 9 -21 0 -40 -16 -36 -14 -55 11 -81 20 -21 21 -27 11 -66 -7 -23 -8 -46 -3 -50 10 -11 47 -12 80 -3 20 5 33 -1 63 -29 38 -35 39 -35 126 -35 l88 0 49 -45 c26 -25 50 -45 52 -45 11 0 97 -74 106 -92 16 -32 40 -37 31 -7 -11 33 -38 68 -52 69 -7 0 -13 5 -13 10 0 6 -12 15 -26 20 -22 9 -25 15 -20 36 5 20 3 27 -14 31 -11 3 -20 9 -20 15 0 5 7 5 18 0 19 -11 30 -7 85 27 43 27 47 41 12 41 -21 0 -63 -17 -127 -51 -29 -15 -45 -11 -80 21 -37 34 -45 36 -84 15 -38 -20 -52 -19 -99 5 -52 27 -59 42 -62 130 -6 241 -11 295 -24 295 -8 0 -17 -15 -20 -35 -4 -20 -7 -26 -8 -13 0 12 -5 25 -11 28 -5 3 -10 15 -10 26 0 10 -4 19 -9 19 -14 0 -20 25 -10 41 6 11 11 11 21 1 21 -21 38 -14 38 16 0 15 4 33 9 41 7 11 1 19 -22 30 -20 10 -33 25 -35 41 -4 21 -2 22 12 11 9 -8 19 -12 21 -9 3 3 6 58 7 122 2 103 5 120 22 131 29 21 14 46 -23 39 -18 -4 -42 0 -62 10 -41 20 -63 21 -55 1z"/> <path d="M4160 1920 c0 -5 7 -10 15 -10 8 0 15 5 15 10 0 6 -7 10 -15 10 -8 0 -15 -4 -15 -10z"/> <path d="M5769 1877 c-19 -18 -45 -40 -58 -49 l-24 -17 19 -38 c15 -31 18 -59 16 -153 -2 -132 -6 -150 -32 -150 -14 0 -20 9 -22 33 -4 47 -32 43 -36 -5 -2 -21 1 -38 7 -38 18 0 41 -32 41 -58 0 -20 -3 -23 -12 -14 -7 7 -17 12 -22 12 -12 0 -36 -46 -36 -66 0 -6 -9 -14 -20 -17 -18 -5 -20 -13 -20 -104 0 -54 4 -104 9 -112 5 -8 5 -21 1 -30 -5 -9 -11 -25 -15 -35 -5 -19 -6 -19 -21 2 -8 12 -21 22 -28 22 -8 0 -20 7 -27 16 -12 14 -12 18 2 27 13 8 12 13 -8 33 -41 41 -71 29 -47 -18 9 -17 12 -33 8 -36 -4 -4 -9 -1 -11 6 -3 6 -13 12 -22 12 -10 0 -28 9 -41 20 -13 11 -29 20 -37 20 -8 0 -21 7 -29 15 -9 8 -24 15 -35 15 -10 0 -19 4 -19 8 0 11 -66 42 -90 42 -11 0 -20 -4 -20 -8 0 -19 106 -82 138 -82 10 0 29 -11 42 -24 12 -14 36 -28 54 -32 17 -4 59 -24 94 -45 35 -22 68 -39 73 -39 6 0 20 -6 32 -14 20 -12 121 -30 157 -27 79 6 75 2 81 73 3 36 10 78 16 94 7 16 14 83 16 149 3 66 10 133 16 150 8 19 11 99 10 242 -1 146 2 217 10 226 15 19 4 27 -39 27 -28 0 -45 -8 -71 -33z m67 -191 c-10 -175 -21 -270 -33 -289 -4 -7 -11 -43 -15 -82 -13 -125 -33 -234 -45 -247 -7 -6 -13 -19 -13 -28 0 -9 -6 -25 -14 -35 -14 -19 -14 -19 -36 0 -18 16 -20 26 -14 55 4 19 8 78 8 130 2 95 6 113 52 203 13 27 24 57 24 67 0 9 7 23 15 30 9 7 15 29 15 54 0 51 18 188 32 240 18 70 31 17 24 -98z"/> <path d="M4103 1888 c-6 -7 -15 -28 -22 -47 -6 -19 -19 -43 -29 -54 -13 -15 -17 -40 -19 -111 -3 -120 -3 -114 3 -172 5 -46 4 -52 -16 -57 -21 -5 -21 -3 -15 43 4 30 3 50 -4 55 -6 3 -11 0 -11 -8 0 -8 -9 -25 -20 -37 -18 -20 -20 -35 -18 -94 l3 -71 38 -6 c20 -3 38 -8 40 -10 10 -14 26 -101 21 -114 -5 -11 1 -15 20 -15 20 0 26 5 27 23 0 12 0 104 -1 205 -1 150 2 186 14 204 23 32 20 65 -5 73 -18 6 -20 12 -15 43 3 20 17 46 31 59 29 28 35 87 9 97 -21 8 -20 8 -31 -6z"/> <path d="M3643 1874 c-8 -20 8 -36 26 -25 15 10 8 41 -9 41 -6 0 -13 -7 -17 -16z"/> <path d="M6314 1879 c-8 -14 11 -33 25 -25 11 7 4 36 -9 36 -5 0 -12 -5 -16 -11z"/> <path d="M6947 1874 c-13 -13 -7 -24 14 -24 11 0 19 5 17 12 -5 14 -22 21 -31 12z"/> <path d="M4197 1850 c-3 -11 -1 -23 4 -26 16 -9 10 -31 -10 -37 -14 -3 -21 -17 -27 -53 -4 -26 -3 -53 2 -59 42 -56 44 -64 45 -141 2 -94 22 -139 70 -149 20 -5 34 -16 41 -33 6 -16 12 -22 15 -14 3 7 2 20 -2 30 -8 22 -7 27 7 27 6 0 13 6 16 13 2 6 -3 12 -11 12 -26 0 -28 97 -2 177 5 16 2 22 -10 25 -11 2 -19 14 -21 32 -4 38 -7 40 -67 46 -50 5 -52 6 -52 35 0 29 2 30 46 33 57 4 84 27 71 63 -7 18 -17 24 -38 24 -16 1 -39 4 -50 8 -17 6 -23 3 -27 -13z m83 -46 c0 -15 -6 -24 -15 -24 -21 0 -30 27 -15 45 16 19 30 10 30 -21z"/> <path d="M4838 1852 c-68 -1 -118 -7 -118 -12 0 -6 3 -11 8 -11 4 -1 20 -3 35 -5 15 -1 42 -10 59 -18 17 -9 35 -16 39 -16 4 0 23 -13 41 -30 31 -29 78 -41 78 -20 0 6 -11 15 -25 20 -14 5 -25 14 -25 19 0 5 -9 11 -21 14 -41 11 -9 24 43 17 29 -3 98 -5 153 -3 55 2 118 3 140 3 22 1 51 7 65 14 24 14 24 14 -20 20 -59 7 -304 12 -452 8z"/> <path d="M1396 1841 c-19 -7 -19 -8 0 -15 39 -15 371 -28 852 -33 271 -3 500 -2 509 1 45 17 -21 25 -222 27 -121 0 -287 5 -370 10 -214 13 -746 20 -769 10z"/> <path d="M3610 1821 c13 -11 28 -17 32 -15 12 8 -18 34 -39 34 -15 0 -14 -3 7 -19z"/> <path d="M1303 1811 c-10 -12 -20 -36 -23 -54 -5 -31 -7 -32 -55 -33 -60 -1 -162 -22 -170 -35 -6 -9 27 -14 70 -11 11 1 60 4 109 6 98 6 105 10 108 69 1 20 2 45 2 54 1 25 -21 27 -41 4z"/> <path d="M3440 1785 c-5 -13 -17 -28 -26 -33 -12 -7 -15 -17 -10 -36 8 -32 20 -33 52 -1 13 13 32 24 42 22 9 -1 18 1 20 6 7 22 -2 34 -34 49 -34 16 -35 16 -44 -7z"/> <path d="M3541 1803 c10 -2 19 -13 22 -25 6 -20 28 -21 34 -2 4 11 -40 35 -60 33 -7 -1 -5 -3 4 -6z"/> <path d="M4340 1789 c0 -12 -8 -28 -17 -36 -16 -12 -13 -13 23 -8 34 5 43 3 48 -11 4 -10 2 -22 -4 -28 -13 -13 -13 -49 0 -41 6 3 10 15 10 26 0 10 5 19 10 19 21 0 9 47 -18 73 -34 33 -52 34 -52 6z"/> <path d="M3747 1793 c-4 -3 -7 -14 -7 -24 0 -13 -31 -34 -111 -74 -61 -31 -128 -60 -148 -64 -20 -5 -27 -9 -15 -10 27 -1 64 -37 64 -62 0 -17 4 -19 18 -13 9 5 54 9 100 9 68 0 85 3 93 17 8 15 22 228 15 228 -1 0 -6 -3 -9 -7z"/> <path d="M3147 1784 c-17 -17 12 -24 98 -24 97 0 129 6 119 21 -6 10 -207 13 -217 3z"/> <path d="M770 1751 c-13 -25 -4 -64 13 -58 15 5 22 56 9 69 -7 7 -14 3 -22 -11z"/> <path d="M1426 1755 c-11 -29 -6 -81 8 -101 14 -17 16 -18 31 -3 13 13 14 25 8 65 -9 50 -34 72 -47 39z"/> <path d="M2997 1763 c-10 -9 -8 -66 3 -83 10 -16 12 -12 23 38 9 38 -7 64 -26 45z"/> <path d="M6999 1738 c-7 -13 -21 -29 -31 -37 -13 -9 -16 -17 -10 -23 15 -15 52 1 52 23 0 17 5 18 40 13 33 -5 40 -4 40 10 0 13 -4 15 -19 6 -26 -14 -28 -13 -34 10 -7 26 -23 25 -38 -2z"/> <path d="M7230 1727 c0 -19 -7 -56 -15 -83 -8 -27 -15 -50 -15 -51 0 -1 10 -3 23 -5 17 -2 23 -11 25 -35 3 -32 22 -48 22 -19 0 7 9 25 21 40 26 33 19 73 -21 111 -22 21 -27 32 -20 45 9 17 4 30 -12 30 -4 0 -8 -15 -8 -33z"/> <path d="M1617 1743 c-4 -3 -7 -28 -7 -54 0 -48 14 -65 45 -53 18 7 20 65 5 95 -11 19 -31 25 -43 12z"/> <path d="M1806 1737 c-13 -10 -17 -24 -14 -57 3 -40 6 -45 28 -45 24 0 25 3 25 54 0 58 -10 69 -39 48z"/> <path d="M685 1731 c-31 -6 -41 -26 -26 -50 6 -9 14 -10 22 -5 8 5 23 9 34 9 14 0 21 8 23 28 4 29 0 30 -53 18z"/> <path d="M1935 1720 c-8 -24 3 -97 15 -105 17 -10 31 26 28 72 -2 35 -7 49 -20 51 -10 2 -19 -5 -23 -18z"/> <path d="M2086 1724 c-11 -29 -6 -91 8 -103 19 -16 36 14 36 61 0 48 -31 77 -44 42z"/> <path d="M2233 1728 c-16 -20 -1 -113 17 -113 15 0 30 71 22 108 -5 20 -25 22 -39 5z"/> <path d="M2391 1731 c-10 -7 -12 -22 -7 -65 11 -84 29 -87 41 -6 7 51 -10 86 -34 71z"/> <path d="M2683 1714 c-8 -21 9 -105 22 -107 12 -2 27 81 19 105 -7 22 -33 23 -41 2z"/> <path d="M5663 1712 c-13 -33 -4 -102 13 -102 15 0 18 15 15 70 -3 44 -18 61 -28 32z"/> <path d="M6696 1708 c-9 -12 -13 -24 -10 -27 3 -3 8 -1 12 5 4 6 15 13 25 17 9 3 17 11 17 17 0 18 -28 11 -44 -12z"/> <path d="M6782 1707 c-12 -13 -22 -26 -22 -30 0 -14 28 -7 34 8 3 8 12 15 21 15 8 0 15 7 15 15 0 22 -23 18 -48 -8z"/> <path d="M5570 1666 c0 -62 15 -81 31 -39 13 35 3 93 -16 93 -11 0 -15 -13 -15 -54z"/> <path d="M6533 1712 c-25 -8 -67 -58 -59 -71 8 -12 54 -1 93 21 27 17 31 23 23 39 -11 20 -20 21 -57 11z"/> <path d="M6623 1695 c-3 -9 -3 -18 0 -21 9 -9 27 6 27 22 0 19 -19 18 -27 -1z"/> <path d="M2490 1630 c-12 -8 -9 -10 13 -10 16 0 26 4 22 10 -8 12 -16 12 -35 0z"/> <path d="M6540 1624 c0 -9 -8 -18 -17 -21 -33 -8 -58 -56 -54 -100 2 -20 31 -15 31 5 0 29 44 102 62 102 23 0 31 17 12 24 -25 10 -34 7 -34 -10z"/> <path d="M7015 1613 c-16 -3 -35 -9 -42 -15 -7 -5 -16 -7 -21 -4 -13 8 -29 -13 -37 -47 -6 -23 -4 -27 14 -27 12 0 24 7 27 15 4 10 14 13 29 9 17 -4 25 -1 30 15 3 11 15 23 26 26 17 6 29 37 12 34 -5 -1 -21 -4 -38 -6z"/> <path d="M5532 1523 c5 -25 28 -28 28 -4 0 12 -6 21 -16 21 -9 0 -14 -7 -12 -17z"/> <path d="M7018 1480 c-38 -40 -39 -50 -3 -50 11 0 26 -5 32 -11 9 -9 16 -7 29 5 9 9 13 20 9 24 -4 4 -10 1 -12 -5 -5 -15 -33 -18 -33 -4 0 5 11 23 25 39 23 28 24 43 1 41 -6 0 -27 -18 -48 -39z"/> <path d="M3322 1485 c-21 -46 -13 -115 13 -115 20 0 26 26 19 86 -7 60 -15 67 -32 29z"/> <path d="M3612 1479 c2 -7 10 -15 17 -17 8 -3 12 1 9 9 -2 7 -10 15 -17 17 -8 3 -12 -1 -9 -9z"/> <path d="M5356 1481 c-4 -5 1 -14 11 -19 15 -9 15 -12 1 -42 -15 -31 -16 -32 -27 -12 -6 11 -11 28 -11 37 0 10 -7 15 -17 13 -14 -3 -18 -14 -19 -48 0 -25 1 -51 4 -57 7 -21 39 -15 45 8 5 18 11 21 36 16 25 -5 33 -2 42 15 11 20 13 20 24 5 19 -26 43 -20 60 13 14 27 14 32 -1 55 -20 30 -54 34 -54 6 0 -11 -3 -27 -7 -37 -5 -13 -9 -10 -22 17 -16 34 -53 51 -65 30z"/> <path d="M6910 1471 c0 -11 5 -32 11 -48 8 -22 12 -24 19 -13 6 8 10 30 10 48 0 25 -4 32 -20 32 -13 0 -20 -7 -20 -19z"/> <path d="M2233 1458 c-6 -7 -13 -35 -16 -63 -4 -42 -2 -52 16 -67 13 -12 24 -15 30 -9 20 20 9 151 -12 151 -5 0 -13 -6 -18 -12z"/> <path d="M6537 1464 c-4 -4 -7 -25 -7 -46 0 -32 3 -38 21 -38 19 0 21 4 14 38 -7 40 -17 56 -28 46z"/> <path d="M1764 1446 c-3 -9 -3 -27 0 -41 8 -33 -9 -65 -36 -65 -12 0 -32 -9 -44 -21 -33 -31 -44 -16 -44 62 0 50 -4 69 -13 69 -27 0 -37 -25 -37 -93 0 -98 22 -130 58 -88 10 11 32 22 50 26 l32 7 0 -126 c0 -73 4 -127 10 -131 18 -11 52 6 45 22 -3 9 -1 31 6 50 9 27 8 38 -4 56 -7 12 -17 46 -20 75 -6 51 -5 52 19 52 14 0 39 -9 55 -20 l28 -21 6 23 c3 13 4 36 3 52 -2 21 2 30 20 37 20 8 23 5 29 -21 3 -17 10 -33 15 -36 15 -9 38 17 38 42 0 13 9 40 20 59 11 20 16 34 10 30 -5 -3 -19 -1 -31 6 -20 10 -25 8 -42 -16 -11 -15 -35 -34 -54 -41 -18 -8 -33 -22 -33 -31 0 -15 -1 -15 -18 0 -10 10 -24 17 -30 17 -7 0 -12 15 -12 34 0 38 -16 57 -26 32z"/> <path d="M3803 1425 c28 -25 57 -33 57 -16 0 13 -46 41 -67 41 -15 -1 -13 -5 10 -25z"/> <path d="M2664 1429 c-18 -29 -21 -79 -7 -99 l16 -22 23 26 c29 30 29 35 7 75 -19 33 -28 38 -39 20z"/> <path d="M4642 1428 c-7 -7 -12 -40 -12 -75 0 -58 2 -63 24 -69 27 -6 66 10 66 29 0 25 -38 110 -52 118 -9 5 -19 4 -26 -3z"/> <path d="M705 1410 c-18 -20 -18 -23 3 -143 4 -21 12 -38 17 -38 13 0 28 117 20 158 -7 41 -18 47 -40 23z"/> <path d="M3740 1416 c0 -20 42 -48 53 -37 5 5 0 18 -12 30 -24 24 -41 27 -41 7z"/> <path d="M5226 1417 c-13 -10 -17 -24 -14 -62 3 -46 5 -50 30 -53 22 -3 27 2 32 25 7 33 -5 95 -20 100 -5 2 -18 -3 -28 -10z"/> <path d="M5144 1343 c-7 -36 2 -63 24 -71 20 -6 25 27 12 69 -16 49 -27 50 -36 2z"/> <path d="M3840 1360 c0 -5 9 -10 21 -10 11 0 17 5 14 10 -3 6 -13 10 -21 10 -8 0 -14 -4 -14 -10z"/> <path d="M5070 1335 c-16 -17 -30 -23 -45 -19 -29 7 -85 -21 -85 -42 0 -12 6 -15 22 -11 11 3 33 0 47 -7 14 -8 44 -17 67 -20 l41 -7 6 36 c8 46 -2 95 -18 95 -6 0 -22 -11 -35 -25z"/> <path d="M7075 1340 c-7 -12 2 -30 16 -30 12 0 12 27 0 35 -5 3 -12 1 -16 -5z"/> <path d="M6476 1333 c-9 -10 -7 -43 3 -43 11 0 21 39 11 45 -4 2 -10 2 -14 -2z"/> <path d="M6557 1318 c-20 -21 -16 -48 7 -48 14 0 29 51 18 61 -4 3 -15 -3 -25 -13z"/> <path d="M5420 1315 c0 -15 26 -32 36 -23 2 3 2 13 -2 22 -8 20 -34 21 -34 1z"/> <path d="M4340 1296 c0 -16 7 -27 20 -31 34 -11 44 5 19 31 -29 30 -39 30 -39 0z"/> <path d="M4763 1313 c-18 -4 -21 -9 -17 -32 10 -48 -20 -137 -60 -176 -20 -19 -36 -44 -36 -54 0 -11 -10 -30 -22 -42 -16 -15 -19 -23 -10 -26 20 -8 15 -53 -7 -53 -15 0 -19 -10 -24 -57 -3 -32 -11 -59 -17 -61 -5 -2 -10 -10 -10 -17 0 -29 69 28 81 68 8 24 18 37 30 37 18 0 29 19 29 50 0 22 38 90 50 90 5 0 11 19 15 41 4 23 14 57 21 75 8 18 14 53 14 78 0 31 5 46 16 50 13 5 14 9 4 21 -13 15 -17 16 -57 8z"/> <path d="M4856 1243 c9 -49 12 -53 30 -46 11 4 12 9 5 16 -6 6 -11 24 -11 39 0 19 -5 28 -15 28 -13 0 -15 -7 -9 -37z"/> <path d="M5413 1245 c-26 -18 -31 -55 -8 -55 17 0 38 35 33 56 -3 13 -6 12 -25 -1z"/> <path d="M6663 1235 c-3 -9 -3 -18 -1 -21 9 -9 38 8 38 22 0 19 -29 18 -37 -1z"/> <path d="M6770 1224 c0 -17 22 -14 28 4 2 7 -3 12 -12 12 -9 0 -16 -7 -16 -16z"/> <path d="M2751 1213 c-12 -10 -24 -35 -28 -57 -6 -37 -30 -69 -69 -92 -11 -6 -20 -19 -22 -28 -4 -17 11 -19 118 -18 89 2 87 1 65 18 -11 8 -25 12 -32 9 -14 -5 -53 28 -53 44 0 5 9 13 20 16 23 7 26 26 8 55 -11 16 -9 23 10 40 36 34 21 44 -17 13z"/> <path d="M2085 1211 c-33 -3 -66 -10 -72 -14 -20 -12 -17 -131 3 -147 8 -7 14 -25 12 -38 -3 -23 -7 -25 -56 -27 l-54 -2 6 29 c4 21 1 30 -11 35 -19 7 -43 -21 -43 -52 0 -27 -65 -64 -82 -47 -20 20 -70 14 -96 -10 -21 -20 -32 -23 -94 -20 -70 3 -71 3 -104 -35 -19 -21 -34 -41 -34 -45 0 -3 -16 -15 -35 -27 -19 -11 -35 -27 -35 -36 0 -8 -7 -15 -15 -15 -8 0 -24 -5 -35 -12 -15 -10 -23 -9 -39 6 -12 11 -21 27 -21 36 0 36 -72 78 -82 48 -3 -7 -28 -12 -63 -13 -34 -1 -61 -7 -63 -13 -2 -7 -14 -12 -27 -12 -12 0 -26 -7 -29 -16 -5 -13 -2 -15 16 -9 27 9 52 9 94 0 26 -6 35 -2 53 21 l21 27 25 -23 c14 -13 25 -30 25 -38 0 -21 -51 -66 -60 -52 -7 12 -40 3 -40 -11 0 -5 9 -9 20 -9 11 0 20 -7 20 -15 0 -8 5 -24 12 -35 10 -15 9 -22 -4 -37 -12 -14 -15 -30 -11 -66 6 -49 6 -49 -23 -45 -23 2 -29 -1 -34 -22 -3 -14 -13 -26 -23 -28 -9 -2 -44 -30 -78 -63 -58 -54 -64 -58 -80 -43 -16 14 -18 14 -29 -6 -8 -15 -17 -19 -31 -15 -16 5 -23 0 -32 -24 -7 -18 -19 -31 -29 -31 -27 0 -30 -15 -10 -71 20 -60 38 -72 51 -36 5 13 19 27 30 30 11 2 27 21 35 41 18 44 44 56 62 32 10 -14 10 -22 1 -37 -13 -20 -2 -49 21 -57 21 -7 27 30 7 44 -17 13 -17 15 -3 26 9 7 19 29 22 49 8 45 26 62 59 54 22 -6 27 -2 42 40 10 25 31 55 47 66 15 11 28 27 28 34 0 8 9 19 20 25 27 14 53 78 46 113 -8 37 4 88 21 94 9 4 25 -6 39 -23 19 -22 24 -38 20 -66 -4 -39 7 -58 35 -58 26 0 33 19 15 39 -19 21 -21 48 -3 54 9 3 9 9 -1 26 -11 18 -9 24 13 43 14 12 25 31 25 43 0 39 78 125 114 125 8 0 26 -5 40 -11 18 -9 29 -9 38 -1 7 5 36 13 63 17 28 4 58 12 68 17 13 7 24 5 36 -6 22 -20 40 -20 65 -1 11 8 28 15 38 15 9 0 36 10 58 21 39 21 41 21 61 3 13 -12 23 -14 30 -7 16 16 57 -7 68 -39 9 -24 15 -28 50 -28 30 0 41 -4 41 -15 0 -26 31 -65 51 -65 11 0 19 7 19 15 0 8 7 15 16 15 9 0 27 9 41 20 30 23 43 25 43 7 0 -8 -18 -28 -40 -46 -42 -33 -54 -74 -25 -85 16 -6 26 2 114 84 38 36 61 50 82 50 18 0 29 5 29 14 0 20 -20 32 -62 40 -20 4 -39 12 -41 19 -3 9 -9 9 -23 1 -16 -9 -23 -7 -42 13 -15 17 -28 23 -40 18 -43 -18 -49 -16 -75 24 -15 22 -27 47 -27 56 0 22 -48 19 -95 -5 -41 -21 -71 -25 -78 -12 -3 4 -1 34 4 66 9 66 29 97 52 78 10 -8 23 -8 49 0 55 17 68 7 68 -52 0 -38 4 -50 15 -50 11 0 15 12 15 50 0 49 1 50 29 50 37 0 44 -12 43 -64 -1 -27 5 -50 18 -66 18 -24 19 -24 25 -5 4 11 11 31 15 45 5 14 10 52 12 85 l3 60 -45 -1 c-25 0 -72 -2 -105 -4 -33 -2 -73 -1 -90 2 -16 3 -57 3 -90 -1z"/> <path d="M6955 1211 c-7 -12 12 -24 25 -16 11 7 4 25 -10 25 -5 0 -11 -4 -15 -9z"/> <path d="M8155 1191 c-34 -10 -65 -35 -65 -52 0 -9 -7 -22 -15 -29 -19 -15 -21 -84 -2 -78 6 3 13 20 15 39 2 19 12 42 23 52 10 10 19 22 19 27 0 6 9 10 20 10 11 0 23 7 27 15 7 20 3 23 -22 16z"/> <path d="M1860 1180 c0 -5 9 -10 21 -10 11 0 17 5 14 10 -3 6 -13 10 -21 10 -8 0 -14 -4 -14 -10z"/> <path d="M4919 1183 c-1 -4 -2 -17 -3 -28 -1 -28 -31 -30 -43 -3 -9 20 -12 21 -18 6 -9 -23 32 -109 57 -116 14 -3 19 -11 15 -28 -2 -13 0 -21 5 -18 5 3 22 0 38 -8 27 -12 29 -16 24 -48 -4 -19 -10 -42 -15 -51 -11 -21 -6 -74 6 -74 5 0 11 9 13 20 2 11 10 34 18 52 20 44 18 71 -10 107 -34 45 -69 126 -68 158 1 25 -16 51 -19 31z"/> <path d="M6810 1176 c0 -8 5 -18 10 -21 6 -3 10 1 10 9 0 8 -4 18 -10 21 -5 3 -10 -1 -10 -9z"/> <path d="M8397 1154 c-14 -15 7 -24 53 -24 33 0 50 -5 54 -15 3 -8 11 -15 17 -15 7 0 18 -8 25 -17 9 -12 13 -14 14 -5 0 23 -20 52 -36 52 -9 0 -22 7 -30 15 -15 15 -85 21 -97 9z"/> <path d="M4490 1133 c-8 -3 -26 -14 -39 -25 -29 -22 -248 -128 -266 -128 -7 0 -19 -10 -27 -21 -18 -28 -46 -15 -73 35 -12 21 -27 36 -38 36 -25 0 -13 -35 23 -69 16 -15 30 -39 32 -56 3 -28 6 -30 55 -36 68 -9 83 -15 83 -35 0 -16 9 -26 69 -79 l23 -20 -3 50 c-3 38 -1 50 10 50 8 0 16 6 19 14 3 10 -2 11 -18 6 -12 -4 -32 -2 -45 5 -18 10 -22 20 -21 58 1 42 4 47 26 50 13 2 33 10 44 18 11 8 31 14 44 14 13 0 38 11 56 25 21 16 40 23 50 19 12 -5 19 0 23 15 5 21 27 28 37 12 8 -12 42 -3 57 16 10 11 9 17 -2 27 -16 15 -96 28 -119 19z"/> <path d="M7860 1122 c0 -8 -14 -27 -57 -82 -13 -15 -23 -33 -23 -39 0 -16 -15 -14 -30 4 -7 8 -26 15 -42 15 -29 0 -30 -2 -24 -32 3 -18 14 -41 24 -53 25 -28 39 -63 46 -109 5 -36 23 -62 35 -50 3 2 7 23 10 47 6 38 9 42 37 45 30 3 33 0 47 -43 9 -25 14 -52 11 -59 -3 -7 7 -18 21 -26 20 -11 22 -16 13 -28 -10 -11 -7 -17 11 -32 23 -16 22 -40 -1 -40 -18 0 -58 50 -58 72 0 30 -37 67 -61 61 -27 -7 -26 -59 1 -73 27 -15 28 -70 1 -70 -10 0 -21 -6 -23 -12 -9 -23 3 -38 29 -38 33 0 77 -27 89 -54 6 -15 20 -22 47 -24 20 -2 37 0 37 4 0 5 -14 22 -30 39 -25 26 -29 36 -22 55 6 15 11 19 16 12 9 -15 51 -16 77 -2 11 6 19 21 19 35 0 29 -12 32 -30 9 -12 -13 -16 -12 -36 13 -13 15 -23 32 -24 37 0 5 -6 17 -14 25 -22 26 -38 83 -26 95 15 15 12 37 -7 58 -15 17 -15 20 7 43 13 14 34 25 47 25 27 0 27 1 11 35 -9 19 -19 25 -45 25 -36 0 -40 10 -23 54 8 21 6 26 -10 31 -11 4 -20 10 -20 15 0 4 -7 10 -15 14 -8 3 -15 2 -15 -2z"/> <path d="M8151 1099 c-23 -31 -27 -49 -11 -49 6 0 10 9 10 21 0 11 4 17 10 14 17 -10 94 -12 107 -3 7 6 20 4 33 -4 19 -11 24 -10 41 11 10 12 17 26 14 30 -2 4 -44 8 -94 8 -86 1 -90 0 -110 -28z"/> <path d="M670 1083 c-40 -33 -55 -62 -41 -76 8 -8 11 -6 11 6 0 28 41 57 81 57 31 0 38 -4 49 -30 15 -37 30 -39 30 -5 0 15 -7 28 -17 32 -10 4 -22 12 -28 19 -21 24 -55 23 -85 -3z"/> <path d="M5012 1088 c5 -15 48 -24 48 -10 0 10 -23 22 -42 22 -5 0 -8 -6 -6 -12z"/> <path d="M7641 1073 c0 -5 4 -17 9 -28 8 -18 9 -17 9 8 1 15 -3 27 -9 27 -5 0 -10 -3 -9 -7z"/> <path d="M5070 1055 c0 -8 11 -17 25 -21 14 -3 25 -13 25 -20 0 -21 41 -74 57 -74 7 0 13 9 13 20 0 11 7 20 15 20 8 0 20 -9 27 -20 7 -11 23 -20 36 -20 13 0 32 -10 41 -21 9 -12 30 -23 46 -24 16 -2 36 -13 44 -24 9 -11 30 -25 48 -32 18 -6 35 -19 38 -29 4 -12 18 -21 38 -24 40 -7 407 -21 427 -18 8 2 31 7 50 11 l35 9 -45 3 c-61 4 -105 6 -239 10 -81 2 -115 7 -118 16 -3 7 -13 13 -22 13 -9 0 -70 27 -136 59 -179 89 -250 121 -267 121 -9 0 -18 4 -20 8 -4 11 -86 52 -103 52 -8 0 -15 -7 -15 -15z"/> <path d="M8517 1054 c-13 -14 -7 -45 11 -50 9 -3 28 -11 41 -17 19 -9 25 -9 28 1 6 17 38 15 53 -3 10 -13 10 -19 -4 -33 -23 -26 -20 -53 8 -83 37 -40 66 -104 66 -147 0 -23 6 -45 15 -52 8 -7 15 -26 15 -42 0 -19 4 -28 13 -26 18 6 20 63 3 90 -8 13 -18 46 -21 73 -9 61 -20 82 -56 114 l-29 25 21 23 c15 15 20 29 15 45 -9 32 -69 68 -115 68 -20 0 -42 5 -47 10 -6 6 -13 7 -17 4z"/> <path d="M3508 1038 c-35 -12 -36 -26 -2 -34 28 -7 61 16 50 35 -8 13 -12 13 -48 -1z"/> <path d="M2445 1029 c-4 -6 -1 -15 6 -20 20 -13 54 -6 54 11 0 18 -50 26 -60 9z"/> <path d="M6564 1025 c-8 -21 4 -67 16 -60 13 8 13 75 0 75 -6 0 -13 -7 -16 -15z"/> <path d="M8390 1025 c-7 -9 -10 -28 -5 -52 10 -61 16 -66 57 -49 57 24 64 41 29 67 -17 13 -31 29 -31 36 0 18 -35 17 -50 -2z"/> <path d="M3625 1010 c-27 -11 -60 -20 -71 -20 -12 0 -24 -7 -28 -15 -3 -8 -16 -15 -29 -15 -14 0 -30 -7 -37 -15 -7 -8 -21 -15 -31 -15 -12 0 -19 -7 -19 -19 0 -31 17 -34 65 -12 25 12 65 30 90 42 25 11 45 25 45 30 0 5 6 9 13 9 7 0 28 11 47 25 40 30 24 31 -45 5z"/> <path d="M7284 1005 c-7 -18 3 -35 21 -35 21 0 28 19 15 35 -16 19 -29 19 -36 0z"/> <path d="M687 1003 c-12 -11 -7 -23 9 -23 13 0 15 -6 9 -32 -4 -18 -9 -60 -11 -93 -2 -33 -9 -97 -15 -143 -10 -75 -9 -85 7 -103 21 -24 33 -24 62 1 23 19 23 23 23 192 0 168 -1 173 -23 190 -24 18 -50 23 -61 11z"/> <path d="M2530 996 c0 -17 48 -76 61 -76 17 0 9 56 -11 73 -25 21 -50 22 -50 3z"/> <path d="M6922 1001 c4 -13 18 -16 19 -4 0 4 -5 9 -11 12 -7 2 -11 -2 -8 -8z"/> <path d="M8335 1005 c-5 -2 -22 -6 -37 -9 -25 -6 -28 -11 -28 -47 0 -27 -8 -51 -25 -73 l-24 -32 49 -39 c28 -22 50 -47 50 -56 0 -28 34 -79 51 -79 9 0 22 7 29 15 7 8 24 15 38 15 23 0 24 2 19 42 -4 31 -14 50 -40 72 -57 51 -78 94 -67 141 9 40 4 55 -15 50z m-15 -149 c0 -8 8 -17 18 -20 32 -10 72 -56 72 -82 l0 -26 -42 36 c-38 33 -77 106 -57 106 5 0 9 -6 9 -14z"/> <path d="M7383 985 c-9 -25 2 -27 22 -5 17 18 17 20 1 20 -9 0 -19 -7 -23 -15z"/> <path d="M3785 971 c-58 -8 -89 -25 -104 -58 -7 -14 -19 -23 -33 -23 -22 0 -44 -23 -60 -62 -10 -26 18 -23 32 2 9 17 14 18 30 8 15 -10 23 -9 39 6 12 11 21 28 21 38 0 10 10 32 22 49 21 28 27 30 72 27 33 -2 51 1 53 10 3 6 -1 11 -9 11 -7 -1 -35 -5 -63 -8z"/> <path d="M4820 967 c0 -7 5 -18 11 -24 6 -6 16 -27 23 -47 l13 -37 13 41 c12 36 11 42 -5 60 -20 22 -55 27 -55 7z"/> <path d="M7149 966 c16 -19 44 -21 39 -3 -3 6 -15 14 -28 15 -21 3 -22 2 -11 -12z"/> <path d="M8122 969 c2 -6 8 -10 13 -10 5 0 11 4 13 10 2 6 -4 11 -13 11 -9 0 -15 -5 -13 -11z"/> <path d="M2647 938 c-17 -29 -17 -33 -3 -44 9 -6 16 -14 16 -18 0 -8 16 -29 50 -65 14 -14 38 -45 53 -68 28 -41 28 -42 13 -87 -20 -57 -20 -62 -1 -46 22 19 40 2 20 -20 -24 -27 -11 -41 25 -28 17 5 37 7 46 4 10 -4 23 2 33 15 18 22 18 22 45 -27 23 -41 27 -57 22 -96 -4 -40 -2 -48 14 -53 11 -3 29 -1 41 5 17 9 23 9 29 0 6 -10 16 -7 39 9 17 12 31 27 31 32 0 12 -37 12 -45 -1 -4 -6 -11 -8 -16 -4 -6 4 -6 11 1 19 15 18 2 65 -19 65 -22 0 -41 19 -41 42 0 24 22 23 45 -2 21 -24 35 -26 35 -5 0 8 -9 19 -20 25 -11 6 -18 15 -15 21 4 5 3 19 0 30 -5 15 -10 18 -18 10 -6 -6 -14 -11 -19 -11 -10 0 -35 57 -43 98 -5 26 -3 33 12 38 10 3 25 9 33 13 22 11 130 12 130 1 0 -21 28 -9 34 14 12 46 -1 56 -71 56 -65 0 -92 -8 -128 -40 -26 -23 -92 -33 -98 -15 -3 7 -1 17 5 23 11 11 -8 48 -30 57 -27 10 -37 -10 -37 -75 0 -52 -3 -65 -17 -68 -13 -3 -17 8 -20 55 -2 32 0 69 4 83 14 39 2 67 -32 74 -90 18 -84 19 -103 -16z m108 -88 c0 -22 -29 -18 -33 3 -3 14 1 18 15 15 10 -2 18 -10 18 -18z m176 -167 c27 -14 30 -18 15 -21 -10 -2 -22 1 -26 7 -3 7 -14 9 -23 5 -12 -4 -17 -1 -17 10 0 20 9 20 51 -1z m-57 -55 c-9 -33 -12 -34 -29 -12 -21 27 -18 34 11 34 22 0 24 -3 18 -22z"/> <path d="M5097 963 c-4 -3 -7 -33 -7 -66 0 -33 -7 -80 -15 -106 -30 -98 -35 -129 -31 -206 5 -103 16 -158 33 -168 7 -4 13 -15 13 -23 0 -16 -28 -76 -40 -84 -4 -3 -10 -16 -13 -30 -3 -14 -9 -35 -12 -47 -5 -16 -3 -25 9 -29 17 -7 24 -4 74 26 32 20 33 20 70 0 45 -24 50 -25 74 -3 14 13 23 14 42 5 27 -12 36 -7 36 21 0 14 -4 17 -17 12 -10 -5 -27 -8 -38 -8 -11 -1 -23 -5 -26 -10 -13 -18 -39 2 -61 47 -18 38 -20 49 -10 71 14 31 51 34 59 5 8 -30 21 -24 39 18 31 72 34 93 19 126 -13 28 -13 36 3 81 l18 50 60 -2 c32 -1 82 -3 109 -4 28 -1 109 -1 180 0 72 1 150 -2 175 -7 32 -6 55 -4 75 4 17 7 42 13 58 14 15 0 35 9 44 20 22 25 33 25 33 1 0 -10 9 -29 19 -43 11 -13 24 -43 30 -66 12 -44 17 -48 41 -32 9 5 19 5 26 -1 12 -10 7 -56 -7 -65 -5 -3 -9 -19 -9 -35 0 -17 -6 -32 -15 -35 -22 -9 -18 -60 7 -94 12 -17 27 -30 32 -30 14 0 50 -39 59 -62 8 -23 24 -23 31 0 3 10 19 26 36 35 33 20 39 51 16 82 -13 18 -14 18 -21 -4 -11 -36 -39 -22 -43 22 -4 44 22 63 44 32 13 -17 14 -15 14 21 0 30 6 47 25 64 18 17 23 30 19 44 -8 25 -5 22 -30 30 -17 5 -24 0 -35 -25 -13 -32 -13 -32 -27 -11 -18 27 -32 28 -32 3 0 -45 -18 -26 -25 26 -6 46 -4 58 9 65 9 5 16 16 16 23 0 17 26 20 35 5 8 -12 35 -13 53 -1 11 7 7 19 -20 57 -19 27 -33 58 -31 69 3 14 -7 26 -35 42 l-38 21 -48 -35 c-28 -20 -56 -33 -66 -30 -13 3 -20 -2 -24 -20 -6 -21 -10 -23 -41 -17 -19 3 -43 3 -52 -1 -10 -4 -58 -9 -106 -11 -84 -3 -88 -3 -82 16 8 26 -20 27 -47 3 -16 -14 -47 -17 -219 -19 -159 -2 -201 0 -205 11 -9 22 -63 40 -77 26 -9 -9 -7 -13 10 -17 12 -3 24 -16 27 -27 9 -35 7 -85 -4 -92 -13 -8 -13 -62 0 -67 12 -4 -35 -118 -48 -118 -16 0 -21 12 -13 29 4 9 5 27 1 41 -6 21 -8 23 -15 8 -9 -22 -41 -23 -49 -2 -3 9 -6 33 -6 55 0 26 -5 42 -15 45 -24 10 -18 34 9 34 28 0 41 26 32 68 -14 63 -9 130 13 165 22 36 29 83 10 72 -19 -13 -59 4 -59 25 0 20 -11 26 -23 13z m1107 -320 c8 -21 -18 -43 -51 -43 -27 0 -30 21 -7 44 20 21 50 20 58 -1z m-1066 -206 c2 -12 -3 -17 -17 -17 -15 0 -21 6 -21 21 0 25 33 22 38 -4z m1092 -62 c0 -8 -4 -15 -10 -15 -5 0 -10 7 -10 15 0 8 5 15 10 15 6 0 10 -7 10 -15z"/> <path d="M7010 960 c0 -5 -8 -10 -19 -10 -19 0 -54 -57 -45 -72 10 -15 34 -8 34 10 0 10 13 29 30 42 33 28 37 40 15 40 -8 0 -15 -4 -15 -10z"/> <path d="M4498 953 c-39 -6 -81 -49 -74 -76 3 -12 6 -32 6 -44 0 -26 25 -31 34 -7 3 9 6 33 6 55 0 29 3 37 14 33 19 -7 56 13 56 31 0 8 -3 14 -7 14 -5 -1 -20 -4 -35 -6z"/> <path d="M7075 950 c-11 -17 5 -32 21 -19 7 6 11 15 8 20 -7 12 -21 11 -29 -1z"/> <path d="M7605 949 c-10 -15 4 -98 21 -131 19 -37 17 -58 -7 -87 -18 -22 -23 -23 -41 -12 -25 15 -148 24 -148 11 0 -6 21 -10 46 -10 38 0 45 -3 42 -17 -2 -10 -12 -18 -24 -18 -11 0 -27 -5 -35 -12 -9 -7 -20 -8 -29 -3 -16 10 -48 -26 -59 -68 -4 -15 -16 -29 -27 -31 -23 -4 -34 -19 -34 -48 0 -15 -10 -28 -30 -38 -39 -20 -43 -65 -6 -65 13 0 27 7 30 16 4 11 14 15 32 11 20 -3 28 1 40 24 8 16 26 32 39 35 20 5 24 11 19 26 -7 23 21 58 46 58 10 0 23 6 29 14 7 8 22 17 35 20 13 3 35 24 50 46 18 28 33 40 49 40 32 0 38 8 24 31 -10 16 -9 25 5 48 15 28 15 31 -8 65 -13 19 -24 44 -24 55 0 42 -20 65 -35 40z"/> <path d="M8038 953 c-32 -5 -34 -10 -12 -34 14 -16 14 -21 1 -47 -12 -26 -13 -32 -1 -44 8 -8 16 -36 18 -64 3 -31 9 -50 18 -50 34 -4 57 -18 60 -35 4 -26 22 -25 26 0 2 12 -8 32 -22 46 -14 14 -26 37 -26 51 0 18 -7 28 -20 31 -13 4 -19 11 -16 22 11 37 18 131 10 130 -5 -1 -21 -4 -36 -6z"/> <path d="M5830 941 c0 -15 104 -81 127 -81 12 0 25 -4 28 -10 3 -5 13 -10 21 -10 27 0 -9 39 -71 76 -53 32 -105 45 -105 25z"/> <path d="M6883 933 c-14 -5 -18 -33 -5 -33 4 0 13 9 20 20 12 20 8 23 -15 13z"/> <path d="M7205 920 c-19 -7 -19 -7 2 -18 28 -15 33 -15 33 2 0 20 -11 25 -35 16z"/> <path d="M3986 897 c-25 -20 -26 -24 -12 -36 13 -11 20 -9 45 17 45 44 19 60 -33 19z"/> <path d="M6520 905 c-7 -8 -19 -15 -26 -15 -9 0 -14 -11 -14 -27 1 -27 1 -27 15 -9 8 11 15 23 15 28 0 15 27 8 45 -12 14 -15 21 -17 32 -9 19 16 16 29 -6 29 -10 0 -21 7 -25 15 -3 8 -9 15 -14 15 -5 0 -15 -7 -22 -15z"/> <path d="M6642 911 c-21 -13 96 -50 140 -44 32 4 38 2 51 -22 11 -22 15 -24 20 -12 3 9 -2 26 -12 39 -15 18 -28 22 -64 20 -29 -1 -49 4 -57 13 -13 16 -57 20 -78 6z"/> <path d="M8502 882 c-17 -12 2 -62 23 -62 12 0 15 8 13 32 -3 33 -15 43 -36 30z"/> <path d="M4874 836 c-3 -9 4 -30 17 -47 l22 -32 9 23 c11 29 5 46 -22 60 -16 9 -21 8 -26 -4z"/> <path d="M5250 810 c0 -25 4 -39 10 -35 6 3 10 19 10 35 0 16 -4 32 -10 35 -6 4 -10 -10 -10 -35z"/> <path d="M1580 813 c0 -18 -11 -36 -32 -54 -30 -25 -32 -29 -20 -49 8 -13 10 -26 5 -31 -11 -11 -4 -89 8 -89 5 0 9 4 9 9 0 5 14 14 31 21 32 14 34 24 14 88 -6 19 -3 24 14 29 27 7 28 49 2 81 -25 29 -31 28 -31 -5z"/> <path d="M4080 805 c0 -22 4 -34 10 -30 6 3 10 17 10 30 0 13 -4 27 -10 30 -6 4 -10 -8 -10 -30z"/> <path d="M4725 826 c-13 -9 -18 -25 -17 -51 1 -21 -6 -53 -15 -72 -12 -26 -13 -37 -4 -46 16 -16 14 -79 -4 -113 -8 -16 -15 -45 -15 -65 0 -23 -7 -42 -20 -54 -13 -11 -18 -25 -14 -34 24 -59 31 -109 18 -132 -7 -13 -13 -36 -14 -50 0 -15 -7 -32 -15 -39 -8 -7 -15 -21 -15 -31 0 -10 -4 -21 -10 -24 -5 -3 -10 -13 -10 -21 0 -11 7 -9 30 8 29 21 31 21 59 5 38 -22 51 -21 51 4 0 11 5 30 11 41 10 19 9 20 -7 13 -46 -18 -54 -18 -54 4 0 11 4 21 10 21 12 0 30 65 30 110 0 19 -9 50 -20 68 -18 30 -19 35 -5 48 8 9 15 31 15 51 l0 36 26 -27 c15 -14 31 -26 35 -26 5 0 9 23 9 50 0 28 7 64 15 80 9 17 12 30 7 30 -11 0 -42 55 -42 75 0 10 -8 24 -17 31 -17 12 -17 14 0 42 30 52 19 95 -18 68z"/> <path d="M8140 820 c-12 -8 -11 -10 7 -10 12 0 28 -3 37 -6 11 -4 16 -1 16 10 0 18 -36 22 -60 6z"/> <path d="M3920 811 c0 -5 -19 -18 -42 -30 -24 -12 -59 -33 -78 -47 -33 -24 -50 -26 -100 -13 -10 3 -16 -5 -18 -26 -4 -39 -26 -55 -74 -55 -31 0 -38 4 -38 20 0 11 5 20 10 20 14 0 13 33 -2 48 -17 17 -48 15 -48 -3 0 -18 -40 -20 -40 -2 -1 18 -38 -34 -45 -63 -4 -14 -12 -32 -19 -40 -25 -30 -38 -94 -29 -141 9 -44 9 -44 52 -45 35 0 44 4 51 21 4 12 24 33 44 49 46 35 46 53 0 58 -27 3 -39 0 -49 -16 -13 -18 -15 -18 -21 -2 -4 11 3 27 22 47 30 31 64 39 64 14 0 -23 53 -19 68 5 7 11 18 20 25 20 8 0 24 11 37 25 25 27 49 32 68 13 9 -9 18 -9 37 0 14 7 33 12 42 12 9 0 34 15 57 34 23 18 43 33 46 33 3 0 16 6 30 13 14 8 33 13 43 11 10 -1 17 4 17 13 0 12 -10 16 -40 16 -29 0 -40 -4 -40 -15 0 -18 -16 -20 -26 -3 -4 6 -2 14 4 16 15 5 16 22 2 22 -5 0 -10 -4 -10 -9z m-482 -283 c-2 -13 -7 -23 -13 -23 -5 0 -11 10 -13 23 -2 15 2 22 13 22 11 0 15 -7 13 -22z"/> <path d="M4473 795 c-17 -14 -38 -24 -45 -23 -8 2 -13 -7 -13 -27 0 -28 2 -30 33 -27 41 4 52 -20 29 -60 -21 -36 -21 -84 -2 -118 20 -36 19 -173 -1 -231 -20 -55 -14 -82 18 -77 21 3 23 9 26 80 3 76 4 78 41 110 41 36 59 81 40 104 -6 8 -15 11 -20 8 -5 -3 -18 0 -29 6 -22 12 -26 40 -9 57 15 15 3 33 -22 33 -19 0 -27 15 -10 22 13 4 19 168 6 168 -5 0 -24 -12 -42 -25z"/> <path d="M2021 795 c-26 -12 -37 -12 -48 -4 -10 9 -17 8 -31 -4 -15 -13 -19 -13 -30 -1 -22 24 -85 18 -112 -11 -30 -32 -21 -40 25 -24 34 13 38 12 56 -11 18 -23 20 -24 30 -7 5 9 14 17 19 17 11 0 40 -58 40 -80 0 -9 3 -20 6 -23 10 -10 44 12 44 28 0 8 6 15 13 15 27 0 59 46 55 81 -4 39 -19 45 -67 24z"/> <path d="M6768 777 c-15 -12 -41 -32 -58 -45 -32 -25 -39 -49 -16 -58 22 -8 54 13 58 38 2 15 11 24 26 26 19 3 22 -1 22 -27 0 -17 -4 -31 -8 -31 -5 0 -14 -12 -21 -26 -8 -19 -17 -25 -31 -21 -16 4 -20 0 -20 -19 0 -13 5 -24 10 -24 6 0 10 -15 10 -32 0 -18 7 -46 15 -62 22 -42 19 -51 -32 -101 -52 -49 -61 -53 -69 -30 -17 42 -71 -4 -60 -50 4 -15 -2 -32 -15 -49 -12 -15 -20 -29 -17 -31 5 -5 83 -7 128 -3 19 2 46 11 60 21 13 9 37 17 52 17 16 0 28 5 28 10 0 6 15 9 33 8 23 -2 32 1 32 12 0 22 -61 25 -92 5 -21 -14 -27 -15 -34 -4 -14 22 -11 27 21 44 17 9 30 22 30 30 0 8 7 15 15 15 8 0 15 5 15 10 0 13 -13 13 -26 0 -7 -7 -16 -4 -28 9 -16 18 -15 20 15 50 l32 32 -23 24 -22 23 28 14 c16 8 37 13 47 10 16 -3 17 -1 7 18 -10 18 -8 26 11 46 18 19 33 24 71 24 26 0 48 -4 48 -9 0 -5 3 -17 6 -25 5 -12 -2 -19 -25 -27 -36 -13 -36 -12 -15 -44 15 -23 15 -27 0 -51 -15 -21 -15 -31 -5 -61 10 -31 9 -37 -5 -45 -18 -10 -22 -38 -5 -38 7 0 17 8 24 17 11 15 13 15 19 -5 4 -12 14 -22 22 -22 19 0 18 37 -2 48 -12 7 -15 18 -12 37 3 15 2 41 -3 58 -11 37 5 71 31 64 34 -9 42 6 30 58 -13 60 -25 75 -57 75 -41 0 -81 27 -85 57 -3 24 -8 28 -33 28 -25 0 -30 -4 -30 -25 0 -43 -29 -31 -35 15 -6 47 -24 54 -62 22z"/> <path d="M3237 766 c-12 -13 -31 -25 -42 -27 -14 -3 -20 -12 -20 -29 0 -22 5 -25 39 -28 21 -2 43 1 49 7 24 24 35 12 30 -31 -4 -35 -16 -53 -56 -96 -46 -46 -55 -51 -83 -46 l-31 6 7 -49 c10 -65 20 -89 31 -71 5 7 9 23 9 35 0 27 17 38 35 23 16 -13 35 -5 35 15 0 7 7 16 15 19 9 3 23 22 31 41 8 19 21 35 29 35 8 0 15 7 15 16 0 9 11 29 25 46 14 16 25 35 25 42 0 15 -29 58 -52 74 -10 7 -18 20 -18 28 0 23 -49 17 -73 -10z"/> <path d="M2484 766 c-3 -9 0 -23 7 -32 18 -21 -6 -36 -38 -23 -14 5 -25 9 -27 9 -1 0 -17 -13 -34 -28 -31 -28 -32 -31 -26 -89 5 -49 3 -67 -12 -92 -18 -31 -18 -31 8 -58 55 -59 38 -171 -35 -235 -23 -20 -39 -39 -36 -43 4 -3 38 -9 76 -13 l69 -8 17 41 c27 66 31 95 16 122 -12 22 -11 26 3 34 32 18 46 39 41 59 -8 29 -21 34 -39 16 -24 -25 -41 -19 -54 19 -14 43 -7 55 30 55 16 0 32 5 35 10 11 18 27 11 22 -10 -4 -15 0 -20 14 -20 10 0 19 5 19 12 0 6 7 19 16 29 19 21 23 115 6 146 l-12 22 -25 -23 c-16 -15 -24 -32 -23 -47 2 -19 -2 -25 -21 -27 -15 -2 -28 3 -33 12 -5 9 -18 16 -28 16 -11 0 -20 4 -20 8 0 16 36 42 58 42 11 0 33 11 49 24 24 21 26 27 18 52 -12 32 -32 42 -41 20z m-68 -207 c10 -17 -13 -36 -27 -22 -12 12 -4 33 11 33 5 0 12 -5 16 -11z"/> <path d="M4615 728 c-5 -18 -8 -43 -6 -55 1 -12 -3 -24 -9 -28 -16 -10 -12 -25 8 -25 16 0 19 10 20 70 1 39 0 70 -2 70 -2 0 -7 -15 -11 -32z"/> <path d="M7020 752 c0 -16 36 -42 58 -42 12 0 22 -5 22 -12 0 -6 7 -19 16 -29 24 -26 21 -90 -5 -107 -13 -9 -21 -25 -21 -44 0 -25 4 -29 23 -26 14 2 23 11 25 25 2 12 10 27 18 33 8 7 14 23 14 35 0 12 9 29 20 36 20 14 20 15 -17 61 -21 25 -53 53 -71 62 -35 17 -82 21 -82 8z"/> <path d="M978 736 c-10 -7 -18 -24 -18 -37 1 -23 1 -23 12 -4 6 11 16 23 21 26 5 4 8 11 6 17 -3 7 -10 6 -21 -2z"/> <path d="M8246 743 c-12 -12 -6 -33 9 -33 8 0 15 6 15 14 0 17 -14 28 -24 19z"/> <path d="M4070 717 c0 -21 12 -28 27 -16 19 16 16 29 -7 29 -11 0 -20 -6 -20 -13z"/> <path d="M1794 706 c-7 -18 -45 -21 -61 -5 -18 18 -33 0 -33 -41 0 -32 -6 -43 -37 -67 -28 -21 -50 -30 -82 -31 -24 0 -45 -3 -48 -6 -3 -2 -7 -23 -10 -46 -5 -37 -4 -42 13 -38 11 2 20 13 22 26 5 36 27 25 41 -22 7 -25 19 -47 27 -50 21 -8 17 -37 -6 -43 -14 -4 -20 -14 -20 -34 0 -15 -5 -31 -10 -34 -21 -13 1 -24 25 -13 19 9 25 19 25 44 0 23 5 34 19 39 19 6 19 7 3 35 -16 28 -16 29 26 79 23 27 42 59 42 70 0 20 41 42 47 25 15 -42 53 -42 53 0 0 15 7 25 20 29 27 7 25 39 -2 64 -36 32 -48 36 -54 19z"/> <path d="M2731 693 c-1 -17 4 -35 9 -38 11 -7 11 9 0 45 -8 24 -8 24 -9 -7z"/> <path d="M4143 713 c-7 -2 -13 -18 -13 -34 0 -36 32 -47 85 -29 67 22 54 71 -19 69 -22 0 -47 -3 -53 -6z"/> <path d="M8498 702 c-35 -21 -38 -72 -7 -103 14 -14 20 -31 18 -54 -2 -19 0 -37 4 -42 14 -14 26 21 21 62 -3 22 -1 46 5 54 14 22 38 6 46 -31 3 -18 11 -47 16 -65 9 -29 12 -31 41 -22 39 11 46 5 83 -66 19 -35 36 -55 47 -55 10 0 18 6 18 14 0 15 -37 67 -57 79 -16 10 -17 79 -1 95 15 15 6 24 -15 16 -9 -3 -20 -19 -26 -35 -9 -26 -13 -29 -31 -19 -24 13 -25 17 -5 37 8 8 13 19 10 24 -3 5 -1 17 4 27 15 28 -25 63 -69 60 -25 -2 -37 3 -48 20 -17 26 -18 26 -54 4z"/> <path d="M834 679 c-3 -6 -1 -16 5 -22 9 -9 14 -8 21 3 9 15 4 30 -10 30 -5 0 -12 -5 -16 -11z"/> <path d="M3921 676 c-8 -10 -9 -16 -1 -21 13 -8 30 3 30 21 0 18 -14 18 -29 0z"/> <path d="M4915 668 c-4 -9 -5 -29 -3 -45 l4 -28 13 26 c10 19 10 32 3 45 -10 17 -11 17 -17 2z"/> <path d="M8250 653 c0 -25 1 -26 16 -11 9 9 13 21 10 27 -13 20 -26 11 -26 -16z"/> <path d="M6556 653 c-4 -4 -17 -8 -29 -8 -12 0 -22 -6 -22 -13 0 -17 69 -42 85 -32 7 4 21 5 31 3 25 -7 26 25 2 43 -20 15 -55 18 -67 7z"/> <path d="M4023 620 c-24 -10 -30 -25 -14 -34 4 -3 7 -16 4 -28 -2 -13 1 -30 6 -38 9 -13 12 -12 25 5 11 15 12 23 3 34 -9 10 -7 16 6 26 20 14 23 45 5 44 -7 0 -23 -4 -35 -9z"/> <path d="M2133 585 c0 -22 2 -30 4 -17 2 12 2 30 0 40 -3 9 -5 -1 -4 -23z"/> <path d="M3690 602 c0 -18 25 -25 48 -13 17 9 23 6 37 -15 13 -21 22 -24 43 -19 29 7 42 21 42 46 0 13 -14 15 -85 15 -62 -1 -85 -4 -85 -14z"/> <path d="M6920 605 c0 -8 5 -15 10 -15 6 0 10 7 10 15 0 8 -4 15 -10 15 -5 0 -10 -7 -10 -15z"/> <path d="M400 579 c0 -50 12 -64 39 -47 24 14 19 18 71 -52 16 -22 21 -23 37 -12 10 7 30 18 45 24 15 7 29 20 31 30 4 15 -1 18 -27 18 -18 0 -38 -6 -45 -12 -10 -11 -16 -8 -32 11 -10 13 -19 32 -19 42 0 14 -7 19 -27 19 -16 0 -38 3 -50 6 -21 6 -23 3 -23 -27z"/> <path d="M6396 591 c-19 -21 -19 -52 0 -58 18 -6 45 27 42 50 -4 28 -21 31 -42 8z"/> <path d="M8100 591 c0 -45 88 -47 118 -3 13 20 13 22 -3 22 -10 0 -27 -8 -37 -17 -18 -16 -21 -16 -49 -1 -27 16 -29 16 -29 -1z"/> <path d="M8360 591 c23 -43 -3 -92 -33 -62 -6 6 -16 11 -22 11 -15 0 -55 -38 -55 -52 0 -9 3 -9 12 0 14 14 77 16 97 3 14 -9 11 -22 -11 -53 -9 -13 -9 -20 1 -32 16 -19 31 -12 31 14 0 35 21 32 56 -7 33 -37 34 -37 49 -19 16 22 20 21 29 -10 4 -15 2 -24 -9 -28 -22 -8 -18 -31 8 -44 40 -21 97 -19 97 3 0 17 30 35 59 35 13 0 21 -9 26 -30 4 -16 13 -30 21 -30 8 0 14 -4 14 -10 0 -5 8 -10 17 -10 15 0 14 3 -3 23 -11 12 -33 41 -48 64 -29 43 -80 71 -92 51 -4 -6 -7 -28 -7 -50 0 -24 -4 -37 -11 -35 -6 2 -11 10 -12 18 0 8 -5 23 -9 33 -6 13 -3 29 8 48 9 17 17 34 17 39 0 18 -40 8 -64 -16 -20 -19 -30 -23 -48 -16 -29 10 -37 59 -13 77 15 11 15 13 -4 19 -11 3 -35 24 -53 46 -34 41 -67 55 -48 20z"/> <path d="M298 554 c-21 -26 -38 -51 -38 -55 0 -5 -13 -22 -30 -37 -30 -29 -39 -65 -19 -77 13 -9 59 33 59 54 0 9 9 27 19 40 l19 24 11 -22 12 -22 26 27 c20 22 23 31 14 48 -5 12 -11 30 -13 40 -5 33 -22 28 -60 -20z"/> <path d="M3957 566 c-6 -15 1 -26 15 -26 4 0 8 9 8 20 0 23 -15 27 -23 6z"/> <path d="M7665 570 c-8 -13 15 -13 35 0 12 8 11 10 -7 10 -12 0 -25 -4 -28 -10z"/> <path d="M5525 532 c-38 -21 -57 -41 -78 -80 -30 -55 -29 -72 4 -72 14 0 25 10 32 30 7 19 17 28 25 25 8 -3 31 -5 53 -5 28 0 39 -4 39 -15 0 -19 31 -35 68 -35 37 0 48 -13 57 -70 12 -67 23 -25 24 85 1 105 -9 120 -93 148 -65 22 -72 21 -131 -11z"/> <path d="M3900 520 c0 -28 2 -30 20 -20 24 13 24 17 6 36 -21 21 -26 18 -26 -16z"/> <path d="M4851 533 c-13 -27 -2 -123 15 -123 9 0 14 12 14 33 0 18 5 38 10 43 7 7 8 19 1 37 -12 31 -26 34 -40 10z"/> <path d="M5929 527 c-35 -30 -73 -145 -65 -192 7 -35 19 -44 31 -25 8 13 75 13 75 0 0 -16 17 -12 24 6 4 9 2 13 -5 8 -14 -8 -29 14 -29 44 0 21 4 23 28 17 26 -5 31 -2 55 45 35 68 36 93 2 84 -18 -4 -25 -2 -25 9 0 33 -55 36 -91 4z"/> <path d="M1876 500 c-31 -31 -24 -43 22 -34 19 4 32 14 36 27 11 45 -15 48 -58 7z"/> <path d="M2757 523 c-4 -3 -7 -22 -7 -41 0 -34 -26 -102 -39 -102 -4 0 -22 -20 -40 -45 -23 -32 -39 -45 -57 -45 -21 0 -24 -5 -24 -34 0 -18 -7 -39 -15 -46 -24 -20 -14 -53 18 -64 33 -12 76 1 91 29 6 11 17 25 25 31 8 6 11 16 6 23 -4 8 4 24 20 41 22 23 34 28 56 23 35 -7 50 19 25 46 -18 20 -21 57 -6 66 12 7 7 29 -18 88 -16 37 -23 43 -35 30z m-97 -314 c0 -5 -7 -9 -15 -9 -15 0 -20 12 -9 23 8 8 24 -1 24 -14z"/> <path d="M8122 510 c-10 -16 -16 -18 -31 -10 -14 7 -22 6 -31 -5 -7 -8 -22 -15 -35 -15 -12 0 -37 -14 -56 -31 -75 -68 -73 -67 -92 -55 -15 9 -24 5 -50 -25 -18 -21 -46 -44 -64 -53 -42 -21 -63 -53 -63 -97 0 -44 7 -51 31 -36 13 8 21 9 30 0 7 -7 20 -8 42 0 18 5 38 11 45 13 7 2 12 19 12 40 0 31 2 35 15 24 8 -7 21 -10 30 -7 9 4 22 -5 35 -23 28 -39 75 -43 68 -6 -7 34 9 57 22 34 6 -9 16 -15 24 -12 7 3 34 0 60 -6 30 -7 53 -7 65 -1 12 7 22 6 30 -2 10 -9 15 -8 25 6 17 22 28 22 58 -2 16 -13 29 -17 38 -11 8 5 19 5 26 -1 7 -6 23 -3 43 7 26 13 38 14 58 5 28 -13 43 -7 25 11 -6 6 -8 24 -5 39 6 33 -2 36 -29 13 -15 -14 -20 -15 -34 -4 -13 12 -17 11 -25 -1 -5 -8 -9 -19 -9 -26 0 -14 -36 -27 -50 -18 -6 4 -17 21 -24 39 -11 27 -21 34 -49 38 -30 3 -33 2 -24 -13 11 -18 3 -49 -13 -49 -5 0 -10 9 -10 20 0 26 -38 47 -46 25 -4 -8 -1 -22 6 -30 10 -12 9 -15 -5 -15 -9 0 -31 16 -48 35 -17 19 -35 35 -41 35 -6 0 -5 -5 2 -12 22 -22 13 -26 -45 -23 -38 3 -63 -1 -77 -11 -49 -34 -73 1 -29 44 19 20 47 33 92 43 57 12 65 17 85 51 18 33 25 37 48 33 37 -9 44 12 13 41 -14 13 -27 24 -28 24 -1 0 -8 -9 -15 -20z m-332 -295 c10 -12 10 -15 -4 -15 -9 0 -16 7 -16 15 0 8 2 15 4 15 2 0 9 -7 16 -15z"/> <path d="M1380 500 c0 -11 4 -20 9 -20 5 0 13 -9 16 -20 4 -11 11 -18 16 -15 15 10 10 35 -6 35 -8 0 -15 9 -15 20 0 11 -4 20 -10 20 -5 0 -10 -9 -10 -20z"/> <path d="M2840 499 c0 -24 23 -21 28 4 2 10 -3 17 -12 17 -10 0 -16 -9 -16 -21z"/> <path d="M7160 485 c0 -18 7 -26 25 -31 35 -9 39 -2 14 29 -26 34 -39 34 -39 2z"/> <path d="M3737 493 c-4 -3 -7 -16 -8 -27 0 -12 -3 -15 -6 -8 -7 17 -43 15 -43 -3 0 -8 9 -19 21 -26 16 -8 20 -17 16 -37 -3 -16 3 -39 18 -62 13 -21 25 -61 30 -98 4 -34 11 -65 16 -68 6 -3 21 2 34 10 25 17 34 59 15 71 -5 3 -10 15 -10 26 0 10 -11 29 -25 41 -17 15 -25 32 -25 55 0 23 8 42 25 59 14 14 25 36 25 49 0 22 -4 25 -38 25 -21 0 -42 -3 -45 -7z"/> <path d="M6427 493 c-13 -12 -7 -33 8 -33 8 0 15 9 15 20 0 20 -11 26 -23 13z"/> <path d="M1240 450 l-21 -30 25 -56 c33 -71 32 -75 -3 -68 -33 7 -47 -14 -27 -41 12 -17 14 -17 39 0 24 16 47 14 47 -4 0 -4 -11 -13 -25 -19 -34 -16 -22 -37 20 -38 43 -1 47 11 49 130 0 44 5 87 10 94 11 18 0 28 -16 15 -19 -16 -58 2 -58 27 0 29 -15 25 -40 -10z"/> <path d="M1965 465 c-29 -14 -29 -15 -7 -21 24 -7 29 -23 11 -41 -6 -6 -9 -26 -7 -44 3 -33 4 -34 45 -32 34 1 43 -2 48 -18 6 -18 28 -23 26 -6 -1 4 -1 13 -1 21 0 7 -9 16 -19 19 -16 4 -18 11 -14 49 6 51 -9 88 -35 87 -9 0 -30 -7 -47 -14z"/> <path d="M6875 470 c-3 -5 1 -13 10 -16 22 -9 29 1 11 15 -10 8 -16 9 -21 1z"/> <path d="M782 458 c-13 -13 -16 -38 -4 -38 18 0 62 26 59 35 -5 15 -41 17 -55 3z"/> <path d="M1744 449 c-19 -22 -19 -22 1 -14 11 4 28 7 38 7 10 -1 16 5 14 11 -7 21 -32 19 -53 -4z"/> <path d="M7108 433 c-3 -21 -4 -40 -2 -42 2 -2 23 -6 49 -8 34 -4 45 -2 45 8 -1 21 -42 66 -66 73 -19 6 -22 2 -26 -31z"/> <path d="M2589 440 l-24 -19 28 -1 c20 0 27 5 27 20 0 25 -2 25 -31 0z"/> <path d="M2865 420 c-18 -20 -18 -21 3 -42 l21 -22 10 26 c5 14 15 28 22 30 18 6 2 28 -20 28 -10 0 -26 -9 -36 -20z"/> <path d="M3532 400 c-18 -19 -32 -38 -32 -42 0 -5 -6 -8 -14 -8 -8 0 -16 12 -18 27 -2 21 -10 29 -37 36 -21 5 -43 5 -55 -1 -12 -6 -28 -12 -36 -15 -16 -5 -77 -183 -67 -194 15 -14 36 9 42 47 4 23 13 44 21 47 8 3 14 18 14 33 0 63 9 65 61 14 42 -41 46 -50 38 -71 -9 -26 -5 -43 12 -43 5 0 9 11 9 25 0 26 14 33 26 13 4 -6 7 -31 6 -55 0 -31 4 -43 14 -43 8 0 14 10 14 24 0 14 5 37 10 51 6 16 6 33 1 43 -6 12 -3 35 10 72 25 71 20 83 -19 40z"/> <path d="M4725 413 c-4 -12 1 -23 14 -32 12 -7 21 -18 21 -24 0 -6 8 -19 17 -29 9 -11 17 -31 18 -46 0 -20 6 -28 23 -30 16 -3 22 2 22 16 0 11 7 22 15 26 23 8 18 21 -12 36 -40 20 -74 51 -84 78 -10 26 -24 29 -34 5z"/> <path d="M2125 401 c-10 -17 12 -21 25 -6 10 12 10 15 -3 15 -9 0 -18 -4 -22 -9z"/> <path d="M2210 396 c0 -21 21 -31 31 -15 14 22 11 29 -11 29 -11 0 -20 -6 -20 -14z"/> <path d="M4171 401 c-11 -7 -9 -11 8 -21 17 -9 26 -9 37 0 27 23 -12 42 -45 21z"/> <path d="M4893 394 c11 -4 17 -15 17 -34 0 -16 5 -32 11 -35 7 -5 9 6 7 31 -3 33 -7 39 -28 41 -14 1 -18 0 -7 -3z"/> <path d="M590 375 c0 -8 4 -15 9 -15 5 0 11 7 15 15 3 9 0 15 -9 15 -8 0 -15 -7 -15 -15z"/> <path d="M4850 370 c0 -13 5 -20 13 -17 6 2 12 10 12 17 0 7 -6 15 -12 18 -8 2 -13 -5 -13 -18z"/> <path d="M7378 370 c-2 -20 -9 -25 -33 -25 -27 0 -30 -3 -30 -30 0 -22 7 -33 26 -42 15 -7 32 -26 39 -43 9 -23 19 -30 40 -30 14 0 29 -3 33 -6 11 -11 -5 -34 -23 -34 -10 0 -23 -7 -30 -15 -7 -9 -21 -13 -31 -10 -22 7 -24 -3 -5 -27 17 -23 20 -23 51 6 31 29 84 39 106 20 25 -22 29 -17 29 35 0 31 5 53 15 61 21 17 12 26 -56 60 -32 17 -59 35 -59 40 0 6 -6 10 -14 10 -8 0 -23 12 -34 27 l-20 27 -4 -24z"/> <path d="M4073 365 c-3 -9 -3 -19 1 -22 7 -8 56 17 56 29 0 15 -50 8 -57 -7z"/> <path d="M1917 364 c-10 -11 -8 -44 2 -44 6 0 13 4 16 10 8 12 -9 43 -18 34z"/> <path d="M6365 359 c-4 -6 -1 -10 6 -8 28 3 39 -1 39 -16 0 -9 -9 -15 -25 -15 -19 0 -26 -7 -33 -32 -9 -34 0 -68 19 -68 19 0 49 21 49 34 0 8 17 16 43 20 64 10 73 19 51 50 -11 14 -29 26 -41 26 -12 0 -25 5 -28 10 -8 13 -72 13 -80 -1z"/> <path d="M3870 347 c0 -9 7 -35 16 -57 9 -22 14 -47 10 -55 -3 -9 0 -15 8 -15 23 0 15 90 -11 119 -18 19 -23 20 -23 8z"/> <path d="M739 326 c-9 -19 -9 -30 -2 -37 8 -8 5 -27 -8 -65 -10 -29 -19 -62 -19 -73 0 -27 20 -38 32 -17 5 9 15 16 22 16 9 0 14 12 14 35 0 19 3 56 7 82 5 41 3 52 -14 67 -20 18 -21 18 -32 -8z"/> <path d="M3205 341 c-8 -15 3 -31 21 -31 9 0 14 7 12 17 -4 20 -24 28 -33 14z"/> <path d="M3972 341 c-11 -7 -10 -10 3 -15 19 -7 35 0 35 15 0 11 -20 12 -38 0z"/> <path d="M1820 315 c-7 -8 -18 -15 -24 -15 -6 0 -30 -13 -52 -28 -39 -26 -40 -29 -23 -40 22 -14 26 -57 6 -65 -7 -2 -26 6 -42 20 -24 21 -27 28 -17 44 10 15 9 19 -2 19 -8 0 -16 -7 -20 -15 -3 -8 -12 -15 -21 -15 -23 0 -18 -18 10 -36 64 -42 49 -111 -15 -71 -17 10 -22 9 -30 -3 -12 -19 -3 -30 26 -30 24 0 32 -14 14 -25 -13 -8 -13 -25 -1 -25 6 0 27 16 48 35 21 19 48 35 61 35 15 0 22 6 22 20 0 10 6 31 12 46 10 22 10 28 0 32 -6 2 -12 8 -12 13 0 16 20 10 48 -16 29 -27 40 -28 56 -2 8 12 7 22 -2 37 -10 17 -10 21 3 26 18 7 19 33 1 57 -16 21 -30 22 -46 2z"/> <path d="M1125 290 c-7 -31 -20 -40 -27 -18 -6 17 -28 0 -28 -23 0 -15 7 -19 38 -19 32 0 41 5 51 26 13 30 6 64 -14 64 -7 0 -16 -13 -20 -30z"/> <path d="M645 288 c-2 -7 -5 -22 -7 -33 -2 -12 -15 -23 -33 -29 -17 -5 -39 -12 -50 -16 -11 -5 -28 -11 -38 -14 -17 -5 -16 -8 4 -36 28 -37 56 -39 71 -5 8 19 16 24 30 19 32 -10 73 57 62 102 -6 25 -32 33 -39 12z"/> <path d="M3046 265 c-11 -16 -12 -25 -5 -25 12 0 38 29 39 43 0 16 -18 6 -34 -18z"/> <path d="M2935 264 c-17 -13 -18 -16 -5 -24 24 -16 55 -7 55 15 0 25 -24 29 -50 9z"/> <path d="M4135 268 c-9 -22 4 -43 17 -30 7 7 7 16 0 29 -10 17 -11 17 -17 1z"/> <path d="M6008 263 c-31 -16 -33 -22 -15 -46 11 -15 15 -14 40 9 17 14 27 31 23 39 -6 18 -12 18 -48 -2z"/> <path d="M2090 260 c0 -5 -10 -14 -21 -21 -18 -9 -24 -8 -31 5 -11 20 -42 21 -62 1 -8 -8 -24 -15 -35 -15 -29 0 -44 -32 -30 -67 l10 -28 20 25 c14 17 22 21 26 12 8 -21 35 -43 47 -39 6 2 13 17 16 33 5 25 10 29 34 27 16 -1 36 -9 46 -18 16 -14 19 -14 34 9 21 34 20 63 -3 76 -25 13 -51 13 -51 0z"/> <path d="M4075 260 c-4 -6 -3 -16 3 -22 6 -6 12 -6 17 2 4 6 3 16 -3 22 -6 6 -12 6 -17 -2z"/> <path d="M5406 230 c-20 -31 -32 -40 -46 -35 -10 3 -22 0 -27 -7 -4 -8 -20 -21 -35 -31 -27 -17 -38 -54 -21 -70 8 -9 53 32 53 49 0 14 43 44 63 44 19 0 78 61 74 75 -8 24 -36 13 -61 -25z"/> <path d="M5788 263 c-41 -6 -37 -38 5 -52 41 -14 67 -6 67 20 0 15 -31 43 -42 38 -2 -1 -15 -4 -30 -6z"/> <path d="M3588 210 c-1 -28 0 -50 3 -50 13 0 31 59 24 79 -11 36 -23 23 -27 -29z"/> <path d="M5508 243 c-18 -11 -28 -26 -28 -42 0 -13 -8 -30 -17 -37 -17 -12 -17 -13 -1 -14 18 0 48 25 48 41 0 16 52 10 66 -8 13 -17 15 -17 31 4 13 16 31 23 63 25 37 2 45 6 45 23 0 18 -6 20 -55 18 -30 -1 -62 -3 -70 -4 -8 0 -24 2 -35 5 -11 3 -32 -2 -47 -11z"/> <path d="M3697 185 c-22 -52 -25 -70 -16 -86 10 -20 11 -19 30 5 11 14 24 40 29 57 9 32 3 89 -9 89 -4 0 -20 -29 -34 -65z"/> <path d="M4840 224 c0 -6 18 -16 39 -23 44 -13 94 -1 86 21 -7 17 -125 19 -125 2z"/> <path d="M7080 225 c-14 -8 -41 -16 -61 -20 -20 -3 -44 -14 -53 -24 -17 -18 -17 -20 2 -30 26 -14 93 7 100 31 3 14 14 18 46 18 23 0 47 -5 54 -12 9 -9 12 -8 12 8 0 43 -50 58 -100 29z"/> <path d="M6465 209 c-4 -11 -4 -23 0 -27 9 -9 40 13 43 32 5 24 -35 20 -43 -5z"/> <path d="M1523 193 c-10 -3 -10 -10 -2 -26 11 -20 12 -20 25 -2 20 26 8 41 -23 28z"/> <path d="M2845 191 c-6 -11 9 -23 19 -14 9 9 7 23 -3 23 -6 0 -12 -4 -16 -9z"/> <path d="M3442 171 c-7 -19 -12 -44 -12 -55 0 -12 -5 -27 -11 -33 -6 -6 -8 -16 -5 -22 11 -17 57 -13 72 7 16 20 18 72 4 72 -5 0 -16 15 -23 32 l-13 33 -12 -34z"/> <path d="M4355 188 c-4 -10 -15 -20 -26 -23 -24 -8 -27 -55 -3 -55 16 0 48 64 41 83 -3 7 -7 5 -12 -5z"/> <path d="M5907 173 c-4 -3 -7 -12 -7 -20 0 -15 26 -18 34 -4 7 11 -18 33 -27 24z"/> <path d="M3060 150 c-6 -11 -21 -22 -35 -26 -13 -3 -31 -14 -41 -25 -14 -15 -14 -21 -4 -34 18 -21 58 -19 72 5 7 11 23 20 35 20 16 0 23 8 28 30 4 16 4 34 0 40 -10 17 -44 11 -55 -10z"/> <path d="M3136 162 c-7 -12 3 -42 14 -42 4 0 13 7 21 16 7 8 21 13 31 11 10 -3 18 -1 18 4 0 5 -8 9 -17 9 -10 0 -28 3 -39 6 -12 3 -25 1 -28 -4z"/> <path d="M4241 149 c-13 -10 -34 -19 -48 -19 -14 0 -22 -4 -18 -10 4 -6 10 -8 15 -5 5 3 23 -1 39 -10 37 -19 63 -20 39 -1 -22 16 -23 25 -1 41 9 7 12 14 7 18 -5 3 -20 -3 -33 -14z"/> <path d="M1410 146 c0 -17 14 -29 23 -20 8 8 -3 34 -14 34 -5 0 -9 -6 -9 -14z"/> <path d="M3610 143 c0 -10 -3 -29 -7 -42 l-6 -25 31 23 c27 19 30 26 22 42 -13 24 -40 25 -40 2z"/> <path d="M4466 149 c-66 -11 -72 -19 -42 -64 l25 -37 12 25 c11 25 53 47 90 47 22 0 24 11 7 28 -13 13 -21 13 -92 1z"/> <path d="M4980 145 c-7 -9 -11 -18 -8 -20 7 -8 38 5 38 15 0 17 -18 19 -30 5z"/> <path d="M5526 145 c25 -19 34 -19 34 0 0 10 -10 15 -27 15 -26 0 -26 -1 -7 -15z"/> <path d="M5085 140 c-8 -14 3 -30 21 -30 8 0 14 9 14 20 0 21 -24 28 -35 10z"/> <path d="M990 130 c0 -5 9 -10 20 -10 11 0 20 5 20 10 0 6 -9 10 -20 10 -11 0 -20 -4 -20 -10z"/> <path d="M3347 133 c-11 -11 -8 -38 7 -58 13 -18 14 -18 25 3 17 32 -10 78 -32 55z"/> <path d="M4814 125 c-4 -9 -2 -21 4 -27 15 -15 44 -1 40 19 -4 23 -36 29 -44 8z"/> <path d="M5640 130 c0 -5 12 -10 28 -10 21 0 24 2 12 10 -20 13 -40 13 -40 0z"/> <path d="M6380 125 c-9 -11 -22 -14 -42 -10 -34 8 -36 1 -4 -20 21 -14 26 -14 55 2 30 17 36 33 14 40 -5 2 -16 -3 -23 -12z"/> <path d="M6502 123 c4 -22 43 -25 43 -3 0 8 -11 16 -23 18 -19 3 -23 0 -20 -15z"/> <path d="M7640 130 c0 -5 7 -10 15 -10 8 0 15 5 15 10 0 6 -7 10 -15 10 -8 0 -15 -4 -15 -10z"/> <path d="M4016 114 c-8 -22 1 -31 16 -16 9 9 9 15 1 23 -7 7 -12 5 -17 -7z"/> <path d="M1460 105 c0 -9 5 -15 11 -13 6 2 11 8 11 13 0 5 -5 11 -11 13 -6 2 -11 -4 -11 -13z"/> <path d="M1375 99 c-10 -15 3 -25 16 -12 7 7 7 13 1 17 -6 3 -14 1 -17 -5z"/> <path d="M2540 85 c0 -17 5 -25 13 -22 6 2 12 12 12 22 0 10 -6 20 -12 23 -8 2 -13 -6 -13 -23z"/> <path d="M1195 89 c-4 -6 -19 -7 -36 -4 -24 6 -29 3 -29 -13 0 -12 8 -22 18 -24 18 -5 92 31 92 45 0 11 -38 8 -45 -4z"/> <path d="M450 75 c0 -8 5 -15 10 -15 6 0 10 7 10 15 0 8 -4 15 -10 15 -5 0 -10 -7 -10 -15z"/> <path d="M1271 64 c-6 -15 -9 -29 -6 -32 3 -3 5 -1 5 5 0 6 9 13 21 16 12 3 19 11 17 18 -8 23 -24 20 -37 -7z"/> <path d="M1434 65 c-4 -8 -3 -23 0 -32 6 -15 8 -15 16 -3 13 20 12 50 0 50 -6 0 -13 -7 -16 -15z"/> <path d="M2241 61 c-10 -17 -9 -21 3 -21 20 0 31 19 18 32 -7 7 -14 3 -21 -11z"/> <path d="M2637 74 c-11 -12 3 -24 29 -24 15 0 24 6 24 15 0 15 -40 21 -53 9z"/> <path d="M3512 68 c-17 -17 -15 -26 8 -38 30 -16 64 4 50 30 -12 22 -40 26 -58 8z"/> <path d="M1036 45 c21 -32 34 -32 34 0 0 20 -5 25 -25 25 -25 0 -25 -1 -9 -25z"/> <path d="M503 53 c-18 -7 -16 -23 2 -23 8 0 15 7 15 15 0 8 -1 15 -2 14 -2 0 -9 -3 -15 -6z"/> <path d="M2097 54 c-16 -17 -4 -24 39 -24 32 0 44 4 42 13 -5 13 -69 22 -81 11z"/> <path d="M733 3 c15 -2 37 -2 50 0 12 2 0 4 -28 4 -27 0 -38 -2 -22 -4z"/> </g> </svg> 